<?xml version="1.0" encoding="UTF-8"?><svg id="Layer_2" xmlns="http://www.w3.org/2000/svg" viewBox="0 0 268.4 264.33"><defs><style>.cls-1{fill:#fff;}</style></defs><g id="Layer_1-2"><path class="cls-1" d="M232.34,1.79c2.09.6,3.28.79,3.28,1.79,0,.6-.5.99-.99,1.29-1.19.89-1.39,1.39-1.79,2.98-.2.5-.99,4.27-.99,4.67,0,.89.6,1.59,1.59,1.59.3,0,1.09-.2,1.49-.2,3.48-.7,9.14-2.18,12.42-3.38.6-.2,1.29-.5,1.89-.5,1.99,0,2.68,5.76,2.68,6.26,0,1.49-1.49,1.89-3.18,2.28-4.67,1.09-11.03,2.38-15.79,3.18-1.19.2-2.09.6-2.38,1.79-.2.7-.6,2.78-.6,3.48,0,.89.89,1.39,1.59,1.39.2,0,.6-.1.79-.1,2.38-.3,5.17-.6,7.65-.6,14.9,0,28.41,7.55,28.41,23.94,0,22.15-27.52,30.3-30.5,30.3-1.89,0-3.87-4.57-3.87-6.16,0-.99,1.09-1.09,2.28-1.39,3.48-.89,7.15-2.38,10.33-3.97,7.55-3.87,13.31-9.24,13.31-18.28,0-12.52-10.53-15.79-12.22-15.79-1.79,0-2.38,1.69-3.08,3.08-3.08,6.46-8.15,14.01-13.11,19.17-.6.6-1.09,1.19-1.09,2.09,0,.6.6,3.77.7,4.37.1.3.1.5.1.7,0,1.69-4.27,3.87-5.76,3.87-1.09,0-1.49-.79-1.79-1.69-.1-.6-.3-1.29-1.09-1.29-.5,0-.7.2-1.09.4-4.37,3.08-10.23,6.46-15.69,6.46-6.46,0-10.23-4.67-10.23-10.93,0-13.31,12.91-25.33,24.24-30.6,2.38-1.09,2.19-1.69,2.68-6.26,0-.2.1-.4.1-.6,0-.99-.79-1.59-1.69-1.59-1.29,0-8.44,1.19-14.01,1.19-3.58,0-4.57.1-4.57-4.37,0-3.67.7-3.87,2.38-3.87,1.49,0,2.98.1,4.47.1,3.48,0,7.05-.2,10.43-.5,1.59-.2,3.38-.1,3.97-2.19.2-.3,1.69-11.12,1.79-12.32.1-.79.4-1.59,1.39-1.59.6,0,4.57,1.49,5.56,1.79ZM203.43,61.98c0,2.09.89,3.58,3.28,3.58,4.17,0,10.73-4.17,13.91-6.85,1.09-.89,1.29-1.99,1.29-3.28,0-.3-.3-6.06-.3-10.43v-2.88c0-.79-.2-1.49-1.19-1.49-1.99,0-16.99,11.03-16.99,21.36ZM230.06,36.36c-.79.7-.89,2.19-.89,4.17v3.58c0,1.89.1,4.87.99,4.87,1.69,0,8.15-11.82,8.15-13.31,0-.7-.7-.79-1.19-.79-1.59,0-5.96.6-7.05,1.49Z"/><path class="cls-1" d="M250.12,103.7c0,.6-1.39,1.39-1.89,1.69-4.67,3.08-12.62,11.42-16.49,15.69-.3.4-.7.89-.7,1.49s.6.99,1.19.99c.3,0,1.29-.2,1.69-.3,1.79-.5,3.87-.7,5.66-.7,12.71,0,24.14,7.65,24.14,21.26,0,16.89-15.2,25.93-30.69,25.93-4.97,0-10.13-.89-14.21-3.97-2.78-1.99-4.77-5.26-4.77-8.74,0-6.36,5.66-11.03,11.82-11.03s14.3,4.97,14.3,11.92c0,1.39-.4,2.09-.4,2.48,0,.6.4.99.99.99,2.09,0,14.4-4.87,14.4-17.18,0-10.13-8.74-14.3-17.78-14.3s-16.19,3.28-22.45,9.54c-3.68,3.58-7.15,7.45-10.53,11.32-.6.7-.99,1.29-1.59,1.29-1.99,0-5.76-4.27-5.76-5.66,0-1.09,1.29-1.99,1.99-2.68,12.42-10.83,23.34-23.14,34.57-35.16.5-.6,1.19-1.19,1.19-2.09,0-.79-.7-1.09-1.39-1.09-.5,0-1.39.2-1.89.3-6.16,1.49-12.52,2.58-18.77,3.78-.6.1-1.89.4-2.48.4-2.19,0-2.38-5.56-2.38-7.15,0-2.29.5-2.48,3.28-2.48h1.79c6.66,0,18.77-1.49,25.03-3.68.99-.3,2.38-.89,3.48-.89,3.77,0,8.64,6.46,8.64,8.05ZM226.08,152.57c-2.58,0-4.87,1.89-4.87,4.47,0,4.07,5.46,6.06,8.84,6.06,1.99,0,2.78-2.28,2.78-3.97,0-3.78-3.08-6.56-6.75-6.56Z"/><path class="cls-1" d="M209.49,234.43c.6,2.78,1.39,5.07,3.38,7.25,4.07,4.57,11.52,5.36,17.28,5.36,10.13,0,20.36-1.19,30.2-3.48.3-.1.79-.2,1.09-.2,1.49,0,1.89,1.79,1.89,5.76,0,1.59-.3,3.18-1.99,3.77-4.47,1.59-24.24,2.88-29.8,2.88-10.03,0-21.06-1.49-27.32-10.33-1.39-2.09-3.58-6.46-3.58-9.04,0-2.19,6.85-3.68,6.95-3.68,1.19,0,1.59.6,1.89,1.69ZM215.45,194.69c5.56,1.69,11.42,2.19,17.19,2.19,6.06,0,12.12-.6,18.08-1.99.3,0,.79-.1,1.19-.1,2.28,0,2.28,4.77,2.28,6.36,0,2.38-.6,2.68-2.58,2.98-5.66.79-12.52,1.09-18.18,1.09-4.47,0-18.97-.5-22.25-2.68-.7-.5-.79-1.09-.79-1.89,0-.7.6-3.87.79-4.67.3-.89.6-1.79,1.79-1.79.7,0,1.79.3,2.48.5Z"/><path class="cls-1" d="M119.99,1.99c1.19-.1,2.29-.3,3.48-.3,2.58,0,2.48,1.19,2.68,3.38.7,6.75,2.19,13.31,3.68,19.77.3,1.19.7,2.58,2.19,2.58,1.59,0,18.87-10.13,21.36-11.72.7-.5,1.59-1.09,2.58-1.09,1.49,0,5.36,6.95,5.36,8.25,0,.89-1.19,1.19-1.89,1.39-8.15,2.68-22.35,10.23-29.9,14.6-6.56,3.77-18.18,10.43-18.18,18.97,0,2.78,1.99,5.17,4.27,6.56,4.57,2.98,11.23,3.38,16.49,3.38,6.85,0,19.57-1.09,26.12-2.48.3-.1.7-.1.99-.1,1.39,0,1.29,3.48,1.29,5.66,0,1.99-.1,3.28-1.69,3.68-3.48.89-22.95,1.59-27.52,1.59-7.15,0-13.41-.4-19.77-4.17-5.26-3.08-8.64-8.34-8.64-14.6,0-10.83,9.73-17.78,17.98-23.05.99-.7,1.69-1.29,1.69-2.58,0-.7-.1-1.09-.3-1.69-1.59-4.07-3.97-13.31-5.07-17.88-.6-2.68-1.09-4.57-1.99-7.25-.2-.3-.3-.79-.3-1.09,0-1.39,2.78-1.49,5.07-1.79Z"/><path class="cls-1" d="M131.12,184.06c.5.2,1.19.5,1.19,1.19,0,.6-.6.99-1.39,1.79-.89.79-2.48,7.45-2.88,8.94-.1.5-.4,1.59-.4,1.89,0,.7.5,1.19,1.19,1.19s5.96-1.49,6.85-1.79c.4-.1.7-.3,1.09-.3,1.49,0,1.69,5.26,1.69,6.46,0,2.29-1.19,2.29-10.93,4.07-3.28.6-3.18,1.09-4.27,4.17-3.08,9.04-7.55,18.77-11.82,27.42-1.49,2.88-2.98,5.76-4.67,8.64-.4.7-.79,1.19-1.69,1.19-1.69,0-6.95-2.29-6.95-4.07,0-.79,1.19-2.58,1.59-3.38,4.47-7.15,9.14-15.99,12.32-23.84.6-1.39,2.48-5.96,2.48-6.75,0-.6-.4-1.19-1.19-1.19-.6,0-1.39.1-1.99.2-1.59.2-8.94.89-10.23.89-1.59,0-1.99-.89-2.28-2.58-.2-.89-.5-3.58-.5-4.47,0-1.19.6-1.49,1.69-1.49.79,0,1.59.1,2.28.1,2.68,0,13.91-.1,15.4-1.69.89-.99,1.59-4.27,2.09-6.26.89-3.68,1.49-7.55,1.59-11.32,0-.7,0-1.59.89-1.59.99,0,7.45,2.09,8.84,2.58ZM145.92,212.87c.89.2,1.69.7,1.69,1.69,0,.4-.2,3.38-.2,5.36,0,5.26.4,15.1.99,20.26.2,1.79.89,2.29,2.48,2.88,3.97,1.49,6.36,2.58,10.03,4.67,1.19.7,5.76,3.18,5.76,4.47,0,1.59-2.88,5.76-4.97,5.76-.89,0-1.79-.79-2.48-1.29-1.59-1.19-7.45-5.26-9.34-5.26-1.09,0-1.19,1.59-1.29,2.48-.7,7.45-5.96,10.43-13.01,10.43-7.45,0-16.69-4.07-16.69-12.62s8.54-11.42,15.79-11.42c1.19,0,2.48.1,3.68.1.99,0,1.89-.2,1.89-1.39,0-2.88-1.39-20.66-1.89-23.94v-1.19c0-1.29.79-1.79,1.99-1.79,1.59,0,4.07.4,5.56.79ZM126.85,251.51c0,3.58,5.07,5.46,8.05,5.46,4.27,0,6.16-2.19,6.16-6.36,0-2.48-.3-3.38-6.06-3.38-2.78,0-8.15.5-8.15,4.27ZM170.56,213.57c0,1.99-4.47,5.26-5.96,5.26-.89,0-1.29-.7-1.79-1.39-2.88-4.47-7.85-9.34-12.12-12.52-.6-.4-1.29-.99-1.29-1.69,0-1.19,3.68-5.26,5.26-5.26,2.48,0,15.89,13.11,15.89,15.6Z"/><path class="cls-1" d="M9.93,15.99c.7.2,1.89.5,1.89,1.39,0,.6-.4.99-.99,1.39-1.19.99-1.29,2.38-1.59,4.17-.5,3.18-.7,6.46-.7,9.64,0,7.25.7,15.79,3.48,22.45,1.39,3.28,5.17,9.64,9.14,9.64,2.88,0,6.16-4.67,7.45-6.95.5-.89,1.29-2.48,2.48-2.48,1.69,0,5.56,3.28,5.56,4.77,0,1.89-5.56,8.05-7.05,9.64-2.38,2.48-4.67,4.37-8.34,4.37-5.96,0-10.83-4.77-13.91-9.54C.99,54.83,0,41.52,0,30.2c0-3.18.3-11.42.5-14.7,0-.89.4-1.39,1.29-1.39,1.19,0,6.75,1.49,8.15,1.89ZM52.05,14.6c1.99,0,8.94,5.76,12.81,11.72,3.77,5.96,6.06,12.91,7.15,19.87.2.79.3,2.29.3,3.08,0,1.19-.3,1.89-1.49,2.29-1.19.5-3.38.89-4.77.89-2.88,0-2.78-1.29-2.98-3.18-1.29-11.82-5.26-20.96-14.8-28.31-.5-.4-.79-.79-.79-1.49,0-1.69,2.98-4.87,4.57-4.87Z"/><path class="cls-1" d="M10.83,142.54c.6,2.78,1.39,5.07,3.38,7.25,4.07,4.57,11.52,5.36,17.28,5.36,10.13,0,20.36-1.19,30.2-3.48.3-.1.79-.2,1.09-.2,1.49,0,1.89,1.79,1.89,5.76,0,1.59-.3,3.18-1.99,3.77-4.47,1.59-24.24,2.88-29.8,2.88-10.03,0-21.06-1.49-27.32-10.33-1.39-2.09-3.58-6.46-3.58-9.04,0-2.19,6.85-3.68,6.95-3.68,1.19,0,1.59.6,1.89,1.69ZM16.79,102.81c5.56,1.69,11.42,2.19,17.19,2.19,6.06,0,12.12-.6,18.08-1.99.3,0,.79-.1,1.19-.1,2.28,0,2.28,4.77,2.28,6.36,0,2.38-.6,2.68-2.58,2.98-5.66.79-12.52,1.09-18.18,1.09-4.47,0-18.97-.5-22.25-2.68-.7-.5-.79-1.09-.79-1.89,0-.7.6-3.87.79-4.67.3-.89.6-1.79,1.79-1.79.7,0,1.79.3,2.48.5Z"/><path class="cls-1" d="M20.66,185.75c1.19-.1,2.29-.3,3.48-.3,2.58,0,2.48,1.19,2.68,3.38.7,6.75,2.19,13.31,3.68,19.77.3,1.19.7,2.58,2.19,2.58,1.59,0,18.87-10.13,21.36-11.72.7-.5,1.59-1.09,2.58-1.09,1.49,0,5.36,6.95,5.36,8.24,0,.89-1.19,1.19-1.89,1.39-8.15,2.68-22.35,10.23-29.9,14.6-6.56,3.77-18.18,10.43-18.18,18.97,0,2.78,1.99,5.17,4.27,6.56,4.57,2.98,11.23,3.38,16.49,3.38,6.85,0,19.57-1.09,26.12-2.48.3-.1.7-.1.99-.1,1.39,0,1.29,3.48,1.29,5.66,0,1.99-.1,3.28-1.69,3.67-3.48.89-22.95,1.59-27.52,1.59-7.15,0-13.41-.4-19.77-4.17-5.26-3.08-8.64-8.34-8.64-14.6,0-10.83,9.73-17.78,17.98-23.05.99-.7,1.69-1.29,1.69-2.58,0-.7-.1-1.09-.3-1.69-1.59-4.07-3.97-13.31-5.07-17.88-.6-2.68-1.09-4.57-1.99-7.25-.2-.3-.3-.79-.3-1.09,0-1.39,2.78-1.49,5.07-1.79Z"/></g></svg>
