<?xml version="1.0" encoding="UTF-8"?><svg id="Layer_2" xmlns="http://www.w3.org/2000/svg" viewBox="0 0 79.9 92.13"><defs><style>.cls-1,.cls-2{fill:none;stroke:#fff;stroke-miterlimit:10;}.cls-2{stroke-width:.66px;}.cls-3{fill:#fff;}</style></defs><g id="Layer_1-2"><path class="cls-3" d="M3.08,60.35v-.82c0-.14-.03-.21-.1-.21-.04,0-.1.03-.17.1-.24.21-.49.39-.75.56-.26.17-.54.31-.83.43-.03.01-.06.01-.08,0-.02,0-.04-.03-.06-.05l-.06-.09-.15-.2s-.03-.03-.04-.04c-.01-.01-.02-.02-.03-.04-.04-.04-.04-.08.02-.1.26-.1.51-.22.76-.35.25-.13.48-.29.69-.47.08-.06.12-.12.1-.16-.02-.04-.08-.06-.18-.06h-.51c-.06,0-.1-.02-.14-.05s-.05-.08-.05-.14v-1.71c0-.06.02-.1.05-.14.04-.04.08-.05.14-.05h1.24s.08-.01.11-.04c.03-.03.04-.07.04-.11s-.01-.08-.04-.11-.06-.04-.11-.04h-1.79c-.06,0-.1-.02-.14-.05-.04-.04-.05-.08-.05-.14v-.16c0-.06.02-.1.05-.14.04-.04.08-.05.14-.05h1.75c.06,0,.1-.02.14-.05.04-.04.05-.08.05-.14v-.13c0-.06.02-.1.05-.14s.08-.05.14-.05h.27c.06,0,.1.02.14.05s.05.08.05.14v.13c0,.06.02.1.05.14s.08.05.14.05h1.74c.06,0,.1.02.14.05.04.04.05.08.05.14v.16c0,.06-.02.1-.05.14-.04.04-.08.05-.14.05h-1.78s-.08.01-.11.04-.04.06-.04.11.01.08.04.11c.03.03.06.04.11.04h1.25c.06,0,.1.02.14.05s.05.08.05.14v1.71c0,.06-.02.1-.05.14-.04.04-.08.05-.14.05h-.51c-.1,0-.17.02-.18.06s.02.09.1.16c.09.08.2.16.32.24.12.08.24.15.37.23s.26.14.39.2c.13.06.25.12.37.16.06.02.06.06.02.1-.01.01-.02.02-.03.04-.01.01-.02.03-.03.04-.06.06-.11.13-.15.2-.01.01-.02.03-.03.04-.01.01-.02.03-.03.04-.03.06-.08.08-.14.06-.23-.09-.46-.2-.67-.33-.22-.13-.42-.27-.61-.43-.11-.08-.21-.17-.3-.25-.07-.06-.13-.09-.17-.09-.07,0-.1.07-.1.21v.83c0,.06-.02.1-.05.14s-.08.05-.14.05h-.27c-.06,0-.1-.02-.14-.05s-.05-.08-.05-.14ZM2.31,57.58h.6c.05,0,.09-.02.12-.04.03-.03.04-.07.04-.12s-.01-.09-.04-.12c-.03-.03-.07-.04-.12-.04h-.6c-.05,0-.09.02-.12.04s-.04.07-.04.12.01.09.04.12.07.04.12.04ZM2.31,58.35h.6c.05,0,.09-.01.12-.04s.04-.07.04-.12-.01-.09-.04-.12c-.03-.03-.07-.04-.12-.04h-.6c-.05,0-.09.01-.12.04-.03.03-.04.07-.04.12s.01.09.04.12c.03.03.07.04.12.04ZM3.9,57.58h.61c.05,0,.09-.02.12-.04.03-.03.04-.07.04-.12s-.01-.09-.04-.12c-.03-.03-.07-.04-.12-.04h-.61c-.05,0-.09.02-.12.04-.03.03-.04.07-.04.12s.01.09.04.12c.03.03.07.04.12.04ZM3.9,58.35h.61c.05,0,.09-.01.12-.04s.04-.07.04-.12-.01-.09-.04-.12c-.03-.03-.07-.04-.12-.04h-.61c-.05,0-.09.01-.12.04-.03.03-.04.07-.04.12s.01.09.04.12.07.04.12.04Z"/><path class="cls-3" d="M8.5,60.23s-.04-.04-.05-.06c-.02-.02-.03-.04-.05-.06-.02-.02-.04-.04-.07-.06s-.04-.04-.06-.06c-.08-.07-.07-.13.02-.19.41-.26.77-.57,1.09-.94.04-.06.1-.08.16-.08.04,0,.08.01.13.04l.2.16s.07.08.08.13c0,.05,0,.09-.05.14-.16.19-.35.38-.54.56-.2.18-.4.33-.62.47-.03.02-.07.03-.1.03-.05,0-.1-.03-.14-.08ZM8.23,56.33v-.21c0-.06.02-.1.05-.14.04-.04.08-.05.14-.05h1.75c.06,0,.1-.02.14-.05s.05-.08.05-.14v-.19c0-.06.02-.1.05-.14.04-.04.08-.05.14-.05h.31c.06,0,.1.02.14.05.04.04.05.08.05.14v.19c0,.06.02.1.05.14s.08.05.14.05h1.73c.06,0,.1.02.14.05.04.04.05.08.05.14v.21c0,.06-.02.1-.05.14-.04.04-.08.05-.14.05h-4.56c-.06,0-.1-.02-.14-.05-.04-.04-.05-.08-.05-.14ZM9.91,60.44s0-.04,0-.05,0-.04,0-.05l-.06-.25s-.01-.07-.03-.1c-.02-.06,0-.1.07-.1h.29c.08,0,.13-.01.17-.04.03-.03.05-.08.05-.15v-.92c0-.06-.02-.1-.05-.14-.04-.04-.08-.05-.14-.05h-1.03c-.06,0-.1-.02-.14-.05s-.05-.08-.05-.14v-1.35c0-.06.02-.1.05-.14s.08-.05.14-.05h3.11c.06,0,.1.02.14.05.04.04.05.08.05.14v1.35c0,.06-.02.1-.05.14-.04.04-.08.05-.14.05h-1.03c-.06,0-.1.02-.14.05s-.05.08-.05.14v1.17c0,.12-.02.21-.05.29-.04.08-.08.14-.15.18s-.14.08-.22.09c-.09.02-.18.03-.29.03h-.31c-.07,0-.11-.04-.12-.11ZM9.82,58.04h1.78c.06,0,.1-.02.14-.05.04-.04.05-.08.05-.14v-.25c0-.06-.02-.1-.05-.14-.04-.04-.08-.05-.14-.05h-1.78c-.06,0-.1.02-.14.05-.04.04-.05.08-.05.14v.25c0,.06.02.1.05.14.04.04.08.05.14.05ZM12.67,60.27c-.21-.14-.42-.3-.61-.47-.19-.18-.37-.36-.54-.55-.04-.04-.06-.09-.05-.14,0-.05.03-.09.08-.13l.2-.15s.07-.04.12-.04c.06,0,.11.02.15.07.16.18.33.34.52.49s.38.29.58.42c.04.03.07.06.07.09,0,.04-.01.07-.05.11-.02.02-.04.04-.06.06-.02.02-.04.04-.06.06-.02.03-.04.05-.05.07-.02.02-.04.04-.05.06-.04.05-.09.08-.15.08-.03,0-.06-.01-.1-.03Z"/><path class="cls-3" d="M15.74,60.44s0,0,0-.01,0,0,0-.01l-.03-.05s0-.01,0-.01,0,0,0-.01c-.03-.04-.05-.08-.08-.12-.03-.04-.05-.08-.08-.11-.02-.02-.03-.04-.04-.05-.01-.01-.02-.03-.03-.04-.05-.06-.04-.1.03-.12.25-.09.48-.21.71-.36.23-.14.44-.31.62-.5s.35-.4.48-.63.24-.48.3-.74c.01-.06,0-.12-.03-.16s-.08-.06-.15-.06h-1.69c-.06,0-.1-.02-.14-.05-.04-.04-.05-.08-.05-.14v-.26c0-.06.02-.1.05-.14s.08-.05.14-.05h1.75c.06,0,.1-.02.14-.05.04-.04.05-.08.05-.14v-1.01c0-.06.02-.1.05-.14s.08-.05.14-.05h.33c.06,0,.1.02.14.05.04.04.05.08.05.14v1.01c0,.06.02.1.05.14.04.04.08.05.14.05h1.75c.06,0,.1.02.14.05.04.04.05.08.05.14v.26c0,.06-.02.1-.05.14s-.08.05-.14.05h-1.69c-.07,0-.12.02-.15.06-.04.04-.04.09-.03.16.07.25.17.49.31.72s.3.44.49.63.39.36.62.5c.23.15.46.26.7.35.07.03.08.08.03.13-.01.01-.02.03-.04.04-.01.01-.03.03-.04.05-.03.04-.06.08-.08.12-.03.04-.05.08-.08.12-.01.02-.03.04-.04.05,0,.02-.02.03-.03.04-.02.03-.04.05-.07.07-.03.01-.06,0-.09,0-.18-.09-.37-.19-.55-.31-.18-.12-.36-.25-.52-.39-.17-.14-.32-.3-.46-.46-.14-.16-.26-.34-.37-.52-.06-.12-.13-.18-.21-.18-.07,0-.14.06-.21.18-.1.18-.22.35-.37.51-.14.16-.3.32-.46.46-.17.14-.34.27-.52.39s-.37.22-.55.32c-.03.01-.06.02-.09,0-.03-.01-.05-.03-.07-.06Z"/><path class="cls-3" d="M24.38,60.39s-.01-.05-.02-.08,0-.05-.02-.08c0-.03-.01-.06-.02-.08,0-.03-.01-.05-.02-.07-.01-.04-.01-.08,0-.11.02-.03.05-.04.1-.04h.4c.08,0,.13-.01.16-.04.03-.02.05-.07.05-.15v-.39c0-.06-.02-.1-.05-.14s-.08-.05-.14-.05h-1.81c-.06,0-.1-.02-.14-.05s-.05-.08-.05-.14v-.19c0-.06.02-.1.05-.14.04-.04.08-.05.14-.05h1.84s.09-.01.12-.04.04-.07.04-.12v-.04c0-.08.04-.12.13-.12h.06s.08-.01.12-.04l.17-.13s.01-.01.02-.01c0,0,0,0,.01-.01l.07-.05s.02-.02.03-.02c.04-.03.05-.06.04-.08,0-.02-.04-.03-.08-.03h-1.56c-.06,0-.1-.02-.14-.05-.04-.04-.05-.08-.05-.14v-.17c0-.06.02-.1.05-.14s.08-.05.14-.05h2.57c.05,0,.1.02.13.06l.07.07s.06.08.06.13-.02.09-.06.12c-.08.07-.15.15-.23.21s-.16.13-.24.2c-.06.05-.12.1-.17.14-.05.04-.11.09-.16.13-.03.02-.05.04-.07.05-.02.02-.04.03-.07.05-.09.07-.08.1.03.1h1.71c.06,0,.1.02.14.05s.05.08.05.14v.19c0,.06-.02.1-.05.14-.04.04-.08.05-.14.05h-1.72c-.06,0-.1.02-.14.05s-.05.08-.05.14v.62c0,.39-.24.58-.71.58h-.42c-.05,0-.1-.02-.13-.04-.03-.03-.05-.07-.06-.12ZM22.89,57.57v-.94c0-.06.02-.1.05-.14s.08-.05.14-.05h.46c.06,0,.11-.02.13-.05.02-.04.02-.08,0-.14-.02-.03-.03-.06-.05-.1-.02-.03-.04-.07-.05-.1-.02-.03-.04-.06-.06-.09-.02-.03-.04-.05-.06-.08-.03-.05-.04-.1-.03-.14,0-.04.04-.08.1-.1l.26-.12s.08-.02.12-.01c.04,0,.07.03.1.07.01.02.03.04.04.06s.03.05.05.07l.19.31s.03.05.04.07c.01.02.02.04.03.07.02.04.02.08,0,.12-.01.04-.04.07-.08.08h-.03c-.05.03-.08.05-.08.06,0,.01.03.02.09.02h.63s.08-.01.1-.04.02-.06,0-.1c0-.02-.02-.05-.03-.07s-.02-.05-.03-.08c0-.01-.02-.04-.04-.07-.02-.03-.03-.07-.05-.11-.02-.04-.04-.07-.06-.1-.02-.03-.03-.05-.04-.06l-.03-.07s-.01-.02-.02-.03c-.03-.04-.04-.07-.03-.1,0-.03.04-.06.08-.07l.33-.12s.08-.02.11,0c.04.01.07.03.09.06.02.02.04.05.05.07.02.03.03.05.05.08.03.06.06.11.09.17.03.06.06.11.09.17.01.03.02.05.03.08.01.02.02.05.03.07.02.04.02.09,0,.13-.02.04-.05.07-.1.09l-.07.03c-.14.06-.14.09.02.09h.39c.07,0,.12-.03.16-.09.06-.1.12-.21.18-.32.06-.11.11-.21.17-.32.01-.03.03-.06.04-.09.01-.03.03-.06.04-.09.02-.04.05-.07.09-.09s.09-.03.13-.01l.29.08c.07.02.11.05.13.1s.02.1-.01.17c-.04.08-.08.15-.12.23-.04.08-.08.15-.13.23-.04.06-.05.12-.03.15s.07.06.15.06h.61c.06,0,.1.02.14.05.04.04.05.08.05.14v.94c0,.06-.02.1-.05.14s-.08.05-.14.05h-.26c-.06,0-.1-.02-.14-.05s-.05-.08-.05-.14v-.4c0-.06-.02-.1-.05-.14s-.08-.05-.14-.05h-3.22c-.06,0-.1.02-.14.05-.04.04-.05.08-.05.14v.4c0,.06-.02.1-.05.14s-.08.05-.14.05h-.25c-.06,0-.1-.02-.14-.05-.04-.04-.05-.08-.05-.14Z"/><path class="cls-3" d="M32.3,60.33v-.54c0-.06-.02-.1-.05-.14-.04-.04-.08-.05-.14-.05h-.51c-.06,0-.1-.02-.14-.05s-.05-.08-.05-.14v-.24c0-.06.02-.1.05-.14.04-.04.08-.05.14-.05h.51c.06,0,.1-.02.14-.05.04-.04.05-.08.05-.14v-.65c0-.16-.03-.24-.09-.24-.05,0-.11.05-.18.15-.22.29-.46.56-.71.82-.25.26-.52.5-.81.72-.03.03-.07.04-.11.04-.05,0-.1-.02-.14-.07-.04-.04-.08-.08-.12-.13-.04-.04-.08-.08-.12-.12-.08-.07-.08-.14.01-.2.36-.23.69-.5.98-.81.29-.31.56-.64.81-.98.06-.09.08-.16.04-.21-.03-.05-.1-.08-.2-.08h-1.34c-.06,0-.1-.02-.14-.05s-.05-.08-.05-.14v-.22c0-.06.02-.1.05-.14.04-.04.08-.05.14-.05h1.79c.06,0,.1-.02.14-.05.04-.04.05-.08.05-.14v-.65c0-.06.02-.1.05-.14s.08-.05.14-.05h.28c.06,0,.1.02.14.05.04.04.05.08.05.14v.65c0,.06.02.1.05.14s.08.05.14.05h1.79c.06,0,.1.02.14.05.04.04.05.08.05.14v.22c0,.06-.02.1-.05.14-.04.04-.08.05-.14.05h-1.35c-.1,0-.17.03-.2.08-.03.05-.01.12.04.2.24.35.52.67.82.98.3.3.63.57.98.81.09.06.09.12.01.2-.04.04-.08.08-.12.12s-.08.08-.12.13c-.04.05-.09.07-.15.07-.04,0-.08-.01-.11-.04-.29-.22-.56-.46-.82-.72s-.49-.54-.71-.82c-.07-.1-.13-.15-.18-.15-.06,0-.09.08-.09.24v.66c0,.06.02.1.05.14s.08.05.14.05h.53c.06,0,.1.02.14.05s.05.08.05.14v.24c0,.06-.02.1-.05.14-.04.04-.08.05-.14.05h-.53c-.06,0-.1.02-.14.05s-.05.08-.05.14v.54c0,.06-.02.1-.05.14s-.08.05-.14.05h-.28c-.06,0-.1-.02-.14-.05-.04-.04-.05-.08-.05-.14Z"/><path class="cls-3" d="M37.65,60.39s-.04-.04-.05-.06-.04-.04-.05-.06c-.02-.02-.04-.04-.06-.06s-.04-.04-.06-.05c-.07-.07-.07-.13,0-.19.19-.13.35-.29.49-.48s.26-.38.35-.59c.03-.08.03-.13,0-.17-.03-.04-.09-.05-.17-.04l-.26.04c-.05,0-.1.01-.15.02-.05,0-.09.01-.14.02-.12.01-.19-.04-.21-.16l-.04-.26s0-.08.02-.11.06-.04.1-.05h.05s.06-.01.08-.03.05-.04.06-.06l.17-.26s.06-.09.08-.13c.03-.04.05-.09.08-.15.03-.04.04-.08.03-.13,0-.04-.03-.08-.07-.11-.02-.02-.05-.04-.07-.06s-.05-.04-.08-.06l-.3-.22s-.04-.03-.06-.04c-.02-.01-.04-.03-.06-.04-.08-.05-.1-.12-.05-.21l.2-.33s.04-.04.07-.02l.1.07s.06.02.08-.02l.16-.28.2-.4s.03-.06.04-.09c.02-.03.03-.06.04-.08.04-.07.1-.11.17-.11.03,0,.06,0,.08.02l.2.09s.06.04.07.07c.01.03,0,.06-.01.1l-.23.43-.32.53s-.02.07.02.1l.1.08s.06.02.08-.02c.03-.05.06-.1.08-.15s.05-.1.08-.15l.07-.14c.03-.06.08-.08.14-.08.02,0,.05,0,.07.02l.09.04s.08.03.11.03c.08,0,.12-.06.12-.17v-.45c0-.06.02-.1.05-.14.04-.04.08-.05.14-.05h1.15c.06,0,.1.02.14.05.04.04.05.08.05.14v2.18c0,.06-.02.1-.05.14-.04.04-.08.05-.14.05h-.59c-.06,0-.1.02-.14.05-.04.04-.05.08-.05.14v.96c0,.07.04.1.11.08l.21-.05s.05-.02.06-.04c.01-.02.01-.05,0-.08-.02-.05-.04-.1-.05-.16s-.03-.1-.05-.16l-.03-.08s0-.02-.01-.04c-.02-.04-.02-.08,0-.12.02-.04.05-.06.1-.08l.22-.06s.09-.01.13,0,.07.05.09.1c.04.1.08.21.12.33.05.17.1.33.15.49.04.16.09.33.13.49,0,.04,0,.08-.02.11-.02.03-.05.05-.09.06-.02,0-.04.01-.06.02-.02,0-.04.01-.07.02l-.18.07c-.06.02-.1,0-.12-.07l-.02-.1-.03-.12c-.02-.08-.07-.1-.15-.08-.11.03-.22.07-.35.1-.09.03-.17.05-.26.08s-.17.05-.25.07l-.24.06c-.05.02-.1.01-.14-.01s-.07-.06-.09-.12l-.06-.19c-.02-.06-.01-.12.01-.16s.07-.07.14-.08c.02,0,.03,0,.05-.01s.04,0,.05-.01c.04-.01.08-.03.1-.07.03-.03.04-.07.04-.12v-2.59c0-.09-.01-.13-.04-.13-.02,0-.05.03-.09.1-.02.04-.04.08-.07.12-.02.04-.04.08-.07.13-.1.18-.21.36-.31.53-.11.17-.22.35-.33.52-.03.04-.02.07.04.06l.17-.02s.08-.03.08-.08l.03-.16v-.12c.01-.08.06-.11.13-.1l.26.04c.05,0,.09.03.13.06.03.04.04.08.04.13-.02.23-.06.47-.13.7s-.14.46-.24.67c-.1.22-.22.42-.37.61-.14.19-.31.36-.49.51-.03.03-.06.04-.1.04-.05,0-.09-.02-.12-.06ZM39.87,56.64h.06c.06,0,.1-.02.14-.05s.05-.08.05-.14v-.12c0-.06-.02-.1-.05-.14-.04-.04-.08-.05-.14-.05h-.06c-.06,0-.1.02-.14.05s-.05.08-.05.14v.12c0,.06.02.1.05.14.04.04.08.05.14.05ZM39.87,57.67h.06c.06,0,.1-.02.14-.05.04-.04.05-.08.05-.14v-.13c0-.06-.02-.1-.05-.14-.04-.04-.08-.05-.14-.05h-.06c-.06,0-.1.02-.14.05-.04.04-.05.08-.05.14v.13c0,.06.02.1.05.14.04.04.08.05.14.05ZM40.89,60.33v-4.52c0-.06.02-.1.05-.14s.08-.05.14-.05h1.22s.09.02.12.04l.09.07s.05.05.06.09c0,.04,0,.07,0,.11,0,.03-.02.05-.03.08-.01.03-.02.06-.03.09l-.3.81-.19.48c-.03.08-.02.14.04.21.16.18.29.38.39.58s.15.44.15.69c0,.14-.01.27-.04.39s-.07.21-.13.3c-.06.08-.15.15-.25.19-.11.04-.23.07-.39.07h-.1c-.06,0-.1-.03-.11-.09,0-.03-.01-.07-.02-.11,0-.04-.01-.08-.02-.12-.01-.04-.02-.07-.03-.1,0-.03-.02-.06-.03-.09-.03-.06,0-.1.07-.1h.1c.08,0,.14-.01.19-.03s.08-.05.1-.09c.02-.04.04-.09.04-.14,0-.05,0-.12,0-.18,0-.15-.03-.3-.1-.47s-.14-.31-.23-.42c-.05-.06-.09-.1-.13-.1-.06,0-.1.06-.1.19v2.37c0,.06-.02.1-.05.14-.04.04-.08.05-.14.05h-.16c-.06,0-.1-.02-.14-.05-.04-.04-.05-.08-.05-.14ZM41.48,57.32l.33-.93s.01-.04.02-.07c0-.02.01-.04.02-.06.01-.04.01-.07,0-.09s-.05-.03-.09-.03h-.13c-.06,0-.1.02-.14.05-.04.04-.05.08-.05.14v.99s0,.07.01.08c0,0,.02-.02.04-.07Z"/><path class="cls-3" d="M47.15,60.15c0-.06-.01-.13-.02-.19l-.06-.62c0-.09-.02-.18-.03-.27,0-.09-.02-.19-.03-.28,0-.06-.03-.1-.07-.13-.04-.03-.09-.04-.14-.04-.21.03-.42.05-.63.08s-.42.05-.63.08c-.06,0-.11.02-.16.02-.05,0-.1.02-.14.02-.06,0-.11,0-.15-.03-.04-.03-.06-.07-.07-.14l-.04-.29c0-.06,0-.11.04-.15.03-.04.08-.06.14-.07l.3-.03c.1,0,.21-.02.32-.03.11-.01.23-.03.36-.04.1,0,.19-.02.29-.03.1-.01.2-.02.29-.03.06,0,.1-.03.13-.07.03-.04.04-.08.04-.14l-.04-.37c0-.06-.03-.1-.07-.13s-.09-.04-.14-.04c-.11.01-.22.03-.32.04-.11.01-.21.03-.31.04-.08.01-.15.02-.22.03-.07.01-.13.02-.19.03-.06,0-.12,0-.15-.03s-.06-.07-.07-.14l-.03-.29c0-.06,0-.11.04-.15.03-.04.08-.06.14-.06.06,0,.12-.01.19-.02.07,0,.14-.01.22-.02.1,0,.2-.02.31-.03.11,0,.21-.02.32-.03.06,0,.1-.03.13-.07.03-.04.04-.09.04-.14,0-.06-.01-.11-.02-.16s-.01-.1-.02-.15c0-.03-.01-.06-.02-.09,0-.03,0-.06-.01-.08,0-.05,0-.1.03-.13.03-.04.07-.06.12-.06l.37-.05c.12-.01.18.04.19.16v.17s.02.1.02.15c0,.05,0,.11.02.16,0,.06.03.11.07.14.04.03.09.04.15.03l.61-.08c.07-.01.14-.02.2-.03s.12-.02.17-.03c.06,0,.11,0,.15.03.04.03.06.07.07.13l.03.29c0,.06,0,.11-.04.15-.03.04-.08.06-.14.07-.05,0-.11,0-.17.01-.06,0-.12,0-.19.02-.1.01-.2.02-.31.03-.11.01-.21.02-.33.03-.06,0-.1.03-.13.07-.03.04-.04.08-.04.14l.04.37c0,.06.03.1.07.13.04.03.09.04.14.04l.55-.07c.12-.01.23-.03.34-.04.11-.01.21-.03.31-.04l.26-.04c.06,0,.11,0,.15.03.04.03.06.07.07.13l.03.29c0,.06,0,.11-.04.15-.03.04-.08.06-.14.07l-.9.08s-.05,0-.07,0-.05,0-.07,0l-.29.03s-.05,0-.07,0-.05,0-.07,0c-.06,0-.1.03-.13.07-.03.04-.04.09-.04.14l.07.54c.03.24.06.44.08.62l.03.2c0,.06,0,.11-.03.15-.03.04-.08.06-.13.07l-.34.03c-.06,0-.11,0-.14-.04-.04-.03-.06-.08-.07-.13Z"/><path class="cls-3" d="M54.38,60.21s0-.04-.01-.06,0-.04-.01-.07l-.2-1.02c-.01-.08-.03-.15-.04-.22-.01-.07-.03-.14-.05-.21-.01-.06-.04-.1-.08-.12s-.09-.04-.15-.03l-.49.1c-.09.01-.17.03-.24.05-.06.01-.11,0-.15-.02s-.07-.07-.08-.13l-.03-.16c-.01-.06,0-.12.03-.16.03-.04.08-.07.15-.08.03,0,.07-.01.11-.02s.08,0,.13-.02c.14-.01.29-.04.46-.07.06,0,.11-.03.14-.07.03-.04.03-.09.02-.15-.04-.21-.09-.41-.14-.6-.01-.05-.01-.1,0-.13.02-.04.06-.06.11-.06l.2-.04c.05,0,.1,0,.13.02.04.02.06.06.06.11.01.04.02.1.03.17l.1.47c.01.05.04.09.08.12s.09.04.14.03c.22-.04.44-.08.66-.12.22-.04.44-.09.65-.15.06-.02.12-.01.17.02l.12.08s.07.06.08.11c.01.04,0,.09-.02.13-.1.2-.21.39-.33.58s-.23.38-.35.56c-.03.04-.06.06-.11.06-.02,0-.05,0-.09-.03-.02-.01-.04-.02-.06-.03-.02-.01-.04-.02-.06-.03l-.11-.06c-.08-.03-.09-.09-.04-.16.05-.07.1-.14.15-.21s.1-.14.15-.22c.04-.06.05-.1.03-.13-.02-.03-.07-.04-.14-.03-.09.02-.19.04-.29.06-.1.02-.2.04-.3.06-.06.01-.1.04-.13.08s-.03.09-.02.15c.02.08.04.15.05.22.02.07.03.14.05.21l.13.58c.02.09.04.17.06.24s.04.14.06.2l.03.11c.02.07,0,.11-.08.12-.06,0-.12.01-.19.03-.07.01-.12.02-.15.04-.08.02-.13,0-.14-.08Z"/><path class="cls-3" d="M60.83,57.37s-.03-.03-.05-.04c-.02-.01-.04-.03-.05-.05-.12-.09-.24-.19-.36-.28-.12-.09-.25-.17-.38-.25-.08-.05-.1-.11-.04-.19l.26-.33s.08-.07.14-.07c.03,0,.06,0,.09.03.13.08.26.16.38.24.12.09.24.17.36.26.02.02.04.04.06.05.02.01.04.03.06.04.03.03.05.06.05.1,0,.04-.01.08-.04.11l-.29.34s-.06.05-.1.05c-.03,0-.06-.01-.09-.04ZM60.26,59.81l-.18-.33c-.04-.07-.04-.13-.02-.18s.07-.09.15-.11c.29-.09.6-.21.92-.37s.65-.35.97-.56.62-.44.9-.68c.28-.24.51-.48.71-.72.04-.06.08-.06.11.02,0,.02.01.04.02.06s.01.04.02.06c.02.06.05.13.07.19.03.07.06.13.09.18.04.07.03.14-.02.19-.19.24-.43.47-.71.71-.28.23-.58.46-.89.66s-.64.4-.97.56c-.33.17-.64.3-.94.4-.04.02-.09.02-.13,0-.04-.02-.07-.05-.1-.09Z"/><path class="cls-3" d="M67.07,59.25s-.09-.09-.14-.13-.1-.09-.15-.12c-.1-.07-.1-.15,0-.23.29-.23.55-.5.78-.81.22-.32.4-.65.52-1,.04-.13.13-.17.25-.13l.31.11c.05.02.09.05.11.09.02.04.02.09,0,.14-.13.4-.32.78-.56,1.15-.24.37-.52.69-.85.96-.03.03-.08.04-.12.04-.06,0-.1-.02-.14-.06ZM70.9,59.02c-.12-.26-.26-.52-.4-.76-.15-.25-.31-.48-.49-.72-.07-.09-.14-.16-.2-.24-.05-.05-.07-.11-.07-.16,0-.06.04-.11.1-.15l.23-.16s.07-.04.11-.04c.05,0,.09.02.13.06.21.21.41.44.59.68.18.24.35.48.5.74.04.07.07.13.11.2.04.06.07.13.1.19.03.05.03.1.02.14-.01.04-.05.08-.1.1-.03.02-.06.03-.08.04-.03.01-.05.03-.08.05-.08.04-.14.07-.19.11-.04.02-.07.03-.11.03-.07,0-.12-.04-.15-.12ZM70.98,56.72c-.08,0-.15-.01-.22-.04s-.13-.07-.18-.12-.09-.11-.12-.18c-.03-.07-.04-.14-.04-.22s.01-.15.04-.22c.03-.07.07-.13.12-.18s.11-.09.18-.12c.07-.03.14-.04.22-.04.16,0,.29.05.4.16.11.11.16.24.16.4s-.05.29-.16.4c-.11.11-.24.16-.4.16ZM70.98,56.48c.09,0,.17-.03.22-.1.06-.06.09-.14.09-.22s-.03-.16-.09-.22-.13-.1-.22-.1-.16.03-.23.1c-.06.06-.09.14-.09.22s.03.16.09.22.14.1.23.1Z"/><path class="cls-3" d="M74.56,59.88c-.03-.05-.07-.1-.1-.15-.03-.05-.07-.1-.11-.14-.08-.09-.06-.16.04-.21.24-.11.48-.25.72-.41.24-.16.48-.34.7-.54s.44-.41.63-.63c.2-.22.37-.45.51-.68.05-.08.06-.14.03-.18s-.09-.07-.18-.06l-.3.02-.65.04c-.11,0-.21.01-.31.02-.1,0-.19.01-.28.02l-.22.02c-.06,0-.1,0-.14-.04-.04-.03-.06-.08-.07-.13l-.03-.32c0-.06,0-.11.04-.15.03-.04.08-.06.15-.06h.21c.09,0,.19-.01.3-.01.11,0,.22,0,.33-.01l.7-.03c.16,0,.32-.02.48-.03.16-.01.32-.03.48-.05.05,0,.09,0,.13.03l.27.17s.06.05.08.1.01.08,0,.12c-.09.22-.18.42-.29.62-.11.2-.24.39-.37.58-.03.04-.05.09-.04.14s.03.09.08.13c.22.18.44.37.66.57.21.2.42.41.61.62.04.04.06.08.05.13,0,.05-.03.09-.08.13-.03.02-.05.04-.07.06-.02.02-.05.04-.07.06l-.07.07s-.04.04-.07.06c-.04.04-.08.06-.12.06-.04,0-.09-.03-.13-.08-.02-.03-.05-.06-.07-.09-.03-.03-.05-.06-.08-.1-.15-.17-.3-.33-.46-.49l-.2-.2c-.05-.05-.11-.1-.16-.16-.05-.05-.11-.1-.17-.15-.04-.03-.08-.05-.12-.05-.05,0-.09.02-.13.06-.26.27-.55.52-.86.76-.31.24-.63.44-.97.62-.03.01-.06.02-.1.02-.07,0-.12-.03-.16-.09Z"/><path class="cls-3" d="M2.37,66.86c-.39,0-.71-.11-.96-.33-.25-.22-.38-.51-.38-.89v-2.36h.69v2.3c0,.18.05.33.16.44s.27.16.49.16.39-.05.49-.16c.1-.11.16-.25.16-.44v-2.3h.69v2.36c0,.37-.12.67-.38.89-.25.22-.57.33-.97.33Z"/><path class="cls-3" d="M7.69,63.29v.66h-.95v2.84h-.69v-2.84h-.94v-.66h2.58Z"/><path class="cls-3" d="M11.22,66.48c-.26.25-.57.38-.94.38s-.68-.13-.94-.38c-.25-.26-.38-.57-.38-.94s.13-.68.38-.94.57-.38.94-.38.68.13.94.38c.26.25.38.57.38.94s-.13.68-.38.94ZM9.8,66.04c.13.13.29.2.48.2s.36-.07.49-.2c.13-.13.2-.29.2-.5s-.06-.37-.2-.5-.29-.2-.49-.2-.35.07-.48.2c-.13.13-.19.3-.19.5s.06.37.19.5Z"/><path class="cls-3" d="M15.42,66.79h-.75l-.91-1.14v1.14h-.65v-3.5h.65v2.11l.86-1.11h.77l-1.01,1.24,1.04,1.27Z"/><path class="cls-3" d="M18.42,64.29h.69l-.91,2.51c-.13.36-.3.62-.52.78s-.48.23-.8.22v-.6c.17,0,.31-.03.41-.11.1-.08.18-.2.24-.37l-1.03-2.42h.71l.65,1.68.55-1.68Z"/><path class="cls-3" d="M22.59,66.48c-.26.25-.57.38-.94.38s-.68-.13-.94-.38c-.25-.26-.38-.57-.38-.94s.13-.68.38-.94.57-.38.94-.38.68.13.94.38c.26.25.38.57.38.94s-.13.68-.38.94ZM21.17,66.04c.13.13.29.2.48.2s.36-.07.49-.2c.13-.13.2-.29.2-.5s-.06-.37-.2-.5-.29-.2-.49-.2-.35.07-.48.2c-.13.13-.19.3-.19.5s.06.37.19.5Z"/><path class="cls-3" d="M27.29,67.3c-.37-.73-.55-1.49-.55-2.25s.18-1.52.55-2.25h.65c-.37.73-.55,1.48-.55,2.25s.18,1.52.55,2.25h-.65Z"/><path class="cls-3" d="M31.38,63.29h.69v3.5h-.69v-1.45h-1.3v1.45h-.69v-3.5h.69v1.39h1.3v-1.39Z"/><path class="cls-3" d="M35.86,66.48c-.26.25-.57.38-.94.38s-.68-.13-.94-.38c-.25-.26-.38-.57-.38-.94s.13-.68.38-.94.57-.38.94-.38.68.13.94.38c.26.25.38.57.38.94s-.13.68-.38.94ZM34.44,66.04c.13.13.29.2.48.2s.36-.07.49-.2c.13-.13.2-.29.2-.5s-.06-.37-.2-.5-.29-.2-.49-.2-.35.07-.48.2c-.13.13-.19.3-.19.5s.06.37.19.5Z"/><path class="cls-3" d="M39.14,64.22c.27,0,.5.09.68.28.18.18.27.44.27.76v1.54h-.65v-1.46c0-.17-.04-.29-.14-.38-.09-.09-.21-.13-.36-.13-.17,0-.3.05-.4.16-.1.1-.15.26-.15.46v1.35h-.65v-2.5h.65v.28c.16-.23.41-.35.75-.35Z"/><path class="cls-3" d="M43.6,64.29h.63v2.38c0,.39-.13.68-.38.89s-.56.31-.92.31c-.27,0-.51-.05-.71-.16s-.36-.25-.47-.46l.55-.32c.13.23.34.35.66.35.2,0,.36-.05.48-.16.12-.11.17-.26.17-.46v-.27c-.19.25-.46.38-.8.38s-.65-.12-.89-.37c-.24-.25-.36-.55-.36-.91s.12-.66.36-.91.54-.38.89-.38.61.13.8.38v-.31ZM42.4,66c.13.13.3.19.5.19s.37-.06.5-.19c.13-.13.2-.29.2-.49s-.07-.36-.2-.49c-.13-.13-.3-.19-.5-.19s-.37.06-.5.19c-.13.13-.2.29-.2.49s.07.36.2.49Z"/><path class="cls-3" d="M47.99,66.48c-.26.25-.57.38-.94.38s-.68-.13-.94-.38c-.25-.26-.38-.57-.38-.94s.13-.68.38-.94.57-.38.94-.38.68.13.94.38c.26.25.38.57.38.94s-.13.68-.38.94ZM46.57,66.04c.13.13.29.2.48.2s.36-.07.49-.2c.13-.13.2-.29.2-.5s-.06-.37-.2-.5-.29-.2-.49-.2-.35.07-.48.2c-.13.13-.19.3-.19.5s.06.37.19.5Z"/><path class="cls-3" d="M53.87,66.86c-.53,0-.96-.18-1.31-.53-.34-.35-.52-.78-.52-1.3s.17-.95.52-1.3.78-.52,1.31-.52c.32,0,.61.07.88.22s.48.35.63.6l-.6.35c-.09-.16-.21-.28-.37-.37-.16-.09-.34-.13-.54-.13-.34,0-.62.11-.82.32-.21.21-.31.49-.31.83s.1.61.31.83c.21.21.48.32.82.32.2,0,.38-.04.54-.13.16-.09.28-.21.37-.36l.6.35c-.15.25-.36.46-.62.6-.27.15-.56.22-.88.22Z"/><path class="cls-3" d="M58.76,64.29h.65v2.5h-.65v-.29c-.19.24-.47.37-.82.37s-.62-.13-.86-.38c-.24-.26-.36-.57-.36-.94s.12-.68.36-.94c.24-.26.52-.38.86-.38s.62.12.82.37v-.3ZM57.57,66.05c.13.13.3.2.5.2s.37-.07.5-.2.2-.3.2-.51-.07-.38-.2-.51-.3-.2-.5-.2-.37.07-.5.2-.2.3-.2.51.07.38.2.51Z"/><path class="cls-3" d="M63.8,64.22c.29,0,.52.09.69.28.17.19.26.44.26.75v1.54h-.65v-1.5c0-.15-.04-.27-.11-.35s-.18-.12-.31-.12c-.15,0-.26.05-.34.14-.08.1-.12.24-.12.42v1.41h-.65v-1.5c0-.15-.04-.27-.11-.35s-.18-.12-.31-.12c-.14,0-.26.05-.34.14-.08.1-.13.24-.13.42v1.41h-.65v-2.5h.65v.27c.15-.22.38-.33.7-.33s.53.12.68.36c.17-.24.42-.36.75-.36Z"/><path class="cls-3" d="M67.8,64.22c.34,0,.62.13.86.38.24.25.36.57.36.94s-.12.68-.36.94c-.24.25-.53.38-.86.38s-.62-.12-.81-.37v1.3h-.65v-3.5h.65v.3c.19-.24.46-.37.81-.37ZM67.19,66.05c.13.13.3.2.5.2s.37-.07.5-.2.2-.3.2-.51-.07-.38-.2-.51-.3-.2-.5-.2-.37.07-.5.2c-.13.13-.19.3-.19.51s.06.38.19.51Z"/><path class="cls-3" d="M72.18,64.29h.65v2.5h-.65v-.28c-.16.23-.41.35-.75.35-.27,0-.5-.09-.68-.28-.18-.18-.27-.44-.27-.76v-1.54h.65v1.46c0,.17.04.29.13.38s.21.13.36.13c.17,0,.3-.05.4-.16.1-.1.15-.26.15-.47v-1.35Z"/><path class="cls-3" d="M75.05,65c0,.07.04.12.13.16s.2.08.32.11c.13.03.25.07.38.12.13.05.23.13.32.24.09.11.13.25.13.43,0,.26-.1.45-.29.59-.19.14-.43.21-.72.21-.51,0-.86-.2-1.05-.6l.56-.32c.07.22.24.33.49.33.23,0,.35-.07.35-.21,0-.07-.04-.12-.13-.16-.09-.04-.2-.08-.32-.11-.13-.03-.25-.08-.38-.12-.13-.05-.23-.13-.32-.24-.09-.11-.13-.24-.13-.41,0-.25.09-.44.27-.58.18-.14.41-.21.68-.21.2,0,.39.05.55.14s.3.22.4.39l-.55.3c-.08-.17-.21-.25-.4-.25-.08,0-.15.02-.21.05-.06.04-.08.09-.08.15Z"/><path class="cls-3" d="M78.26,67.3h-.65c.37-.73.55-1.49.55-2.25s-.18-1.52-.55-2.25h.65c.37.73.55,1.48.55,2.25s-.18,1.52-.55,2.25Z"/><path class="cls-3" d="M.85,71.85l-.18-.06h-.05s-.04-.04-.03-.07c.03-.09.05-.18.06-.27.02-.09.03-.18.05-.27,0-.06.01-.12.02-.17,0-.05.01-.11.02-.17,0-.02,0-.05,0-.07s0-.04,0-.07c0-.09.05-.13.14-.12h.07s.07.03.1.06c.02.03.03.06.03.1-.01.18-.04.36-.07.54-.03.18-.07.35-.11.53,0,.03-.03.04-.06.03ZM1.25,73.6v-3.66s.01-.08.04-.11.06-.04.11-.04h.1s.08.01.11.04.04.06.04.11v.5c0,.06.02.08.05.08.02,0,.04,0,.06-.02h.02s.05-.04.07-.04c.04,0,.07.02.1.05l.07.09.14.2s.04.06.05.08c.01.02.02.05.01.07,0,.03-.02.05-.04.07l-.06.04s-.06.05-.05.07c0,.02.03.03.08.03h.79c.08,0,.12-.04.12-.12s-.04-.12-.12-.12h-.51s-.07-.01-.1-.04-.04-.06-.04-.1.01-.07.04-.1c.03-.03.06-.04.1-.04h.52s.06-.01.08-.03c.02-.02.03-.05.03-.08,0-.03-.01-.06-.03-.08-.02-.02-.05-.03-.08-.03h-.73s-.08-.01-.1-.04c-.03-.03-.04-.06-.04-.11s.01-.08.04-.1c.03-.03.06-.04.1-.04h.69s.08-.01.11-.04c.03-.03.04-.06.04-.11v-.04s.01-.08.04-.11c.03-.03.06-.04.11-.04h.1s.08.01.11.04.04.06.04.11v.04s.01.08.04.11c.03.03.06.04.11.04h.73s.08.01.1.04.04.06.04.1-.01.08-.04.11-.06.04-.1.04h-.76s-.06.01-.08.03-.03.05-.03.08c0,.04.01.06.03.08.02.02.05.03.08.03h.53s.07.01.1.04c.03.03.04.06.04.1s-.01.07-.04.1c-.03.03-.06.04-.1.04h-.52c-.08,0-.12.04-.12.12s.04.12.12.12h.93s.07.01.1.04c.03.03.04.06.04.1,0,.04-.01.08-.04.11-.03.03-.06.04-.1.04h-2.44s-.08-.01-.1-.04c-.03-.03-.04-.06-.04-.11v-.11s.01-.03.04-.03.03,0,.01-.03c-.03-.06-.07-.12-.1-.19-.04-.06-.08-.12-.12-.18-.02-.03-.04-.05-.06-.05-.02,0-.03.03-.03.08v2.8s-.01.08-.04.11c-.03.03-.06.04-.11.04h-.1s-.08-.01-.11-.04c-.03-.03-.04-.06-.04-.11ZM2.31,73.6v-1.79s.01-.08.04-.11c.03-.03.06-.04.11-.04h1.64s.08.01.11.04.04.06.04.11v1.54c0,.15-.04.26-.13.32s-.2.08-.34.08h-.23c-.06,0-.09-.03-.1-.09,0-.01,0-.03,0-.05,0-.02,0-.03,0-.04,0,0,0,0,0-.01,0,0,0,0,0-.01v-.05s-.01-.02-.02-.02c-.01-.06,0-.09.07-.09h.22c.06,0,.1,0,.12-.03.02-.02.03-.05.03-.11v-.12s-.01-.06-.03-.08-.05-.03-.08-.03h-.87s-.08.01-.11.04c-.03.03-.04.06-.04.11v.45s-.01.08-.04.11c-.03.03-.06.04-.11.04h-.1s-.08-.01-.11-.04-.04-.06-.04-.11ZM2.83,72.2h.89c.08,0,.12-.04.12-.13s-.04-.12-.12-.12h-.89c-.08,0-.13.04-.13.12s.04.13.13.13ZM2.84,72.73h.88s.07-.01.09-.04.04-.05.04-.1c0-.04-.01-.07-.04-.09s-.05-.04-.09-.04h-.88s-.07.01-.1.04-.04.05-.04.09c0,.04.01.07.04.1s.06.04.1.04Z"/><path class="cls-3" d="M6.28,71.12v-.04s.01-.08.04-.11c.03-.03.06-.04.11-.04h.55s.08-.01.11-.04c.03-.03.04-.06.04-.11v-.07s-.01-.08-.04-.11-.06-.04-.11-.04h-.38s-.08-.01-.11-.04c-.03-.03-.04-.06-.04-.11v-.03s.01-.08.04-.11c.03-.03.06-.04.11-.04h.38s.08-.01.11-.04.04-.06.04-.11v-.17s.01-.08.04-.11.06-.04.11-.04h.07s.08.01.11.04c.03.03.04.06.04.11v.17s.01.08.04.11c.03.03.06.04.11.04h.37s.08.01.11.04c.03.03.04.06.04.11v.03s-.01.08-.04.11c-.03.03-.06.04-.11.04h-.37s-.08.01-.11.04c-.03.03-.04.06-.04.11v.07s.01.08.04.11c.03.03.06.04.11.04h.54s.08.01.11.04c.03.03.04.06.04.11v.04s-.01.08-.04.11-.06.04-.11.04h-1.76s-.08-.01-.11-.04-.04-.06-.04-.11ZM7.13,73.59v-.52s-.01-.08-.04-.11-.06-.04-.11-.04h-.43s-.08-.01-.11-.04c-.03-.03-.04-.06-.04-.11v-.04s.01-.08.04-.11.06-.04.11-.04h.43s.08-.01.11-.04.04-.06.04-.11v-.09s-.01-.08-.04-.11-.06-.04-.11-.04h-.5s-.08-.01-.11-.04-.04-.06-.04-.11v-.04s.01-.08.04-.11c.03-.03.06-.04.11-.04h.2s.07-.01.08-.03c.02-.02.02-.05,0-.09,0-.02-.01-.04-.02-.06,0-.02-.02-.04-.03-.06,0-.02-.02-.04-.02-.05,0-.02-.01-.04-.02-.05-.04-.07-.02-.11.06-.13l.1-.03c.08-.02.14,0,.17.08,0,.02.02.05.03.07,0,.03.02.05.03.08.01.03.02.06.03.09,0,.03.02.05.03.08.02.07.07.11.14.11h.09s.06,0,.08-.02c.03-.02.04-.04.05-.07.02-.05.04-.11.06-.16.02-.06.04-.11.05-.17.02-.08.08-.12.17-.1l.09.02s.06.03.08.05c.02.03.02.06,0,.09l-.04.11s-.02.04-.03.06c0,.02-.02.04-.03.06-.01.04-.02.07,0,.09.01.02.04.03.08.03h.2s.08.01.11.04c.03.03.04.06.04.11v.04s-.01.08-.04.11c-.03.03-.06.04-.11.04h-.49s-.08.01-.11.04c-.03.03-.04.06-.04.11v.09s.01.08.04.11c.03.03.06.04.11.04h.42s.08.01.11.04c.03.03.04.06.04.11v.04s-.01.08-.04.11c-.03.03-.06.04-.11.04h-.42s-.08.01-.11.04c-.03.03-.04.06-.04.11v.52s-.01.08-.04.11-.06.04-.11.04h-.07s-.08-.01-.11-.04c-.03-.03-.04-.06-.04-.11ZM8.43,73.59v-3.54s.01-.08.04-.11c.03-.03.06-.04.11-.04h1.3s.08.01.11.04c.03.03.04.06.04.11v.68c0,.16-.04.27-.11.35s-.19.12-.35.12h-.24c-.07,0-.11-.03-.11-.1,0-.01,0-.03,0-.05v-.05s-.02-.03-.02-.04v-.04c-.03-.06,0-.08.05-.08h.25c.06,0,.1,0,.12-.03.03-.02.04-.06.04-.12v-.28s-.01-.08-.04-.11c-.03-.03-.06-.04-.11-.04h-.55s-.08.01-.11.04c-.03.03-.04.06-.04.11v.83s.01.08.04.11c.03.03.06.04.11.04h1s.08.01.11.04.04.07.03.11c-.01.22-.05.43-.1.63-.05.2-.13.39-.22.56-.01.03-.02.05-.02.09,0,.03.01.06.03.08.07.08.15.16.23.23.08.07.16.14.25.2.05.03.05.07,0,.12,0,.01-.02.02-.03.03,0,0-.02.02-.03.04-.03.03-.05.05-.07.08-.02.03-.05.04-.08.04-.02,0-.05-.02-.1-.05-.04-.03-.09-.07-.13-.11-.04-.04-.09-.08-.13-.12-.04-.04-.07-.07-.08-.08-.04-.04-.07-.06-.12-.06s-.08.02-.11.06c-.05.06-.1.12-.17.17-.06.06-.12.11-.19.16-.04.03-.07.03-.1,0l-.1-.1s-.06-.02-.06.02v.07s-.01.08-.04.11c-.03.03-.06.04-.1.04h-.08s-.08-.01-.11-.04-.04-.06-.04-.11ZM9.03,73.14s.08-.08.11-.12c.04-.04.07-.08.1-.12.04-.05.04-.11,0-.16-.15-.29-.26-.61-.33-.96,0-.03-.03-.05-.06-.05s-.05.02-.05.05v1.26c0,.12.03.17.1.17.04,0,.08-.02.13-.07ZM9.58,72.29c.05-.12.08-.26.11-.4,0-.05,0-.09-.03-.12-.03-.03-.07-.05-.12-.05h-.12c-.05,0-.09.02-.12.05s-.03.07-.02.13c0,.03.02.07.03.11,0,.04.02.07.04.1,0,.01,0,.04.02.07s.02.06.04.09c.01.03.03.05.04.08.02.02.03.03.05.03.03,0,.06-.03.08-.08Z"/><path class="cls-3" d="M13.21,73.66s0-.03-.01-.05c0-.02,0-.03-.01-.05s-.01-.03-.01-.05c0-.02,0-.03-.01-.05-.01-.06,0-.09.07-.09h.36c.06,0,.1,0,.13-.03s.04-.06.04-.12v-.45s-.01-.08-.04-.11-.06-.04-.11-.04h-1.45s-.08-.01-.11-.04c-.03-.03-.04-.06-.04-.11v-.05s.01-.08.04-.11.06-.04.11-.04h1.45s.08-.01.11-.04c.03-.03.04-.06.04-.11v-.07c0-.06.03-.09.09-.09h.05s.06,0,.08-.03l.21-.14s.04-.03.06-.04c.02-.01.04-.03.06-.04.04-.03.05-.05.05-.07,0-.02-.03-.03-.08-.03h-1.36s-.08-.01-.11-.04c-.03-.03-.04-.06-.04-.11v-.04s.01-.08.04-.11c.03-.03.06-.04.11-.04h2.02s.08.01.11.04l.04.04s.04.06.04.09-.01.06-.04.08c-.14.12-.29.24-.44.35s-.31.21-.46.31c-.02,0-.03.03-.03.05,0,.02.01.04.04.04h1.49s.08.01.11.04c.03.03.04.06.04.11v.05s-.01.08-.04.11-.06.04-.11.04h-1.38s-.08.01-.11.04c-.03.03-.04.06-.04.11v.56c0,.27-.16.41-.48.41h-.36c-.07,0-.11-.03-.11-.1ZM12.07,71.45v-.67s.01-.08.04-.11c.03-.03.06-.04.11-.04h.46s.06,0,.07-.03c.01-.02.01-.05,0-.08l-.03-.05s-.02-.04-.03-.06c-.02-.04-.05-.08-.07-.12-.02-.04-.04-.08-.07-.11-.01-.02-.02-.03-.03-.05-.01-.02-.02-.03-.03-.05-.04-.06-.03-.1.03-.14l.14-.07s.06-.02.1-.01.06.03.08.05c.01.01.03.03.04.05.01.02.02.04.04.06.05.07.1.15.15.24.01.02.02.04.03.06s.02.03.03.05c.01.03.02.06,0,.09s-.03.05-.07.07l-.05.02s-.07.04-.07.05c0,.01.03.02.08.02h1.34s.04,0,.07-.01c.02-.01.04-.03.05-.05.08-.1.14-.21.21-.32.06-.11.12-.22.18-.34.04-.08.1-.11.18-.09l.11.03s.08.04.1.08c.02.04.01.08,0,.12-.04.07-.08.13-.11.2-.04.07-.08.13-.11.2-.04.05-.04.1-.03.13.02.03.06.05.12.05h.51s.08.01.11.04c.03.03.04.06.04.11v.67s-.01.08-.04.11-.06.04-.11.04h-.09s-.08-.01-.11-.04c-.03-.03-.04-.06-.04-.11v-.34s-.01-.08-.04-.11-.06-.04-.11-.04h-2.66s-.08.01-.11.04-.04.06-.04.11v.34s-.01.08-.04.11c-.03.03-.06.04-.11.04h-.08s-.08-.01-.11-.04-.04-.06-.04-.11ZM13.74,70.49c-.02-.07-.05-.13-.08-.19-.03-.06-.06-.12-.09-.18-.01-.02-.03-.04-.03-.06,0-.02-.02-.04-.03-.05-.05-.07-.03-.12.04-.15l.14-.05s.06-.02.09,0c.03,0,.05.03.07.05.01.02.03.04.04.05,0,.02.02.04.04.06.04.06.07.12.1.18.03.06.06.13.08.19.01.03.01.06,0,.09-.01.03-.04.05-.07.07l-.14.06s-.07.02-.09,0c-.03-.01-.05-.04-.06-.07Z"/><path class="cls-3" d="M17.56,72.98l-.04-.11s-.01-.07,0-.1c.01-.03.04-.05.08-.06.02,0,.05-.01.07-.02.02,0,.05-.01.07-.02.04-.01.07-.02.11-.03.04-.01.08-.02.12-.03.03,0,.06-.03.08-.05.02-.03.03-.06.03-.09v-.75s-.01-.08-.04-.11c-.03-.03-.06-.04-.11-.04h-.16s-.08-.01-.11-.04-.04-.06-.04-.11v-.05s.01-.08.04-.11c.03-.03.06-.04.11-.04h.16s.08-.01.11-.04c.03-.03.04-.06.04-.11v-.54s-.01-.08-.04-.11c-.03-.03-.06-.04-.11-.04h-.2s-.08-.01-.11-.04c-.03-.03-.04-.06-.04-.11v-.05s.01-.08.04-.11c.03-.03.06-.04.11-.04h1.04s.08.01.11.04c.03.03.04.06.04.11v.05s-.01.08-.04.11c-.03.03-.06.04-.11.04h-.16s-.08.01-.11.04-.04.06-.04.11v.54s.01.08.04.11c.03.03.06.04.11.04h.09s.08.01.11.04c.03.03.04.06.04.11v.05s-.01.08-.04.11-.06.04-.11.04h-.09s-.08.01-.11.04-.04.06-.04.11v.6s.01.07.04.09.06.02.1,0l.13-.04s.04-.01.06-.02c.02,0,.04-.01.05-.02.03-.01.06-.01.08,0s.03.04.03.07v.14s0,.06-.03.08-.04.04-.07.05c-.09.03-.19.07-.28.1-.09.03-.18.06-.28.1-.07.02-.13.04-.19.06-.06.02-.12.04-.19.06l-.19.06s-.08,0-.11,0c-.03-.02-.06-.04-.07-.08ZM19.85,73.62v-.51c0-.12-.04-.18-.11-.18-.04,0-.09.02-.14.06-.14.11-.29.21-.46.3-.16.09-.33.17-.49.25-.03.01-.06,0-.07-.03l-.02-.05-.11-.17s-.02-.05.02-.06c.2-.08.39-.17.58-.27.19-.1.37-.22.54-.35.06-.05.09-.09.08-.12-.01-.03-.06-.05-.14-.05h-.2s-.08-.01-.11-.04c-.03-.03-.04-.06-.04-.11v-.6s.01-.08.04-.11.06-.04.11-.04h1.75s.08.01.11.04c.03.03.04.06.04.11v.6s-.01.08-.04.11-.06.04-.11.04h-.44c-.09,0-.14.02-.16.06-.02.04,0,.09.07.15.04.04.08.07.12.11.02.02.05.04.09.04s.07-.01.1-.04l.11-.1s.03-.03.05-.05c.02-.02.03-.03.05-.05.03-.03.06-.05.1-.05s.07.01.09.04l.09.08c.06.05.06.11,0,.16l-.2.17s-.05.06-.05.09c0,.03.02.05.05.08.08.05.16.1.24.14.08.04.16.08.24.11.04.01.04.04.01.07l-.16.21s-.05.04-.08.02c-.16-.08-.32-.17-.47-.27-.15-.1-.29-.21-.43-.33-.07-.06-.12-.1-.17-.1-.07,0-.1.07-.1.21v.45s-.01.08-.04.11-.06.04-.11.04h-.09s-.08-.01-.11-.04c-.03-.03-.04-.06-.04-.11ZM18.92,71.22h0s.01-.08.04-.11c.03-.03.06-.04.11-.04h2.26s.08.01.11.04c.03.03.04.06.04.11h0s-.01.08-.04.11-.06.04-.11.04h-2.26s-.08-.01-.11-.04c-.03-.03-.04-.06-.04-.11ZM19.05,70.73v-.67s.01-.08.04-.11c.03-.03.06-.04.11-.04h2.01s.08.01.11.04c.03.03.04.06.04.11v.67s-.01.08-.04.11c-.03.03-.06.04-.11.04h-2.01s-.08-.01-.11-.04c-.03-.03-.04-.06-.04-.11ZM19.52,70.61h.06s.08-.01.11-.04c.03-.03.04-.06.04-.11v-.12s-.01-.08-.04-.11c-.03-.03-.06-.04-.11-.04h-.06s-.08.01-.11.04c-.03.03-.04.06-.04.11v.12s.01.08.04.11.06.04.11.04ZM19.68,72.17h1.02s.08-.01.11-.04c.03-.03.04-.06.04-.11v-.05s-.01-.08-.04-.11c-.03-.03-.06-.04-.11-.04h-1.02s-.08.01-.11.04c-.03.03-.04.06-.04.11v.05s.01.08.04.11c.03.03.06.04.11.04ZM20.16,70.61h.08s.08-.01.11-.04c.03-.03.04-.06.04-.11v-.12s-.01-.08-.04-.11-.06-.04-.11-.04h-.08s-.08.01-.11.04-.04.06-.04.11v.12s.01.08.04.11c.03.03.06.04.11.04ZM20.81,70.61h.07s.08-.01.11-.04c.03-.03.04-.06.04-.11v-.12s-.01-.08-.04-.11c-.03-.03-.06-.04-.11-.04h-.07s-.08.01-.11.04c-.03.03-.04.06-.04.11v.12s.01.08.04.11c.03.03.06.04.11.04Z"/><path class="cls-3" d="M25.02,73.6v-.49s-.01-.08-.04-.11c-.03-.03-.06-.04-.11-.04h-.48s-.08-.01-.11-.04c-.03-.03-.04-.06-.04-.11v-.07s.01-.08.04-.11c.03-.03.06-.04.11-.04h.48s.08-.01.11-.04c.03-.03.04-.06.04-.11v-.68c0-.13-.02-.19-.07-.19-.04,0-.09.04-.15.12-.18.25-.39.49-.62.71s-.47.42-.72.6c-.01.01-.03.02-.05.01s-.03-.01-.05-.03l-.04-.05-.11-.1h0s-.04-.04-.04-.04c-.04-.03-.03-.05,0-.07.26-.15.51-.34.73-.56s.43-.45.62-.68c.04-.04.07-.09.1-.13.03-.04.06-.09.09-.13.04-.06.05-.12.03-.16-.02-.04-.07-.06-.15-.06h-1.13s-.08-.01-.11-.04c-.03-.03-.04-.06-.04-.11v-.07s.01-.08.04-.11c.03-.03.06-.04.11-.04h1.42s.08-.01.11-.04c.03-.03.04-.06.04-.11v-.54s.01-.08.04-.11c.03-.03.06-.04.11-.04h.1s.08.01.11.04.04.06.04.11v.54s.01.08.04.11c.03.03.06.04.11.04h1.41s.08.01.11.04c.03.03.04.06.04.11v.07s-.01.08-.04.11-.06.04-.11.04h-1.13c-.08,0-.13.02-.15.06-.02.04-.01.09.03.16.09.13.19.27.31.41.12.14.25.27.38.4.13.13.27.25.42.36s.29.21.43.3c.04.02.04.04,0,.07l-.05.04s0,0,0,0l-.1.11h0s0,0,0,0h0s-.04.05-.04.05c-.03.03-.07.04-.1.01-.26-.18-.51-.38-.72-.6-.22-.22-.42-.46-.62-.71-.06-.08-.11-.12-.14-.12-.05,0-.07.06-.07.19v.7s.01.08.04.11c.03.03.06.04.11.04h.5s.08.01.11.04.04.06.04.11v.07s-.01.08-.04.11-.06.04-.11.04h-.5s-.08.01-.11.04-.04.06-.04.11v.49s-.01.08-.04.11c-.03.03-.06.04-.11.04h-.1s-.08-.01-.11-.04c-.03-.03-.04-.06-.04-.11Z"/><path class="cls-3" d="M31.04,73.53v-2.19c0-.08-.04-.12-.12-.12s-.12-.04-.12-.12v-.38c0-.05-.02-.06-.06-.02l-.06.06s-.02.02-.02.03c0,.01-.01.02-.02.02-.03.04-.06.04-.1.02-.08-.06-.16-.13-.24-.2-.08-.07-.15-.14-.22-.22l-.11-.11s-.06-.05-.09-.05c-.04,0-.07.02-.09.06-.11.15-.23.29-.36.42-.13.13-.27.25-.42.37-.03.02-.05.01-.07-.02,0,0-.01-.01-.02-.02,0,0-.01-.02-.02-.02l-.09-.1s0,0,0,0h0s0,0,0,0l-.04-.03s-.02-.05,0-.07c.08-.05.16-.11.24-.19.08-.07.17-.15.25-.24.08-.08.16-.17.23-.26.07-.09.13-.17.17-.25.02-.03.05-.05.08-.07.03-.01.07-.01.1,0l.17.05s.07.03.08.06c.02.02.06.07.12.13s.12.13.19.19.14.12.2.17c.07.05.11.07.14.07.03,0,.05-.03.05-.08,0-.04.01-.07.04-.1.02-.02.06-.04.1-.04h.52s.08-.01.11-.04c.03-.03.04-.06.04-.11v-.18s.01-.08.04-.11.06-.04.11-.04h.09s.08.01.11.04c.03.03.04.06.04.11v.18s.01.08.04.11.06.04.11.04h.5s.08.01.11.04.04.06.04.11v.64s-.01.08-.04.11c-.03.03-.06.04-.1.04s-.08.01-.1.04-.04.06-.04.1v.63s-.01.08-.04.11-.06.04-.11.04h-.78s-.08.01-.11.04-.04.06-.04.11v.08s.01.08.04.11c.03.03.06.04.11.04h.93s.08.01.11.04c.03.03.04.06.04.11v.86s-.01.08-.04.11-.06.04-.11.04h-1.31s-.08-.01-.11-.04c-.03-.03-.04-.06-.04-.11ZM28.91,73.58l-.05-.16s0-.04,0-.06c.01-.02.03-.03.05-.03l.18-.04s.06-.02.07-.04c.02-.02.03-.05.03-.08v-2s.01-.08.04-.11c.03-.03.06-.04.11-.04h.24s.08-.01.11-.04c.03-.03.04-.06.04-.11v-.15s.01-.08.04-.11.06-.04.11-.04h.05s.08.01.11.04c.03.03.04.06.04.11v.15s.01.08.04.11c.03.03.06.04.11.04h.23s.08.01.11.04.04.06.04.11v1.21s-.01.08-.04.11c-.03.03-.06.04-.11.04h-.75s-.08.01-.11.04c-.03.03-.04.06-.04.11v.34s.01.09.04.11c.03.02.07.03.12.01l.16-.04s.05-.01.07-.02c.02,0,.05-.01.07-.02.04-.01.07-.03.08-.07.01-.03,0-.07-.02-.1,0,0,0-.01,0-.01-.03-.04-.04-.08-.04-.12,0-.04.03-.07.08-.09l.06-.03s.05-.02.07-.02c.04,0,.07.02.1.05.03.04.06.07.09.12.03.04.07.09.1.15.04.06.07.11.11.17s.07.12.1.18.06.11.08.17c.01.04,0,.06-.03.07l-.18.07s0,0,0,0h-.01s-.04.03-.04.03c-.03.02-.06,0-.07-.02l-.04-.11-.05-.09c-.03-.06-.08-.08-.14-.06-.04.01-.08.02-.12.03-.04.01-.08.03-.12.04-.07.02-.13.04-.2.06-.07.02-.13.04-.2.06-.09.03-.18.05-.27.08-.09.03-.18.04-.27.06-.04,0-.07,0-.1-.01-.03-.02-.05-.04-.06-.08ZM29.7,71.63h.39s.08-.01.11-.04.04-.06.04-.11h0s-.01-.08-.04-.11c-.03-.03-.06-.04-.11-.04h-.39s-.08.01-.11.04-.04.06-.04.11h0s.01.08.04.11c.03.03.06.04.11.04ZM29.7,72.21h.39s.08-.01.11-.04.04-.06.04-.11v-.02s-.01-.08-.04-.11-.06-.04-.11-.04h-.39s-.08.01-.11.04c-.03.03-.04.06-.04.11v.02s.01.08.04.11c.03.03.06.04.11.04ZM31.3,71h.96s.08-.01.11-.04.04-.06.04-.11v-.09s-.01-.08-.04-.11-.06-.04-.11-.04h-.96s-.08.01-.11.04c-.03.03-.04.06-.04.11v.09s.01.08.04.11c.03.03.06.04.11.04ZM31.56,71.8h.42s.08-.01.11-.04c.03-.03.04-.06.04-.11v-.18s-.01-.08-.04-.11c-.03-.03-.06-.04-.11-.04h-.42s-.08.01-.11.04-.04.06-.04.11v.18s.01.08.04.11.06.04.11.04ZM31.56,73.33h.56s.08-.01.11-.04c.03-.03.04-.06.04-.11v-.19s-.01-.08-.04-.11c-.03-.03-.06-.04-.11-.04h-.56s-.08.01-.11.04-.04.06-.04.11v.19s.01.08.04.11c.03.03.06.04.11.04Z"/><path class="cls-3" d="M46.88,73.22v-.09s.01-.08.04-.11c.03-.03.06-.04.11-.04h1.43s.08-.01.11-.04c.03-.03.04-.06.04-.11v-2s-.01-.08-.04-.11c-.03-.03-.06-.04-.11-.04h-1.18s-.08-.01-.11-.04c-.03-.03-.04-.06-.04-.11v-.09s.01-.08.04-.11.06-.04.11-.04h3.08s.08.01.11.04c.03.03.04.06.04.11v.09s-.01.08-.04.11-.06.04-.11.04h-1.17s-.08.01-.11.04c-.03.03-.04.06-.04.11v2s.01.08.04.11c.03.03.06.04.11.04h1.43s.08.01.11.04c.03.03.04.06.04.11v.09s-.01.08-.04.11c-.03.03-.06.04-.11.04h-3.58s-.08-.01-.11-.04c-.03-.03-.04-.06-.04-.11Z"/><path class="cls-3" d="M53.79,73.66s0-.03-.01-.05c0-.02,0-.03-.01-.05s-.01-.03-.01-.05c0-.02,0-.03-.01-.05-.01-.06,0-.09.07-.09h.36c.06,0,.1,0,.13-.03s.04-.06.04-.12v-.45s-.01-.08-.04-.11-.06-.04-.11-.04h-1.45s-.08-.01-.11-.04c-.03-.03-.04-.06-.04-.11v-.05s.01-.08.04-.11.06-.04.11-.04h1.45s.08-.01.11-.04c.03-.03.04-.06.04-.11v-.07c0-.06.03-.09.09-.09h.05s.06,0,.08-.03l.21-.14s.04-.03.06-.04c.02-.01.04-.03.06-.04.04-.03.05-.05.05-.07,0-.02-.03-.03-.08-.03h-1.36s-.08-.01-.11-.04c-.03-.03-.04-.06-.04-.11v-.04s.01-.08.04-.11c.03-.03.06-.04.11-.04h2.02s.08.01.11.04l.04.04s.04.06.04.09-.01.06-.04.08c-.14.12-.29.24-.44.35s-.31.21-.46.31c-.02,0-.03.03-.03.05,0,.02.01.04.04.04h1.49s.08.01.11.04c.03.03.04.06.04.11v.05s-.01.08-.04.11-.06.04-.11.04h-1.38s-.08.01-.11.04c-.03.03-.04.06-.04.11v.56c0,.27-.16.41-.48.41h-.36c-.07,0-.11-.03-.11-.1ZM52.64,71.45v-.67s.01-.08.04-.11c.03-.03.06-.04.11-.04h.46s.06,0,.07-.03c.01-.02.01-.05,0-.08l-.03-.05s-.02-.04-.03-.06c-.02-.04-.05-.08-.07-.12-.02-.04-.04-.08-.07-.11-.01-.02-.02-.03-.03-.05-.01-.02-.02-.03-.03-.05-.04-.06-.03-.1.03-.14l.14-.07s.06-.02.1-.01.06.03.08.05c.01.01.03.03.04.05.01.02.02.04.04.06.05.07.1.15.15.24.01.02.02.04.03.06s.02.03.03.05c.01.03.02.06,0,.09s-.03.05-.07.07l-.05.02s-.07.04-.07.05c0,.01.03.02.08.02h1.34s.04,0,.07-.01c.02-.01.04-.03.05-.05.08-.1.14-.21.21-.32.06-.11.12-.22.18-.34.04-.08.1-.11.18-.09l.11.03s.08.04.1.08c.02.04.01.08,0,.12-.04.07-.08.13-.11.2-.04.07-.08.13-.11.2-.04.05-.04.1-.03.13.02.03.06.05.12.05h.51s.08.01.11.04c.03.03.04.06.04.11v.67s-.01.08-.04.11-.06.04-.11.04h-.09s-.08-.01-.11-.04c-.03-.03-.04-.06-.04-.11v-.34s-.01-.08-.04-.11-.06-.04-.11-.04h-2.66s-.08.01-.11.04-.04.06-.04.11v.34s-.01.08-.04.11c-.03.03-.06.04-.11.04h-.08s-.08-.01-.11-.04-.04-.06-.04-.11ZM54.31,70.49c-.02-.07-.05-.13-.08-.19-.03-.06-.06-.12-.09-.18-.01-.02-.03-.04-.03-.06,0-.02-.02-.04-.03-.05-.05-.07-.03-.12.04-.15l.14-.05s.06-.02.09,0c.03,0,.05.03.07.05.01.02.03.04.04.05,0,.02.02.04.04.06.04.06.07.12.1.18.03.06.06.13.08.19.01.03.01.06,0,.09-.01.03-.04.05-.07.07l-.14.06s-.07.02-.09,0c-.03-.01-.05-.04-.06-.07Z"/><path class="cls-3" d="M58.16,71.7v-.04s.01-.08.04-.11c.03-.03.06-.04.11-.04h.37s.06-.01.08-.03c.02-.02.02-.05,0-.08,0-.02-.01-.04-.02-.05,0-.02-.02-.04-.03-.06-.03-.06-.05-.13-.08-.19-.03-.06-.06-.12-.1-.18-.04-.07-.02-.12.05-.15l.12-.05s.06-.02.1,0c.03.01.06.03.08.07,0,.01.02.03.03.05,0,.02.02.04.03.06.02.05.05.09.07.13.02.04.04.09.06.14,0,.02.01.04.02.06s.02.04.02.05c.01.03.01.06,0,.09-.01.03-.04.05-.07.07l-.06.02c-.05.02-.08.04-.07.05,0,.01.03.02.09.02h.34s.05,0,.08-.02c.03-.02.04-.04.05-.06.01-.03.03-.06.04-.1.01-.03.03-.07.04-.11.02-.05.04-.11.07-.16s.04-.1.06-.16c0-.02.01-.04.02-.06,0-.02.02-.04.02-.06.01-.04.04-.07.07-.08s.06-.02.1,0l.09.03s.08.04.1.07c.02.04.02.07,0,.12l-.07.16v.03s-.02.02-.02.03c-.01.03-.03.06-.04.1-.01.03-.03.06-.04.1-.03.06-.03.1,0,.14.02.03.06.05.13.05h.27s.08.01.11.04c.03.03.04.06.04.11v.04s-.01.08-.04.11-.06.04-.11.04h-1.98s-.08-.01-.11-.04c-.03-.03-.04-.06-.04-.11ZM58.27,70.48v-.04s.01-.08.04-.11c.03-.03.06-.04.11-.04h.54s.08-.01.11-.04c.03-.03.04-.06.04-.11v-.22s.01-.08.04-.11c.03-.03.06-.04.11-.04h.11s.08.01.11.04c.03.03.04.06.04.11v.22s.01.08.04.11c.03.03.06.04.11.04h.53s.08.01.11.04c.03.03.04.06.04.11v.04s-.01.08-.04.11c-.03.03-.06.04-.11.04h-1.78s-.08-.01-.11-.04c-.03-.03-.04-.06-.04-.11ZM58.51,73.45v-1.15s.01-.08.04-.11c.03-.03.06-.04.11-.04h1.3s.08.01.11.04.04.06.04.11v1.15s-.01.08-.04.11c-.03.03-.06.04-.11.04h-1.3s-.08-.01-.11-.04-.04-.06-.04-.11ZM59.05,73.26h.52s.08-.01.11-.04c.03-.03.04-.06.04-.11v-.48s-.01-.08-.04-.11c-.03-.03-.06-.04-.11-.04h-.52s-.08.01-.11.04c-.03.03-.04.06-.04.11v.48s.01.08.04.11c.03.03.06.04.11.04ZM60.58,73.6v-3.47s.01-.08.04-.11.06-.04.11-.04h1.19s.07.01.1.04l.05.04s.06.09.04.16l-.17.38c-.02.06-.05.11-.07.16s-.05.11-.07.16l-.17.36s-.02.05-.01.07c0,.03.02.05.04.07.07.08.14.16.2.23.06.08.12.16.16.24.04.08.08.17.11.27.03.09.04.2.04.31,0,.23-.06.42-.17.56-.12.14-.3.21-.54.21h-.1c-.07,0-.11-.03-.12-.1,0-.02,0-.03-.01-.05,0-.02,0-.03-.01-.05,0-.02,0-.03-.01-.05,0-.02,0-.03-.01-.05-.01-.06,0-.1.07-.1h.13c.13,0,.23-.03.29-.09.06-.06.09-.16.09-.29,0-.21-.05-.4-.15-.56s-.22-.32-.36-.46c-.04-.03-.05-.07-.03-.12l.37-.85.03-.07s0-.07-.05-.07h-.45s-.08.01-.11.04-.04.06-.04.11v3.13s-.01.08-.04.11c-.03.03-.06.04-.11.04h-.08s-.08-.01-.11-.04c-.03-.03-.04-.06-.04-.11Z"/><path class="cls-3" d="M64.89,73.37v-.06c0-.13.02-.25.07-.36.04-.12.1-.23.17-.33s.15-.2.23-.3c.09-.09.17-.18.26-.26.05-.05.11-.11.17-.17.06-.06.13-.13.19-.21s.11-.15.15-.23c.04-.08.06-.16.07-.23,0-.17-.03-.3-.12-.38-.08-.08-.2-.13-.36-.13-.13,0-.23.04-.3.12-.07.08-.11.18-.13.3,0,.04-.02.08-.05.11-.03.03-.06.04-.11.04h-.07s-.08-.01-.11-.04c-.03-.03-.04-.06-.03-.11.01-.11.04-.21.08-.31.04-.09.09-.18.16-.24.07-.07.15-.12.24-.16.09-.04.2-.06.32-.06.16,0,.3.03.43.09.13.06.23.17.32.31.07.13.1.29.1.48,0,.14-.04.27-.11.39-.07.12-.15.23-.24.33-.05.05-.1.11-.16.17-.06.06-.12.12-.18.18-.07.07-.14.14-.2.21-.06.07-.12.13-.18.2-.06.07-.11.14-.15.21-.02.05-.02.08,0,.12s.06.05.12.05h.91s.08.01.11.04c.03.03.04.06.04.11v.05s-.01.08-.04.11c-.03.03-.06.04-.11.04h-1.42s-.06-.02-.06-.06Z"/><path class="cls-3" d="M71.12,73.68s0-.03-.01-.05c0-.02,0-.03,0-.05,0-.02-.01-.03-.01-.05s0-.03,0-.04c-.01-.06,0-.09.06-.09h.38c.06,0,.11,0,.15,0,.04,0,.08-.02.11-.04.03-.02.06-.04.08-.08s.05-.08.07-.14c.02-.07.04-.15.06-.22.02-.07.03-.15.05-.22,0-.05,0-.09-.03-.12s-.06-.05-.11-.05h-1.54c-.05,0-.09-.01-.11-.05-.02-.03-.02-.07,0-.12.01-.04.03-.08.04-.11s.03-.07.04-.11l.03-.09s0-.02.01-.03c0,0,0-.02,0-.02.02-.06.01-.1-.01-.14s-.07-.05-.13-.05h-.78s-.08-.01-.11-.04c-.03-.03-.04-.06-.04-.11v-.05s.01-.08.04-.11c.03-.03.06-.04.11-.04h3.68s.08.01.11.04.04.06.04.11v.05s-.01.08-.04.11c-.03.03-.06.04-.11.04h-2.16s-.06,0-.08.03c-.02.02-.04.04-.05.07l-.06.19s0,.05,0,.06.03.02.06.02h1.53s.09.01.12.04c.03.03.04.07.03.12-.02.15-.04.31-.07.46-.03.15-.06.3-.1.45-.03.11-.07.2-.12.27-.05.07-.11.12-.17.16-.07.04-.14.06-.23.07-.09,0-.18.02-.29.02h-.31c-.07,0-.11-.03-.11-.1ZM70.05,71v-.96s.01-.08.04-.11.06-.04.11-.04h2.19s.08.01.11.04c.03.03.04.06.04.11v.96s-.01.08-.04.11c-.03.03-.06.04-.11.04h-2.19s-.08-.01-.11-.04c-.03-.03-.04-.06-.04-.11ZM70.6,70.81h1.38s.08-.01.11-.04.04-.06.04-.11v-.27s-.01-.08-.04-.11c-.03-.03-.06-.04-.11-.04h-1.38s-.08.01-.11.04c-.03.03-.04.06-.04.11v.27s.01.08.04.11c.03.03.06.04.11.04Z"/><path class="cls-3" d="M77.14,73.53v-2.19c0-.08-.04-.12-.12-.12s-.12-.04-.12-.12v-.38c0-.05-.02-.06-.06-.02l-.06.06s-.02.02-.02.03c0,.01-.01.02-.02.02-.03.04-.06.04-.1.02-.08-.06-.16-.13-.24-.2-.08-.07-.15-.14-.22-.22l-.11-.11s-.06-.05-.09-.05c-.04,0-.07.02-.09.06-.11.15-.23.29-.36.42-.13.13-.27.25-.42.37-.03.02-.05.01-.07-.02,0,0-.01-.01-.02-.02,0,0-.01-.02-.02-.02l-.09-.1s0,0,0,0h0s0,0,0,0l-.04-.03s-.02-.05,0-.07c.08-.05.16-.11.24-.19.08-.07.17-.15.25-.24.08-.08.16-.17.23-.26.07-.09.13-.17.17-.25.02-.03.05-.05.08-.07.03-.01.07-.01.1,0l.17.05s.07.03.08.06c.02.02.06.07.12.13s.12.13.19.19.14.12.2.17c.07.05.11.07.14.07.03,0,.05-.03.05-.08,0-.04.01-.07.04-.1.02-.02.06-.04.1-.04h.52s.08-.01.11-.04c.03-.03.04-.06.04-.11v-.18s.01-.08.04-.11.06-.04.11-.04h.09s.08.01.11.04c.03.03.04.06.04.11v.18s.01.08.04.11.06.04.11.04h.5s.08.01.11.04.04.06.04.11v.64s-.01.08-.04.11c-.03.03-.06.04-.1.04s-.08.01-.1.04-.04.06-.04.1v.63s-.01.08-.04.11-.06.04-.11.04h-.78s-.08.01-.11.04-.04.06-.04.11v.08s.01.08.04.11c.03.03.06.04.11.04h.93s.08.01.11.04c.03.03.04.06.04.11v.86s-.01.08-.04.11-.06.04-.11.04h-1.31s-.08-.01-.11-.04c-.03-.03-.04-.06-.04-.11ZM75.01,73.58l-.05-.16s0-.04,0-.06c.01-.02.03-.03.05-.03l.18-.04s.06-.02.07-.04c.02-.02.03-.05.03-.08v-2s.01-.08.04-.11c.03-.03.06-.04.11-.04h.24s.08-.01.11-.04c.03-.03.04-.06.04-.11v-.15s.01-.08.04-.11.06-.04.11-.04h.05s.08.01.11.04c.03.03.04.06.04.11v.15s.01.08.04.11c.03.03.06.04.11.04h.23s.08.01.11.04.04.06.04.11v1.21s-.01.08-.04.11c-.03.03-.06.04-.11.04h-.75s-.08.01-.11.04c-.03.03-.04.06-.04.11v.34s.01.09.04.11c.03.02.07.03.12.01l.16-.04s.05-.01.07-.02c.02,0,.05-.01.07-.02.04-.01.07-.03.08-.07.01-.03,0-.07-.02-.1,0,0,0-.01,0-.01-.03-.04-.04-.08-.04-.12,0-.04.03-.07.08-.09l.06-.03s.05-.02.07-.02c.04,0,.07.02.1.05.03.04.06.07.09.12.03.04.07.09.1.15.04.06.07.11.11.17s.07.12.1.18.06.11.08.17c.01.04,0,.06-.03.07l-.18.07s0,0,0,0h-.01s-.04.03-.04.03c-.03.02-.06,0-.07-.02l-.04-.11-.05-.09c-.03-.06-.08-.08-.14-.06-.04.01-.08.02-.12.03-.04.01-.08.03-.12.04-.07.02-.13.04-.2.06-.07.02-.13.04-.2.06-.09.03-.18.05-.27.08-.09.03-.18.04-.27.06-.04,0-.07,0-.1-.01-.03-.02-.05-.04-.06-.08ZM75.81,71.63h.39s.08-.01.11-.04.04-.06.04-.11h0s-.01-.08-.04-.11c-.03-.03-.06-.04-.11-.04h-.39s-.08.01-.11.04-.04.06-.04.11h0s.01.08.04.11c.03.03.06.04.11.04ZM75.81,72.21h.39s.08-.01.11-.04.04-.06.04-.11v-.02s-.01-.08-.04-.11-.06-.04-.11-.04h-.39s-.08.01-.11.04c-.03.03-.04.06-.04.11v.02s.01.08.04.11c.03.03.06.04.11.04ZM77.41,71h.96s.08-.01.11-.04.04-.06.04-.11v-.09s-.01-.08-.04-.11-.06-.04-.11-.04h-.96s-.08.01-.11.04c-.03.03-.04.06-.04.11v.09s.01.08.04.11c.03.03.06.04.11.04ZM77.67,71.8h.42s.08-.01.11-.04c.03-.03.04-.06.04-.11v-.18s-.01-.08-.04-.11c-.03-.03-.06-.04-.11-.04h-.42s-.08.01-.11.04-.04.06-.04.11v.18s.01.08.04.11.06.04.11.04ZM77.67,73.33h.56s.08-.01.11-.04c.03-.03.04-.06.04-.11v-.19s-.01-.08-.04-.11c-.03-.03-.06-.04-.11-.04h-.56s-.08.01-.11.04-.04.06-.04.11v.19s.01.08.04.11c.03.03.06.04.11.04Z"/><path class="cls-3" d="M41.81,73.83h-4.15v-4.15h4.15v4.15ZM41.36,73.38v-3.24h-3.24v3.24h3.24Z"/><path class="cls-3" d="M2.31,24.49h1.42v8.27h-1.63v-6.54l-1.56.44-.4-1.39,2.17-.77Z"/><path class="cls-3" d="M6.88,24.49h1.42v8.27h-1.63v-6.54l-1.56.44-.4-1.39,2.17-.77Z"/><path class="cls-3" d="M10.5,32.89c-.09-.09-.18-.18-.27-.27-.09-.09-.19-.17-.3-.25-.03-.03-.06-.06-.09-.08-.03-.02-.06-.04-.09-.06-.12-.08-.13-.16-.02-.25.32-.25.58-.52.77-.82.19-.29.34-.61.45-.94.11-.33.18-.68.21-1.04.03-.36.05-.73.05-1.11v-3.33c0-.1.03-.17.09-.23s.13-.09.23-.09h5.17c.1,0,.17.03.23.09.06.06.09.14.09.23v7.03c0,.24-.03.43-.1.58-.07.15-.18.27-.31.36s-.29.15-.47.19c-.18.04-.38.05-.59.05h-.63c-.15,0-.24-.08-.26-.24,0-.04-.01-.08-.01-.12,0-.04-.01-.08-.02-.12-.03-.2-.07-.39-.12-.57-.01-.04-.02-.09-.03-.12s-.02-.07-.03-.11c-.04-.15,0-.22.16-.22h.54c.14,0,.24-.02.31-.06.06-.04.09-.13.09-.27v-1c0-.1-.03-.17-.09-.23s-.13-.09-.23-.09h-2.4c-.18,0-.29.09-.32.27-.11.58-.3,1.11-.56,1.57s-.63.89-1.08,1.27c-.04.04-.09.06-.14.06-.07,0-.13-.03-.19-.09ZM12.77,28.51h2.44c.1,0,.17-.03.23-.09s.09-.13.09-.23v-.11c0-.1-.03-.17-.09-.23-.06-.06-.13-.09-.23-.09h-2.4c-.1,0-.14.05-.14.14v.48c-.01.08.02.12.11.12ZM12.98,26.47h2.23c.1,0,.17-.03.23-.09s.09-.13.09-.23v-.08c0-.1-.03-.17-.09-.23s-.13-.09-.23-.09h-2.23c-.1,0-.17.03-.23.09-.06.06-.09.13-.09.23v.08c0,.1.03.17.09.23.06.06.13.09.23.09Z"/><path class="cls-3" d="M21.08,24.49h1.42v8.27h-1.63v-6.54l-1.56.44-.4-1.39,2.17-.77Z"/><path class="cls-3" d="M27.52,27.85c.56.17,1.01.46,1.36.87s.53.91.53,1.49c0,.85-.29,1.52-.86,2-.57.48-1.27.72-2.1.72-.65,0-1.22-.15-1.73-.44-.51-.3-.88-.73-1.1-1.31l1.39-.8c.21.64.69.96,1.44.96.42,0,.74-.1.97-.3.23-.2.35-.47.35-.82s-.12-.61-.35-.82c-.23-.2-.56-.31-.97-.31h-.35l-.63-.95,1.63-2.13h-3.24v-1.52h5.2v1.35l-1.55,2.01Z"/><path class="cls-3" d="M33.13,32.96c-.71-1.41-1.06-2.86-1.06-4.34s.35-2.92,1.06-4.34h1.24c-.71,1.41-1.06,2.86-1.06,4.34s.35,2.92,1.06,4.34h-1.24Z"/><path class="cls-3" d="M37.91,32.67v-2.84c0-.35-.06-.52-.19-.52-.1,0-.24.11-.41.33-.31.41-.64.79-.98,1.15-.34.36-.71.71-1.1,1.04-.06.05-.13.08-.21.08-.1,0-.19-.04-.25-.12-.04-.05-.09-.1-.13-.15-.04-.05-.09-.1-.14-.15-.05-.04-.1-.09-.14-.13s-.09-.08-.14-.12c-.19-.15-.19-.3,0-.44.53-.39,1.03-.83,1.5-1.31.47-.48.9-.99,1.28-1.54.09-.14.11-.25.06-.33-.05-.09-.16-.13-.32-.13h-2c-.1,0-.17-.03-.23-.09-.06-.06-.09-.13-.09-.23v-.66c0-.1.03-.17.09-.23.06-.06.14-.09.23-.09h2.87c.1,0,.17-.03.23-.09s.09-.13.09-.23v-1.3c0-.1.03-.17.09-.23.06-.06.14-.09.23-.09h.75c.1,0,.17.03.23.09s.09.13.09.23v1.3c0,.1.03.17.09.23.06.06.14.09.23.09h2.91c.1,0,.17.03.23.09.06.06.09.14.09.23v.66c0,.1-.03.17-.09.23s-.13.09-.23.09h-2.01c-.17,0-.27.04-.32.13-.05.09-.02.2.07.34.4.55.84,1.07,1.32,1.55s1,.93,1.54,1.33c.13.09.13.19,0,.29-.12.1-.25.22-.38.34-.13.13-.24.25-.33.38-.06.07-.12.11-.19.11-.06,0-.16-.06-.31-.19-.15-.12-.3-.27-.47-.43-.16-.16-.32-.32-.46-.47-.14-.15-.24-.26-.29-.31-.14-.15-.28-.3-.41-.46s-.26-.32-.39-.49c-.17-.22-.31-.33-.41-.33-.13,0-.19.17-.19.52v2.87c0,.1-.03.17-.09.23-.06.06-.13.09-.23.09h-.75c-.1,0-.17-.03-.23-.09-.06-.06-.09-.13-.09-.23Z"/><path class="cls-3" d="M44.1,32.96h-1.24c.71-1.41,1.06-2.86,1.06-4.34s-.35-2.92-1.06-4.34h1.24c.71,1.41,1.06,2.86,1.06,4.34s-.35,2.92-1.06,4.34Z"/><path class="cls-3" d="M47.5,29.69v-1.2h3.61v1.2h-3.61Z"/><path class="cls-3" d="M55.38,24.49h1.42v8.27h-1.63v-6.54l-1.56.44-.4-1.39,2.17-.77Z"/><path class="cls-3" d="M57.8,24.49h5.34v1.38l-2.8,6.89h-1.72l2.71-6.71h-3.53v-1.56Z"/><path class="cls-3" d="M67.37,32.96c-.71-1.41-1.06-2.86-1.06-4.34s.35-2.92,1.06-4.34h1.24c-.71,1.41-1.06,2.86-1.06,4.34s.35,2.92,1.06,4.34h-1.24Z"/><path class="cls-3" d="M69.39,32.89c-.09-.09-.18-.18-.27-.27-.09-.09-.19-.17-.3-.25-.03-.03-.06-.06-.09-.08-.03-.02-.06-.04-.09-.06-.12-.08-.13-.16-.02-.25.32-.25.58-.52.77-.82.19-.29.34-.61.45-.94.11-.33.18-.68.21-1.04.03-.36.05-.73.05-1.11v-3.33c0-.1.03-.17.09-.23s.13-.09.23-.09h5.17c.1,0,.17.03.23.09.06.06.09.14.09.23v7.03c0,.24-.03.43-.1.58-.07.15-.18.27-.31.36s-.29.15-.47.19c-.18.04-.38.05-.59.05h-.63c-.15,0-.24-.08-.26-.24,0-.04-.01-.08-.01-.12,0-.04-.01-.08-.02-.12-.03-.2-.07-.39-.12-.57-.01-.04-.02-.09-.03-.12s-.02-.07-.03-.11c-.04-.15,0-.22.16-.22h.54c.14,0,.24-.02.31-.06.06-.04.09-.13.09-.27v-1c0-.1-.03-.17-.09-.23s-.13-.09-.23-.09h-2.4c-.18,0-.29.09-.32.27-.11.58-.3,1.11-.56,1.57s-.63.89-1.08,1.27c-.04.04-.09.06-.14.06-.07,0-.13-.03-.19-.09ZM71.66,28.51h2.44c.1,0,.17-.03.23-.09s.09-.13.09-.23v-.11c0-.1-.03-.17-.09-.23-.06-.06-.13-.09-.23-.09h-2.4c-.1,0-.14.05-.14.14v.48c-.01.08.02.12.11.12ZM71.87,26.47h2.23c.1,0,.17-.03.23-.09s.09-.13.09-.23v-.08c0-.1-.03-.17-.09-.23s-.13-.09-.23-.09h-2.23c-.1,0-.17.03-.23.09-.06.06-.09.13-.09.23v.08c0,.1.03.17.09.23.06.06.13.09.23.09Z"/><path class="cls-3" d="M78.34,32.96h-1.24c.71-1.41,1.06-2.86,1.06-4.34s-.35-2.92-1.06-4.34h1.24c.71,1.41,1.06,2.86,1.06,4.34s-.35,2.92-1.06,4.34Z"/><path class="cls-3" d="M2.69,36.77h1.75v10.24h-2.02v-8.1l-1.93.54-.5-1.73,2.69-.95Z"/><path class="cls-3" d="M8.35,36.77h1.75v10.24h-2.02v-8.1l-1.93.54-.5-1.73,2.69-.95Z"/><path class="cls-3" d="M14,41.6c-.24.24-.54.37-.88.37s-.63-.12-.88-.37-.37-.54-.37-.88.12-.63.37-.88c.24-.24.54-.37.88-.37s.63.12.88.37c.24.24.37.54.37.88s-.12.63-.37.88ZM14,46.84c-.24.24-.54.37-.88.37s-.63-.12-.88-.37-.37-.54-.37-.88.12-.63.37-.88c.24-.24.54-.37.88-.37s.63.12.88.37c.24.24.37.54.37.88s-.12.63-.37.88Z"/><path class="cls-3" d="M19.69,47.22c-1.28,0-2.28-.49-3.01-1.46-.73-.97-1.09-2.26-1.09-3.87s.36-2.9,1.09-3.87c.73-.97,1.73-1.46,3.01-1.46s2.29.49,3.01,1.46c.72.97,1.08,2.26,1.08,3.87s-.36,2.9-1.08,3.87c-.72.97-1.73,1.46-3.01,1.46ZM18.14,44.39c.35.57.87.86,1.55.86s1.2-.29,1.56-.86c.36-.58.53-1.4.53-2.49s-.18-1.93-.53-2.5c-.36-.58-.88-.86-1.56-.86s-1.2.29-1.55.86c-.35.58-.53,1.41-.53,2.5s.18,1.92.53,2.49Z"/><path class="cls-3" d="M28.9,47.22c-1.28,0-2.28-.49-3.01-1.46-.73-.97-1.09-2.26-1.09-3.87s.36-2.9,1.09-3.87c.73-.97,1.73-1.46,3.01-1.46s2.29.49,3.01,1.46c.72.97,1.08,2.26,1.08,3.87s-.36,2.9-1.08,3.87c-.72.97-1.73,1.46-3.01,1.46ZM27.35,44.39c.35.57.87.86,1.55.86s1.2-.29,1.56-.86c.36-.58.53-1.4.53-2.49s-.18-1.93-.53-2.5c-.36-.58-.88-.86-1.56-.86s-1.2.29-1.55.86c-.35.58-.53,1.41-.53,2.5s.18,1.92.53,2.49Z"/><path class="cls-3" d="M35.19,43.5v-1.81h5.48v1.81h-5.48Z"/><path class="cls-3" d="M45.21,36.77h1.75v10.24h-2.02v-8.1l-1.93.54-.5-1.73,2.69-.95Z"/><path class="cls-3" d="M55.77,40.12c0,.79-.2,1.48-.6,2.08l-3.19,4.81h-2.31l2.28-3.33c-1.06-.02-1.93-.36-2.59-1.02s-1-1.5-1-2.54.34-1.9,1.03-2.56,1.58-1,2.67-1,2,.33,2.68.99,1.03,1.51,1.03,2.57ZM50.36,40.12c0,.51.16.91.49,1.21.33.3.73.45,1.21.45s.91-.15,1.23-.45c.32-.3.48-.71.48-1.21s-.16-.91-.48-1.21c-.32-.3-.73-.45-1.23-.45s-.88.15-1.21.45c-.33.3-.49.7-.49,1.2Z"/><path class="cls-3" d="M58.94,41.6c-.24.24-.54.37-.88.37s-.63-.12-.88-.37-.37-.54-.37-.88.12-.63.37-.88c.24-.24.54-.37.88-.37s.63.12.88.37c.24.24.37.54.37.88s-.12.63-.37.88ZM58.94,46.84c-.24.24-.54.37-.88.37s-.63-.12-.88-.37-.37-.54-.37-.88.12-.63.37-.88c.24-.24.54-.37.88-.37s.63.12.88.37c.24.24.37.54.37.88s-.12.63-.37.88Z"/><path class="cls-3" d="M64.63,47.22c-1.28,0-2.28-.49-3.01-1.46-.73-.97-1.09-2.26-1.09-3.87s.36-2.9,1.09-3.87c.73-.97,1.73-1.46,3.01-1.46s2.29.49,3.01,1.46c.72.97,1.08,2.26,1.08,3.87s-.36,2.9-1.08,3.87c-.72.97-1.73,1.46-3.01,1.46ZM63.08,44.39c.35.57.87.86,1.55.86s1.2-.29,1.56-.86c.36-.58.53-1.4.53-2.49s-.18-1.93-.53-2.5c-.36-.58-.88-.86-1.56-.86s-1.2.29-1.55.86c-.35.58-.53,1.41-.53,2.5s.18,1.92.53,2.49Z"/><path class="cls-3" d="M73.85,47.22c-1.28,0-2.28-.49-3.01-1.46-.73-.97-1.09-2.26-1.09-3.87s.36-2.9,1.09-3.87c.73-.97,1.73-1.46,3.01-1.46s2.29.49,3.01,1.46c.72.97,1.08,2.26,1.08,3.87s-.36,2.9-1.08,3.87c-.72.97-1.73,1.46-3.01,1.46ZM72.3,44.39c.35.57.87.86,1.55.86s1.2-.29,1.56-.86c.36-.58.53-1.4.53-2.49s-.18-1.93-.53-2.5c-.36-.58-.88-.86-1.56-.86s-1.2.29-1.55.86c-.35.58-.53,1.41-.53,2.5s.18,1.92.53,2.49Z"/><path class="cls-3" d="M7.33,12.87c-1.07,0-1.96-.36-2.66-1.07-.7-.71-1.05-1.6-1.05-2.64s.35-1.94,1.05-2.65c.7-.71,1.59-1.07,2.66-1.07.65,0,1.24.15,1.79.45.55.3.97.71,1.28,1.23l-1.21.7c-.18-.32-.43-.57-.76-.75-.33-.18-.69-.27-1.1-.27-.69,0-1.25.22-1.68.65-.43.44-.64,1-.64,1.69s.21,1.25.64,1.68c.42.44.98.65,1.68.65.41,0,.78-.09,1.11-.27.33-.18.58-.43.75-.74l1.21.7c-.31.52-.73.93-1.28,1.23-.54.3-1.14.45-1.8.45Z"/><path class="cls-3" d="M17.21,11.8c-.72.72-1.6,1.08-2.63,1.08s-1.91-.36-2.63-1.08c-.72-.72-1.08-1.6-1.08-2.64s.36-1.92,1.08-2.64c.72-.72,1.59-1.08,2.63-1.08s1.91.36,2.63,1.08,1.08,1.6,1.08,2.64-.36,1.92-1.08,2.64ZM12.93,10.84c.44.44.99.66,1.64.66s1.2-.22,1.64-.66c.44-.44.66-1,.66-1.68s-.22-1.24-.66-1.68c-.44-.44-.99-.66-1.64-.66s-1.2.22-1.64.66c-.44.44-.66,1-.66,1.68s.22,1.24.66,1.68Z"/><path class="cls-3" d="M26.27,5.59v7.14h-1.4v-4.63l-2.01,3.31h-.16s-2.01-3.3-2.01-3.3v4.62h-1.41v-7.14h1.45l2.05,3.37,2.04-3.37h1.46Z"/><path class="cls-3" d="M27.59,5.59h1.41v7.14h-1.41v-7.14Z"/><path class="cls-3" d="M34.46,5.59h1.41v7.14h-1.07l-3.06-4.37v4.37h-1.41v-7.14h1.07l3.06,4.35v-4.35Z"/><path class="cls-3" d="M44.21,8.89v.55c0,1.02-.33,1.85-.98,2.48-.65.63-1.5.95-2.53.95-1.1,0-2.02-.36-2.74-1.08s-1.09-1.59-1.09-2.63.36-1.92,1.08-2.64c.72-.72,1.61-1.08,2.67-1.08.67,0,1.28.15,1.83.45.55.3.98.71,1.29,1.21l-1.21.69c-.17-.29-.43-.53-.77-.71-.34-.18-.72-.28-1.15-.28-.68,0-1.24.22-1.68.67-.44.45-.66,1.01-.66,1.69s.22,1.23.67,1.67c.45.44,1.04.66,1.77.66.54,0,.99-.12,1.35-.36.36-.24.6-.57.73-1h-2.16v-1.25h3.58Z"/><path class="cls-3" d="M50.2,12.87c-.71,0-1.3-.16-1.79-.47-.48-.32-.82-.75-1.02-1.29l1.21-.7c.28.73.83,1.09,1.64,1.09.39,0,.68-.07.87-.21s.28-.32.28-.54c0-.25-.11-.45-.34-.59-.22-.14-.63-.29-1.21-.45-.32-.09-.59-.19-.81-.29-.22-.1-.44-.22-.66-.38-.22-.16-.39-.36-.5-.61-.12-.25-.17-.53-.17-.86,0-.65.23-1.16.69-1.55.46-.38,1.01-.58,1.66-.58.58,0,1.09.14,1.53.42.44.28.78.68,1.03,1.18l-1.18.68c-.29-.61-.74-.92-1.37-.92-.29,0-.52.07-.69.2-.17.13-.25.3-.25.51,0,.22.09.41.28.55.19.14.54.29,1.08.45.22.07.38.12.49.16.11.04.27.1.46.17.2.08.34.15.45.22.11.07.23.16.36.28.13.12.24.23.31.36.07.12.13.27.18.44.05.17.08.36.08.57,0,.66-.24,1.18-.72,1.57s-1.1.58-1.87.58Z"/><path class="cls-3" d="M59.67,11.8c-.72.72-1.6,1.08-2.63,1.08s-1.91-.36-2.63-1.08c-.72-.72-1.08-1.6-1.08-2.64s.36-1.92,1.08-2.64c.72-.72,1.59-1.08,2.63-1.08s1.91.36,2.63,1.08,1.08,1.6,1.08,2.64-.36,1.92-1.08,2.64ZM55.4,10.84c.44.44.99.66,1.64.66s1.2-.22,1.64-.66c.44-.44.66-1,.66-1.68s-.22-1.24-.66-1.68c-.44-.44-.99-.66-1.64-.66s-1.2.22-1.64.66c-.44.44-.66,1-.66,1.68s.22,1.24.66,1.68Z"/><path class="cls-3" d="M67.75,11.8c-.72.72-1.6,1.08-2.63,1.08s-1.91-.36-2.63-1.08c-.72-.72-1.08-1.6-1.08-2.64s.36-1.92,1.08-2.64c.72-.72,1.59-1.08,2.63-1.08s1.91.36,2.63,1.08c.72.72,1.08,1.6,1.08,2.64s-.36,1.92-1.08,2.64ZM63.48,10.84c.44.44.99.66,1.64.66s1.2-.22,1.64-.66c.44-.44.66-1,.66-1.68s-.22-1.24-.66-1.68c-.44-.44-.99-.66-1.64-.66s-1.2.22-1.64.66c-.44.44-.66,1-.66,1.68s.22,1.24.66,1.68Z"/><path class="cls-3" d="M73.96,5.59h1.41v7.14h-1.07l-3.06-4.37v4.37h-1.41v-7.14h1.07l3.06,4.35v-4.35Z"/><rect class="cls-1" x=".78" y=".5" width="78.62" height="16.77"/><rect class="cls-2" x=".54" y="81.68" width="10.12" height="10.12"/><circle class="cls-2" cx="5.6" cy="86.74" r="2.14"/><path class="cls-3" d="M14.18,84.85c-.11,0-.2-.04-.27-.11-.07-.07-.11-.16-.11-.26s.04-.19.11-.27.16-.11.27-.11.19.04.26.11c.07.08.11.16.11.27s-.04.19-.11.26c-.07.07-.16.11-.26.11ZM13.9,88.65v-3.22h.56v3.22h-.56Z"/><path class="cls-3" d="M15.6,84.85c-.11,0-.2-.04-.27-.11-.07-.07-.11-.16-.11-.26s.04-.19.11-.27.16-.11.27-.11.19.04.26.11c.07.08.11.16.11.27s-.04.19-.11.26c-.07.07-.16.11-.26.11ZM15.32,88.65v-3.22h.56v3.22h-.56Z"/><path class="cls-3" d="M17.01,84.85c-.11,0-.2-.04-.27-.11-.07-.07-.11-.16-.11-.26s.04-.19.11-.27.16-.11.27-.11.19.04.26.11c.07.08.11.16.11.27s-.04.19-.11.26c-.07.07-.16.11-.26.11ZM16.73,88.65v-3.22h.56v3.22h-.56Z"/><path class="cls-3" d="M20.41,88.08h2.09v.57h-2.69v-4.5h2.66v.57h-2.06v1.38h1.9v.56h-1.9v1.43Z"/><path class="cls-3" d="M25.96,88.65h-.66l-.9-1.21-.9,1.21h-.66l1.23-1.66-1.16-1.56h.66l.83,1.12.83-1.12h.66l-1.16,1.56,1.23,1.66Z"/><path class="cls-3" d="M28.08,85.35c.38,0,.68.12.91.36s.34.56.34.97v1.97h-.56v-1.94c0-.26-.07-.46-.21-.61s-.34-.22-.59-.22c-.28,0-.5.09-.68.26-.17.17-.26.44-.26.8v1.71h-.56v-4.5h.56v1.75c.23-.37.57-.55,1.04-.55Z"/><path class="cls-3" d="M30.39,84.85c-.11,0-.2-.04-.27-.11-.07-.07-.11-.16-.11-.26s.04-.19.11-.27.16-.11.27-.11.19.04.26.11c.07.08.11.16.11.27s-.04.19-.11.26c-.07.07-.16.11-.26.11ZM30.11,88.65v-3.22h.56v3.22h-.56Z"/><path class="cls-3" d="M33.3,85.35c.45,0,.83.16,1.15.49.32.33.48.73.48,1.2s-.16.87-.48,1.2-.7.49-1.15.49c-.53,0-.94-.21-1.22-.64v.55h-.56v-4.5h.56v1.84c.28-.42.68-.64,1.22-.64ZM33.23,88.19c.32,0,.59-.11.81-.33s.33-.49.33-.82-.11-.6-.33-.82-.49-.33-.81-.33-.6.11-.82.33-.33.49-.33.82.11.6.33.82.49.33.82.33Z"/><path class="cls-3" d="M35.88,84.85c-.11,0-.2-.04-.27-.11-.07-.07-.11-.16-.11-.26s.04-.19.11-.27.16-.11.27-.11.19.04.26.11c.07.08.11.16.11.27s-.04.19-.11.26c-.07.07-.16.11-.26.11ZM35.59,88.65v-3.22h.56v3.22h-.56Z"/><path class="cls-3" d="M38.76,85.97h-.86v1.74c0,.16.03.27.09.34s.16.1.29.1.29,0,.48,0v.5c-.49.06-.85.02-1.08-.12-.23-.14-.34-.42-.34-.81v-1.74h-.64v-.54h.64v-.73l.56-.17v.9h.86v.54Z"/><path class="cls-3" d="M39.7,84.85c-.11,0-.2-.04-.27-.11-.07-.07-.11-.16-.11-.26s.04-.19.11-.27.16-.11.27-.11.19.04.26.11c.07.08.11.16.11.27s-.04.19-.11.26c-.07.07-.16.11-.26.11ZM39.42,88.65v-3.22h.56v3.22h-.56Z"/><path class="cls-3" d="M43.55,88.24c-.33.33-.73.49-1.2.49s-.87-.16-1.2-.49-.49-.73-.49-1.2.16-.88.49-1.2c.33-.33.73-.49,1.2-.49s.87.16,1.2.49c.33.33.5.73.5,1.2s-.17.88-.5,1.2ZM42.35,88.18c.32,0,.59-.11.81-.33s.33-.49.33-.82-.11-.6-.33-.82-.49-.33-.81-.33-.59.11-.8.33-.33.49-.33.82.11.6.33.82.49.33.8.33Z"/><path class="cls-3" d="M46.31,85.35c.38,0,.68.12.91.36s.34.56.34.97v1.97h-.56v-1.94c0-.26-.07-.46-.21-.61s-.34-.22-.59-.22c-.28,0-.5.09-.68.26-.17.17-.26.44-.26.8v1.71h-.56v-3.22h.56v.46c.23-.37.57-.55,1.04-.55Z"/><path class="cls-3" d="M50,84.14h.6v4.5h-.6v-4.5Z"/><path class="cls-3" d="M53.11,85.35c.38,0,.68.12.91.36s.34.56.34.97v1.97h-.56v-1.94c0-.26-.07-.46-.21-.61s-.34-.22-.59-.22c-.28,0-.5.09-.68.26-.17.17-.26.44-.26.8v1.71h-.56v-3.22h.56v.46c.23-.37.57-.55,1.04-.55Z"/><path class="cls-3" d="M55.62,86.29c0,.12.06.22.19.29.13.07.28.14.45.19.17.05.35.1.53.15.18.05.33.15.45.29.12.14.18.33.18.55,0,.29-.11.53-.34.7-.23.18-.51.26-.87.26-.31,0-.58-.07-.8-.21-.22-.14-.38-.32-.48-.55l.48-.28c.05.15.15.28.29.37s.31.13.51.13c.18,0,.34-.04.46-.11s.18-.18.18-.33c0-.12-.06-.22-.19-.3-.12-.07-.27-.14-.45-.19-.17-.05-.35-.11-.53-.16-.18-.05-.33-.15-.45-.29-.12-.14-.19-.31-.19-.53,0-.28.11-.51.33-.69.22-.18.49-.27.81-.27.26,0,.49.06.7.18.2.12.36.28.46.49l-.47.26c-.12-.27-.35-.41-.69-.41-.16,0-.29.04-.41.11s-.17.18-.17.31Z"/><path class="cls-3" d="M59.71,85.97h-.86v1.74c0,.16.03.27.09.34s.16.1.29.1.29,0,.48,0v.5c-.49.06-.85.02-1.08-.12-.23-.14-.34-.42-.34-.81v-1.74h-.64v-.54h.64v-.73l.56-.17v.9h.86v.54Z"/><path class="cls-3" d="M62.87,85.43h.56v3.22h-.56v-.55c-.28.42-.68.64-1.22.64-.45,0-.83-.16-1.15-.49s-.48-.73-.48-1.2.16-.87.48-1.2c.32-.33.7-.49,1.15-.49.53,0,.94.21,1.22.64v-.55ZM61.72,88.19c.33,0,.6-.11.82-.33s.33-.49.33-.82-.11-.6-.33-.82-.49-.33-.82-.33-.59.11-.81.33-.33.49-.33.82.11.6.33.82.49.33.81.33Z"/><path class="cls-3" d="M66.95,85.43h.55v3.08c0,.48-.16.85-.48,1.11s-.71.4-1.16.4c-.36,0-.67-.07-.93-.2-.26-.14-.46-.33-.59-.58l.49-.28c.18.36.53.54,1.05.54.33,0,.6-.09.79-.26.19-.18.29-.42.29-.72v-.46c-.28.43-.69.64-1.21.64-.46,0-.85-.16-1.16-.49s-.48-.72-.48-1.19.16-.86.48-1.19.71-.49,1.16-.49c.53,0,.93.21,1.21.64v-.55ZM64.99,87.84c.22.22.49.33.82.33s.6-.11.82-.33.33-.49.33-.82-.11-.59-.33-.81-.49-.33-.82-.33-.6.11-.82.33-.33.49-.33.81.11.6.33.82Z"/><path class="cls-3" d="M68.91,85.97c.18-.4.52-.6,1-.6v.58c-.28-.01-.51.06-.71.22-.2.16-.3.41-.3.77v1.71h-.56v-3.22h.56v.54Z"/><path class="cls-3" d="M72.95,85.43h.56v3.22h-.56v-.55c-.28.42-.68.64-1.22.64-.45,0-.83-.16-1.15-.49s-.48-.73-.48-1.2.16-.87.48-1.2c.32-.33.7-.49,1.15-.49.53,0,.94.21,1.22.64v-.55ZM71.8,88.19c.33,0,.6-.11.82-.33s.33-.49.33-.82-.11-.6-.33-.82-.49-.33-.82-.33-.59.11-.81.33-.33.49-.33.82.11.6.33.82.49.33.81.33Z"/><path class="cls-3" d="M77.83,85.35c.36,0,.65.12.88.35.22.23.33.55.33.95v2h-.56v-1.98c0-.25-.06-.44-.19-.58-.13-.14-.3-.21-.51-.21-.24,0-.43.08-.58.24-.14.16-.21.41-.21.74v1.79h-.56v-1.98c0-.25-.06-.44-.18-.58-.12-.14-.29-.21-.5-.21-.24,0-.43.08-.59.25-.16.16-.23.41-.23.73v1.79h-.56v-3.22h.56v.43c.22-.34.54-.51.96-.51s.75.18.95.55c.22-.37.56-.55,1.01-.55Z"/></g></svg>
