<?xml version="1.0" encoding="UTF-8"?><svg id="Layer_2" xmlns="http://www.w3.org/2000/svg" viewBox="0 0 77.59 16.99"><defs><style>.cls-1{fill:#fff;}.cls-2{fill:none;stroke:#fff;stroke-miterlimit:10;stroke-width:.7px;}</style></defs><g id="Layer_1-2"><path class="cls-1" d="M2.54,12.38c.15.04.24.06.24.12,0,.03-.03.06-.06.07-.07.04-.09.07-.12.21,0,.03-.03.15-.03.17,0,.04.03.08.08.08.02,0,.07-.01.08-.02.21-.04.46-.11.66-.19.03-.01.06-.03.1-.03.13,0,.18.43.18.45,0,.11-.13.13-.28.16-.22.05-.57.12-.79.15-.13.02-.15.16-.15.22,0,.05.05.07.09.07.01,0,.03,0,.04,0,.11-.01.25-.03.37-.03.87,0,1.65.44,1.65,1.4,0,1.27-1.59,1.76-1.77,1.76-.12,0-.26-.34-.26-.45,0-.06.06-.07.12-.08.59-.16,1.31-.49,1.31-1.2,0-.62-.49-.8-.56-.8-.08,0-.12.07-.15.14-.21.4-.44.73-.75,1.07-.03.03-.06.06-.06.11,0,.02.03.18.03.21v.03c0,.11-.3.3-.43.3-.05,0-.08-.03-.1-.08-.01-.03-.02-.06-.06-.06-.02,0-.04.01-.06.02-.24.16-.54.3-.83.3-.39,0-.63-.3-.63-.67,0-.75.71-1.43,1.35-1.74.03-.02.16-.04.16-.31,0-.06-.04-.1-.1-.1-.02,0-.1.01-.12.01-.21.02-.42.04-.62.04-.25,0-.28,0-.28-.26,0-.28.03-.3.13-.3.1,0,.19,0,.29,0,.19,0,.38,0,.57-.02.06,0,.11,0,.15-.05s.05-.1.06-.15c.03-.2.05-.39.08-.59,0-.05.03-.09.09-.09.04,0,.31.09.37.11ZM.97,15.76c0,.11.05.17.16.17.2,0,.52-.2.67-.31.06-.04.07-.11.07-.17,0-.05-.02-.29-.02-.46,0-.06,0-.11,0-.16s-.01-.1-.07-.1c-.12,0-.82.58-.82,1.04ZM2.45,14.4c-.06.04-.06.15-.06.28v.07c0,.09,0,.22.06.22.1,0,.3-.4.35-.49.01-.02.03-.06.03-.09,0-.04-.04-.05-.07-.05-.08,0-.25.03-.31.07Z"/><path class="cls-1" d="M12.7,12.99s-.06.07-.12.12c-.31.22-.55.48-.81.75-.02.02-.06.06-.06.1,0,.04.04.07.1.07.02,0,.05,0,.07-.01.07-.02.16-.02.23-.02.22,0,.49.07.69.17.44.22.67.6.67,1.09,0,.99-.88,1.51-1.79,1.51-.47,0-1.13-.19-1.13-.76,0-.39.34-.68.72-.68.29,0,.59.16.75.4.08.13.1.21.1.36,0,.04.02.07.07.07.15,0,.68-.3.68-.86s-.46-.77-.95-.77-.9.2-1.26.55c-.22.21-.42.44-.62.67-.02.02-.03.04-.06.04-.12,0-.4-.31-.4-.4,0-.07.08-.13.13-.17.58-.5,1.23-1.2,1.75-1.76.04-.04.15-.15.15-.2,0-.05-.05-.07-.1-.07-.03,0-.1.02-.13.02-.13.03-.93.2-1.02.2-.12,0-.14-.42-.14-.52,0-.13,0-.14.17-.14h.13c.36,0,1.09-.08,1.42-.21.06-.02.15-.06.21-.06.22,0,.55.43.55.52ZM11.28,15.77c-.12,0-.24.09-.24.22,0,.2.27.3.44.3.11,0,.15-.1.15-.19,0-.17-.15-.33-.35-.33Z"/><path class="cls-1" d="M19.41,15.02c.07,0,.09.05.1.11.12.6.6.68,1.12.68s1.15-.06,1.67-.2c.02,0,.06-.02.08-.02.08,0,.12.09.12.46,0,.11-.03.17-.13.21-.3.09-1.35.16-1.68.16-.58,0-1.21-.07-1.58-.58-.08-.12-.22-.39-.22-.54,0-.14.51-.27.51-.27ZM19.51,13.06c.02-.1.03-.2.13-.2.04,0,.12.02.16.03.31.08.63.12.95.12.34,0,.68-.04,1.02-.11.02,0,.05-.01.07-.01.14,0,.15.25.15.48,0,.13-.03.15-.16.17-.31.04-.7.07-1.02.07s-1.01-.03-1.28-.14c-.05-.02-.08-.06-.08-.12,0-.07.03-.21.04-.29Z"/><path class="cls-1" d="M29.1,12.4c.08-.01.18-.03.27-.03.16,0,.15.08.16.21.03.34.1.67.17,1,.02.07.03.17.13.17.1,0,1-.53,1.15-.62.04-.02.1-.06.15-.06.07,0,.17.17.2.22.04.07.16.26.16.34,0,.06-.06.07-.11.09-.4.13-1.01.44-1.39.65-.3.16-.77.44-1.01.66-.15.14-.27.29-.27.5s.2.34.37.4c.24.08.5.1.75.1.47,0,1.01-.06,1.47-.15.02,0,.03,0,.05,0,.08,0,.08.23.08.35v.07c0,.15,0,.21-.12.24-.21.06-1.27.09-1.54.09-.42,0-.78-.02-1.15-.24-.31-.18-.52-.49-.52-.86,0-.61.5-1.01.97-1.31.06-.04.1-.08.1-.15,0-.04,0-.07-.02-.1-.07-.2-.22-.8-.28-1.03-.03-.13-.06-.25-.11-.37,0-.02-.02-.04-.02-.07,0-.08.19-.08.37-.11Z"/><path class="cls-1" d="M48.3,12.31s.09.03.09.07-.04.06-.09.1c-.04.04-.08.24-.1.3-.02.04-.06.22-.06.25,0,.04.02.07.06.07s.27-.07.32-.08c.02,0,.04-.01.06-.01.07,0,.07.1.08.17.01.08.03.22.03.3,0,.12-.07.13-.58.23-.2.03-.2.07-.26.26-.25.69-.57,1.36-.92,2-.03.06-.05.08-.11.08-.12,0-.5-.16-.5-.28,0-.05.07-.16.1-.2.23-.38.5-.89.67-1.3.03-.06.13-.3.13-.34,0-.03-.03-.07-.08-.07-.04,0-.48.06-.61.06-.1,0-.12-.05-.14-.18-.01-.07-.04-.27-.04-.33,0-.07.04-.09.1-.09h.26c.19,0,.39,0,.58-.03.07-.01.12-.02.17-.09.08-.14.18-.76.18-.94,0-.04,0-.09.05-.09.06,0,.53.13.62.16ZM49.11,13.98c.06.02.11.05.11.12,0,.01-.01.18-.01.3,0,.16.03.97.06,1.09.02.08.09.11.17.14.02,0,.04.02.06.02.13.05.79.36.79.49,0,.09-.21.41-.35.41-.06,0-.11-.05-.15-.08-.08-.06-.36-.26-.45-.26-.06,0-.08.08-.09.13-.07.41-.4.55-.78.55-.45,0-.99-.24-.99-.76s.49-.7.93-.7h.15c.07,0,.12-.03.12-.1,0-.18-.08-.99-.1-1.21,0-.03,0-.05,0-.08,0-.09.05-.12.13-.12.11,0,.3.03.4.06ZM48.06,16.12c0,.17.22.26.37.26.2,0,.29-.11.29-.3,0-.11,0-.17-.29-.17-.13,0-.38.03-.38.21ZM50.51,13.98c0,.13-.32.39-.42.39-.06,0-.1-.06-.12-.1-.17-.26-.45-.53-.7-.72-.02-.02-.07-.05-.07-.09,0-.08.26-.39.38-.39.14,0,.94.77.94.92Z"/><path class="cls-1" d="M56.19,13.19s.12.02.12.08c0,.03-.02.04-.06.07-.08.06-.08.17-.1.27-.03.2-.04.39-.04.59,0,.38.03.82.18,1.17.07.16.25.49.45.49.16,0,.32-.25.39-.37.03-.06.08-.14.15-.14.12,0,.4.23.4.33,0,.11-.25.4-.33.49-.16.19-.34.35-.6.35-.42,0-.74-.38-.93-.72-.28-.53-.33-1.24-.33-1.83,0-.09.02-.8.03-.85,0-.04.04-.06.08-.06.07,0,.49.11.58.12ZM58.47,13.08c.12,0,.6.35.86.87.16.3.33.83.33,1.17,0,.11-.06.13-.15.16-.09.03-.22.05-.31.05-.18,0-.17-.08-.19-.21-.07-.66-.3-1.19-.83-1.6-.03-.02-.05-.04-.05-.08,0-.11.22-.35.34-.35Z"/><path class="cls-1" d="M65.22,15.02c.07,0,.09.05.1.11.12.6.6.68,1.12.68s1.15-.06,1.67-.2c.02,0,.06-.02.08-.02.08,0,.12.09.12.46,0,.11-.03.17-.13.21-.3.09-1.35.16-1.68.16-.58,0-1.21-.07-1.58-.58-.08-.12-.22-.39-.22-.54,0-.14.5-.27.51-.27ZM65.32,13.06c.02-.1.03-.2.13-.2.04,0,.12.02.16.03.31.08.63.12.95.12.34,0,.68-.04,1.02-.11.02,0,.05-.01.07-.01.14,0,.15.25.15.48,0,.13-.03.15-.16.17-.31.04-.7.07-1.02.07s-1-.03-1.28-.14c-.05-.02-.08-.06-.08-.12,0-.07.03-.21.04-.29Z"/><path class="cls-1" d="M74.91,12.4c.08-.01.18-.03.27-.03.16,0,.15.08.16.21.03.34.1.67.17,1,.02.07.03.17.13.17.1,0,1-.53,1.15-.62.04-.02.1-.06.15-.06.07,0,.17.17.2.22.04.07.16.26.16.34,0,.06-.06.07-.11.09-.4.13-1.01.44-1.39.65-.3.16-.77.44-1.01.66-.15.14-.27.29-.27.5s.2.34.37.4c.24.08.5.1.75.1.47,0,1.01-.06,1.47-.15.02,0,.03,0,.05,0,.08,0,.08.23.08.35v.07c0,.15,0,.21-.12.24-.21.06-1.27.09-1.54.09-.42,0-.78-.02-1.15-.24-.31-.18-.52-.49-.52-.86,0-.61.5-1.01.97-1.31.06-.04.1-.08.1-.15,0-.04,0-.07-.02-.1-.07-.2-.22-.8-.28-1.03-.03-.13-.06-.25-.11-.37,0-.02-.02-.04-.02-.07,0-.08.19-.08.37-.11Z"/><rect class="cls-2" x="37.41" y="13.02" width="3.37" height="3.37"/><path class="cls-1" d="M3.49,7.3v-1.36c0-.21-.05-.32-.16-.32-.07,0-.15.05-.27.15-.35.33-.75.63-1.2.91-.45.28-.9.5-1.35.68-.07.03-.13,0-.17-.06l-.05-.08s0,0,0,0v-.02h0s-.17-.23-.17-.23c-.02-.02-.03-.03-.05-.05s-.03-.03-.04-.04c-.05-.05-.04-.09.02-.12.44-.15.85-.34,1.24-.56.39-.23.77-.48,1.13-.76.13-.11.18-.19.15-.26-.03-.07-.13-.1-.29-.1h-.89c-.08,0-.15-.03-.2-.08-.05-.05-.08-.12-.08-.2v-2.43c0-.08.03-.15.08-.2.05-.05.12-.08.2-.08h1.81c.08,0,.15-.02.2-.07.05-.05.07-.12.07-.21,0-.08-.02-.15-.07-.2-.05-.05-.12-.07-.2-.07H.55c-.08,0-.15-.03-.2-.08-.05-.05-.08-.12-.08-.2v-.08c0-.08.03-.15.08-.2.05-.05.12-.08.2-.08h2.66c.08,0,.15-.03.2-.08.05-.05.08-.12.08-.2v-.26c0-.08.03-.15.08-.2.05-.05.12-.08.2-.08h.17c.08,0,.15.03.2.08.05.05.08.12.08.2v.26c0,.08.03.15.08.2.05.05.12.08.2.08h2.66c.08,0,.15.03.2.08.05.05.08.12.08.2v.08c0,.08-.03.15-.08.2-.05.05-.12.08-.2.08h-2.66c-.09,0-.16.02-.21.07s-.07.12-.07.2c0,.19.09.28.28.28h1.82c.08,0,.15.03.2.08.05.05.08.12.08.2v2.43c0,.08-.03.15-.08.2-.05.05-.12.08-.2.08h-.9c-.16,0-.25.03-.28.1s.02.15.15.25c.35.29.73.54,1.12.76.4.22.81.41,1.24.57.07.03.07.07.02.12-.02.02-.04.05-.07.09-.06.07-.12.15-.18.25l-.06.1c-.04.07-.09.09-.17.06-.48-.18-.92-.4-1.35-.68-.42-.27-.82-.58-1.21-.92-.1-.1-.19-.15-.27-.15-.11,0-.17.11-.17.33v1.36c0,.08-.03.15-.08.2-.05.05-.12.08-.2.08h-.17c-.08,0-.15-.03-.2-.08-.05-.05-.08-.12-.08-.2ZM2.13,3.3h1.08c.08,0,.15-.03.2-.08.05-.05.08-.12.08-.2v-.08c0-.08-.03-.15-.08-.2-.05-.05-.12-.08-.2-.08h-1.08c-.08,0-.15.03-.2.08-.05.05-.08.12-.08.2v.08c0,.08.03.15.08.2.05.05.12.08.2.08ZM2.13,4.47h1.08c.08,0,.15-.03.2-.08.05-.05.08-.12.08-.2v-.08c0-.08-.03-.15-.08-.2-.05-.05-.12-.08-.2-.08h-1.08c-.08,0-.15.03-.2.08-.05.05-.08.12-.08.2v.08c0,.08.03.15.08.2.05.05.12.08.2.08ZM4.51,3.3h1.09c.08,0,.15-.03.2-.08.05-.05.08-.12.08-.2v-.08c0-.08-.03-.15-.08-.2-.05-.05-.12-.08-.2-.08h-1.09c-.08,0-.15.03-.2.08-.05.05-.08.12-.08.2v.08c0,.08.03.15.08.2.05.05.12.08.2.08ZM4.51,4.47h1.09c.08,0,.15-.03.2-.08.05-.05.08-.12.08-.2v-.08c0-.08-.03-.15-.08-.2-.05-.05-.12-.08-.2-.08h-1.09c-.08,0-.15.03-.2.08-.05.05-.08.12-.08.2v.08c0,.08.03.15.08.2.05.05.12.08.2.08Z"/><path class="cls-1" d="M8.82,7.12s-.03-.04-.05-.07c-.02-.02-.04-.05-.06-.07-.03-.03-.05-.05-.07-.07-.02-.02-.04-.04-.06-.07-.09-.08-.08-.15.02-.21.31-.19.61-.41.9-.64.28-.23.55-.49.8-.76.07-.08.14-.12.23-.12.06,0,.12.02.18.07l.12.1c.07.05.1.12.11.19s-.02.14-.07.2c-.25.27-.53.54-.83.81-.3.27-.61.5-.94.68-.04.03-.07.04-.11.04-.06,0-.12-.03-.17-.09ZM8.53,1.3v-.12c0-.08.03-.15.08-.2.05-.05.12-.08.2-.08h2.67c.08,0,.15-.03.2-.08.05-.05.08-.12.08-.2v-.34c0-.08.03-.15.08-.2.05-.05.12-.08.2-.08h.22c.08,0,.15.03.2.08.05.05.08.12.08.2v.34c0,.08.03.15.08.2.05.05.12.08.2.08h2.64c.08,0,.15.03.2.08.05.05.08.12.08.2v.12c0,.08-.03.15-.08.2-.05.05-.12.08-.2.08h-6.65c-.08,0-.15-.03-.2-.08-.05-.05-.08-.12-.08-.2ZM10.99,7.39s-.02-.06-.02-.09c0-.03,0-.07-.02-.1s-.02-.06-.02-.1c0-.03-.01-.06-.02-.09-.03-.12.02-.18.13-.18h.42c.1,0,.19-.02.24-.06.05-.04.08-.11.08-.22v-1.56c0-.08-.03-.15-.08-.2-.05-.05-.12-.08-.2-.08h-1.5c-.08,0-.15-.03-.2-.08-.05-.05-.08-.12-.08-.2v-1.93c0-.08.03-.15.08-.2.05-.05.12-.08.2-.08h4.35c.08,0,.15.03.2.08.05.05.08.12.08.2v1.93c0,.08-.03.15-.08.2-.05.05-.12.08-.2.08h-1.52c-.08,0-.15.03-.2.08-.05.05-.08.12-.08.2v1.81c0,.3-.08.51-.24.62-.16.11-.38.16-.66.16h-.42c-.06,0-.11-.02-.15-.05-.04-.04-.06-.08-.07-.15ZM10.75,4.08h2.83c.08,0,.15-.03.2-.08.05-.05.08-.12.08-.2v-.66c0-.08-.03-.15-.08-.2-.05-.05-.12-.08-.2-.08h-2.83c-.08,0-.15.03-.2.08-.05.05-.08.12-.08.2v.66c0,.08.03.15.08.2.05.05.12.08.2.08ZM15.19,7.17c-.33-.21-.64-.44-.93-.69-.29-.25-.57-.52-.83-.8-.06-.06-.09-.13-.08-.2s.05-.14.12-.19l.12-.09s.11-.07.17-.07c.08,0,.16.03.22.1.24.27.5.52.79.75.29.23.59.44.91.63.1.06.11.14.02.22-.04.04-.08.09-.12.15-.03.03-.05.05-.07.07-.02.02-.04.04-.05.07-.04.06-.09.08-.17.08-.04,0-.08-.01-.11-.03Z"/><path class="cls-1" d="M17.01,7.47l-.06-.12s-.06-.09-.09-.14-.07-.09-.1-.14c-.01-.02-.02-.04-.04-.06l-.04-.04c-.04-.06-.03-.1.03-.13.39-.15.77-.34,1.12-.58.35-.24.67-.5.96-.81.28-.3.53-.64.73-1.01.2-.37.35-.76.44-1.18.02-.09,0-.17-.05-.23-.05-.06-.13-.09-.22-.09h-2.6c-.08,0-.15-.03-.2-.08-.05-.05-.08-.12-.08-.2v-.17c0-.08.03-.15.08-.2.05-.05.12-.08.2-.08h2.66c.08,0,.15-.03.2-.08s.08-.12.08-.2V.35c0-.08.03-.15.08-.2.05-.05.12-.08.2-.08h.23c.08,0,.15.03.2.08.05.05.08.12.08.2v1.59c0,.08.03.15.08.2.05.05.12.08.2.08h2.67c.08,0,.15.03.2.08.05.05.08.12.08.2v.17c0,.08-.03.15-.08.2-.05.05-.12.08-.2.08h-2.61c-.09,0-.17.03-.22.09s-.07.13-.05.23c.09.39.24.76.44,1.13.21.37.46.71.75,1.02.29.31.61.59.96.83.35.24.71.43,1.08.57.08.03.09.09.04.16l-.28.38s0,0,0,.01,0,0,0,.01l-.04.06s0,.01-.02.03c-.04.08-.1.1-.17.06-.28-.14-.56-.3-.84-.48-.28-.19-.54-.39-.8-.61-.25-.22-.48-.46-.7-.72-.22-.26-.4-.53-.56-.81-.11-.21-.22-.32-.31-.32s-.21.11-.32.32c-.33.57-.74,1.08-1.26,1.53-.51.45-1.06.81-1.66,1.09-.07.04-.13.02-.18-.06Z"/><path class="cls-1" d="M27.37,7.41s-.02-.06-.02-.09c0-.03,0-.06-.02-.09-.01-.03-.02-.07-.02-.1s-.01-.06-.02-.09c-.03-.11.01-.17.12-.17h.69c.1,0,.19-.02.24-.06.06-.04.08-.11.08-.22v-.85c0-.08-.03-.15-.08-.2-.05-.05-.12-.08-.2-.08h-2.76c-.08,0-.15-.03-.2-.08-.05-.05-.08-.12-.08-.2v-.1c0-.08.03-.15.08-.2.05-.05.12-.08.2-.08h2.76c.08,0,.15-.03.2-.08.05-.05.08-.12.08-.2v-.12c0-.12.06-.17.17-.17h.09c.06,0,.11-.02.16-.05l.4-.27s.08-.05.12-.08c.04-.03.07-.05.11-.08.07-.05.1-.1.09-.14-.01-.04-.06-.05-.16-.05h-2.58c-.08,0-.15-.03-.2-.08-.05-.05-.08-.12-.08-.2v-.08c0-.08.03-.15.08-.2.05-.05.12-.08.2-.08h3.83c.08,0,.14.03.2.08l.08.07s.07.11.07.17-.02.11-.07.16c-.27.23-.54.45-.83.66-.29.21-.58.41-.88.59-.04.02-.06.05-.06.1,0,.04.02.07.07.07h2.83c.08,0,.15.03.2.08.05.05.08.12.08.2v.1c0,.08-.03.15-.08.2-.05.05-.12.08-.2.08h-2.62c-.08,0-.15.03-.2.08-.05.05-.08.12-.08.2v1.07c0,.52-.3.78-.9.78h-.68c-.13,0-.2-.06-.22-.19ZM25.19,3.2v-1.28c0-.08.03-.15.08-.2.05-.05.12-.08.2-.08h.88c.07,0,.11-.02.14-.06.03-.04.03-.09,0-.15l-.05-.1s-.03-.07-.05-.11c-.04-.08-.09-.15-.13-.22-.04-.07-.08-.14-.13-.21-.02-.03-.04-.07-.06-.1s-.04-.06-.05-.09c-.08-.11-.06-.2.06-.26l.26-.12c.06-.03.12-.03.18-.02.06.01.11.05.15.1.03.03.05.06.07.09.02.03.04.07.07.11.09.14.18.29.28.46.02.04.04.07.06.11s.03.06.05.09c.03.06.03.12,0,.17-.02.05-.06.1-.12.12l-.09.04c-.09.04-.14.08-.13.1,0,.02.06.04.16.04h2.55s.09,0,.12-.03.07-.05.1-.09c.14-.2.27-.4.39-.61.12-.21.23-.42.34-.65.07-.15.19-.21.34-.17l.21.06c.09.03.16.08.19.14.03.07.03.15-.02.24-.07.13-.14.25-.22.38-.07.12-.14.25-.22.38-.07.11-.08.19-.05.25s.11.1.24.1h.98c.08,0,.15.03.2.08.05.05.08.12.08.2v1.28c0,.08-.03.15-.08.2-.05.05-.12.08-.2.08h-.17c-.08,0-.15-.03-.2-.08-.05-.05-.08-.12-.08-.2v-.65c0-.08-.03-.15-.08-.2-.05-.05-.12-.08-.2-.08h-5.05c-.08,0-.15.03-.2.08-.05.05-.08.12-.08.2v.65c0,.08-.03.15-.08.2-.05.05-.12.08-.2.08h-.16c-.08,0-.15-.03-.2-.08-.05-.05-.08-.12-.08-.2ZM28.37,1.39c-.04-.13-.1-.25-.15-.36s-.12-.23-.18-.35c-.03-.04-.05-.08-.07-.11s-.04-.07-.06-.1c-.09-.13-.06-.23.08-.28l.27-.1c.06-.03.12-.03.17-.01.06.02.1.05.13.1.03.03.05.07.07.1.02.04.04.08.07.12.07.11.13.23.19.34.06.12.11.24.16.36.03.06.03.12,0,.18-.02.06-.07.1-.14.13l-.27.11c-.07.03-.12.03-.17,0-.05-.02-.09-.07-.12-.14Z"/><path class="cls-1" d="M35.24,7.29v-2.34c0-.08-.03-.15-.08-.2-.05-.05-.12-.08-.2-.08h-.33c-.08,0-.15.03-.2.08-.05.05-.08.12-.08.2v1.76c0,.08-.03.15-.08.2-.05.05-.12.08-.2.08h-.16c-.08,0-.15-.03-.2-.08-.05-.05-.08-.12-.08-.2v-2.45c0-.08.03-.15.08-.2.05-.05.12-.08.2-.08h1.05c.08,0,.15-.03.2-.08.05-.05.08-.12.08-.2v-.12c0-.08-.03-.15-.08-.2-.05-.05-.12-.08-.2-.08h-1.42c-.08,0-.15-.03-.2-.08-.05-.05-.08-.12-.08-.2v-.12c0-.08.03-.15.08-.2.05-.05.12-.08.2-.08h1.42c.08,0,.15-.03.2-.08.05-.05.08-.12.08-.2v-.26c0-.08-.03-.15-.08-.2-.05-.05-.12-.08-.2-.08h-.56c-.12,0-.2.05-.26.15-.04.09-.09.17-.14.25s-.09.15-.14.21c-.04.06-.09.07-.15.03l-.34-.15h0s-.02,0-.02,0l-.08-.03c-.08-.02-.09-.06-.04-.12.18-.24.33-.5.46-.78s.23-.56.32-.85c.03-.08.07-.14.13-.18.06-.04.13-.05.22-.04l.24.05c.12.03.17.1.14.22-.01.03-.02.06-.03.09s-.02.06-.03.09l-.07.19c-.03.06-.03.11,0,.14.03.03.07.05.13.05h.22c.08,0,.15-.03.2-.08.05-.05.08-.12.08-.2v-.47c0-.08.03-.15.08-.2.05-.05.12-.08.2-.08h.13c.08,0,.15.03.2.08.05.05.08.12.08.2v.47c0,.08.03.15.08.2.05.05.12.08.2.08h1.05c.08,0,.15.03.2.08.05.05.08.12.08.2v.12c0,.08-.03.15-.08.2-.05.05-.12.08-.2.08h-1.05c-.08,0-.15.03-.2.08-.05.05-.08.12-.08.2v.26c0,.08.03.15.08.2.05.05.12.08.2.08h1.27c.08,0,.15.03.2.08.05.05.08.12.08.2v.12c0,.08-.03.15-.08.2-.05.05-.12.08-.2.08h-1.27c-.08,0-.15.03-.2.08-.05.05-.08.12-.08.2v.12c0,.08.03.15.08.2.05.05.12.08.2.08h1.09c.08,0,.15.03.2.08.05.05.08.12.08.2v1.96c0,.28-.08.46-.24.57-.16.1-.37.15-.62.15h-.18c-.1,0-.16-.04-.19-.13-.02-.09-.04-.17-.05-.25-.01-.03-.02-.05-.02-.08l-.02-.08c-.04-.11,0-.17.12-.17h.24c.17,0,.25-.08.25-.25v-1.04c0-.08-.03-.15-.08-.2s-.12-.08-.2-.08h-.37c-.08,0-.15.03-.2.08-.05.05-.08.12-.08.2v2.34c0,.08-.03.15-.08.2-.05.05-.12.08-.2.08h-.13c-.08,0-.15-.03-.2-.08-.05-.05-.08-.12-.08-.2ZM38.18,5.39V1.08c0-.08.03-.15.08-.2.05-.05.12-.08.2-.08h.14c.08,0,.15.03.2.08.05.05.08.12.08.2v4.31c0,.08-.03.15-.08.2-.05.05-.12.08-.2.08h-.14c-.08,0-.15-.03-.2-.08-.05-.05-.08-.12-.08-.2ZM38.88,7.37s-.01-.06-.02-.09-.01-.06-.02-.1c-.01-.03-.02-.06-.02-.09,0-.03-.01-.06-.02-.09-.03-.12,0-.17.12-.17h.46c.1,0,.19-.02.24-.06.06-.04.08-.11.08-.22V.36c0-.08.03-.15.08-.2.05-.05.12-.08.2-.08h.17c.08,0,.15.03.2.08s.08.12.08.2v6.44c0,.29-.08.49-.24.6-.16.11-.38.16-.65.16h-.46c-.12,0-.19-.06-.22-.19Z"/><path class="cls-1" d="M42.79,7.28v-3.84c0-.13-.03-.2-.08-.2-.04,0-.09.04-.15.12-.18.24-.37.46-.57.66-.04.04-.08.06-.13.06-.04,0-.09-.02-.13-.05-.02-.02-.04-.04-.06-.06-.02-.02-.04-.04-.07-.06-.03-.02-.05-.04-.07-.06-.02-.02-.04-.03-.07-.05-.09-.07-.1-.14-.02-.22.18-.17.36-.38.56-.64.2-.26.39-.54.57-.83.18-.3.35-.59.5-.89.15-.3.27-.57.35-.8.03-.08.08-.14.15-.17.07-.03.15-.04.23,0l.17.05c.08.03.13.07.16.14.03.06.03.13,0,.21-.08.2-.16.39-.25.58-.09.19-.19.38-.29.56-.02.06-.03.1-.03.14v1.33c0,.13.03.2.1.2.04,0,.1-.04.17-.12s.15-.18.24-.31c.09-.12.18-.26.27-.41.09-.15.18-.29.27-.44.08-.14.16-.28.22-.39.07-.12.11-.21.14-.27.09-.18.18-.37.27-.57s.15-.39.22-.59c.03-.09.07-.15.14-.19s.14-.04.23-.02l.16.05c.08.03.13.07.17.14.04.06.04.13.01.21-.04.13-.09.25-.14.37-.05.12-.1.24-.15.36-.04.1-.05.18,0,.24.04.06.11.09.22.09h2.59c.08,0,.15.03.2.08.05.05.08.12.08.2v.15c0,.08-.03.15-.08.2-.05.05-.12.08-.2.08h-1.78c-.08,0-.15.03-.2.08-.05.05-.08.12-.08.2v.52c0,.08.03.15.08.2.05.05.12.08.2.08h1.48c.08,0,.15.03.2.08.05.05.08.12.08.2v.12c0,.08-.03.15-.08.2-.05.05-.12.08-.2.08h-1.48c-.08,0-.15.03-.2.08-.05.05-.08.12-.08.2v.51c0,.08.03.15.08.2.05.05.12.08.2.08h1.52c.08,0,.15.03.2.08.05.05.08.12.08.2v.15c0,.08-.03.15-.08.2-.05.05-.12.08-.2.08h-1.52c-.08,0-.15.03-.2.08-.05.05-.08.12-.08.2v1.11c0,.08-.03.15-.08.2-.05.05-.12.08-.2.08h-.19c-.08,0-.15-.03-.2-.08-.05-.05-.08-.12-.08-.2V2.57c0-.08-.02-.14-.07-.19-.05-.05-.11-.07-.19-.07h-.1c-.11,0-.19.05-.25.14-.03.06-.1.18-.21.34-.1.17-.22.34-.34.52s-.24.34-.36.48c-.12.14-.2.21-.27.21-.04,0-.08-.02-.12-.05-.02-.02-.04-.03-.06-.05-.02-.02-.04-.04-.07-.05s-.05-.04-.07-.05c-.02-.02-.05-.04-.07-.05-.04-.03-.08-.03-.11-.02s-.04.05-.04.1v3.46c0,.08-.03.15-.08.2-.05.05-.12.08-.2.08h-.19c-.08,0-.15-.03-.2-.08-.05-.05-.08-.12-.08-.2Z"/><path class="cls-1" d="M56.77,7.52c-.65-.23-1.22-.53-1.73-.91-.51-.38-.93-.88-1.26-1.49-.06-.1-.14-.15-.26-.15h-.2c-.08,0-.15.03-.2.08-.05.05-.08.12-.08.2v1.02c0,.1.03.18.09.23.06.05.14.06.24.04.09-.02.18-.03.26-.05s.17-.04.24-.06c.06-.01.11-.02.15-.03.05-.01.09-.02.14-.03.19-.04.28.03.28.21v.16c0,.13-.06.22-.19.26-.04.01-.08.02-.12.03-.04.01-.09.02-.14.03-.09.02-.2.04-.31.07-.11.02-.23.05-.36.08l-.75.15c-.13.02-.25.04-.38.06-.12.02-.24.04-.36.06l-.35.05c-.08.01-.15,0-.2-.04-.06-.04-.1-.09-.12-.17l-.03-.15c-.02-.08-.02-.14.02-.19.03-.05.09-.08.17-.09.04,0,.08,0,.12-.01.04,0,.09,0,.14-.02.08-.01.16-.02.24-.04s.16-.03.25-.04c.15-.03.23-.12.23-.28v-1.25c0-.08-.03-.15-.08-.2-.05-.05-.12-.08-.2-.08h-.63c-.07,0-.13.02-.19.06-.05.04-.08.1-.1.17-.07.37-.18.75-.32,1.15-.14.4-.32.75-.55,1.06-.04.06-.1.07-.16.03l-.09-.07-.35-.19c-.06-.04-.07-.09-.03-.14.18-.27.33-.55.45-.84.12-.3.21-.6.27-.91.07-.31.11-.63.14-.94s.04-.63.04-.95V.57c0-.08.03-.15.08-.2.05-.05.12-.08.2-.08h5.58c.08,0,.15.03.2.08.05.05.08.12.08.2v1.35c0,.08-.03.15-.08.2-.05.05-.12.08-.2.08h-.78c-.08,0-.15.03-.2.08-.05.05-.08.12-.08.2v.18c0,.08.03.15.08.2.05.05.12.08.2.08h.84c.08,0,.15.03.2.08.05.05.08.12.08.2v.02c0,.08-.03.15-.08.2-.05.05-.12.08-.2.08h-.84c-.08,0-.15.03-.2.08-.05.05-.08.12-.08.2v.22c0,.08.03.15.08.2.05.05.12.08.2.08h1.28c.08,0,.15.03.2.08.05.05.08.12.08.2v.08c0,.08-.03.15-.08.2-.05.05-.12.08-.2.08h-.36c-.06,0-.1.01-.1.04,0,.02,0,.06.05.09.04.04.06.09.06.14,0,.05-.03.09-.07.13-.09.09-.2.18-.31.27-.11.09-.23.17-.34.24-.09.07-.14.14-.14.22,0,.08.05.14.15.2.2.13.42.24.65.34.23.1.46.18.69.26.1.03.13.1.07.2-.04.05-.07.1-.11.16l-.09.17s-.07.08-.12.1c-.05.02-.1.02-.15,0ZM51.45,4.33h.94c.08,0,.15-.03.2-.08.05-.05.08-.12.08-.2v-.22c0-.08-.03-.15-.08-.2-.05-.05-.12-.08-.2-.08h-.46c-.08,0-.15-.03-.2-.08s-.08-.12-.08-.2v-.02c0-.08.03-.15.08-.2s.12-.08.2-.08h.46c.08,0,.15-.03.2-.08.05-.05.08-.12.08-.2v-.18c0-.08-.03-.15-.08-.2-.05-.05-.12-.08-.2-.08h-.85c-.08,0-.15.03-.2.08-.05.05-.08.12-.08.2v1.15c0,.08,0,.16,0,.24l-.02.22c-.01.16.06.23.22.23ZM51.55,1.61h4.08c.08,0,.15-.03.2-.08s.08-.12.08-.2v-.17c0-.08-.03-.15-.08-.2-.05-.05-.12-.08-.2-.08h-4.08c-.08,0-.15.03-.2.08-.05.05-.08.12-.08.2v.17c0,.08.03.15.08.2.05.05.12.08.2.08ZM53.67,2.95h.65c.08,0,.15-.03.2-.08.05-.05.08-.12.08-.2v-.18c0-.08-.03-.15-.08-.2-.05-.05-.12-.08-.2-.08h-.65c-.08,0-.15.03-.2.08-.05.05-.08.12-.08.2v.18c0,.08.03.15.08.2.05.05.12.08.2.08ZM53.67,4.33h.65c.08,0,.15-.03.2-.08.05-.05.08-.12.08-.2v-.22c0-.08-.03-.15-.08-.2-.05-.05-.12-.08-.2-.08h-.65c-.08,0-.15.03-.2.08-.05.05-.08.12-.08.2v.22c0,.08.03.15.08.2.05.05.12.08.2.08ZM55.18,5.56s.1-.07.15-.1c.05-.04.1-.07.15-.11.04-.03.08-.06.12-.09.04-.03.07-.06.11-.09.07-.06.1-.1.09-.14s-.07-.05-.16-.05h-.75c-.14,0-.23.03-.27.1-.04.07-.01.16.07.27l.15.17c.05.05.11.08.19.08.04,0,.09-.01.15-.04Z"/><path class="cls-1" d="M60.01,7.29v-.14c0-.29.05-.56.15-.81s.22-.5.38-.74c.15-.23.33-.46.52-.66.19-.21.39-.4.58-.58.12-.11.25-.24.39-.38.14-.14.28-.3.41-.46s.25-.34.34-.51c.09-.18.14-.35.15-.52.01-.38-.07-.67-.26-.86-.19-.19-.46-.28-.8-.28-.29,0-.51.09-.66.26-.15.18-.25.4-.29.66-.01.1-.05.18-.11.24-.06.06-.14.09-.24.09h-.17c-.1,0-.18-.03-.24-.09-.06-.06-.09-.14-.07-.24.03-.25.08-.48.18-.69.09-.21.21-.39.36-.55.15-.15.33-.27.54-.36.21-.09.45-.13.71-.13.36,0,.68.07.97.21.29.14.52.37.71.69.16.29.23.64.21,1.06-.01.32-.09.61-.24.88-.15.27-.33.51-.54.74-.11.12-.23.25-.36.38-.13.13-.26.26-.4.4-.16.16-.3.32-.44.47-.14.15-.27.3-.4.45-.14.16-.25.32-.33.48-.05.1-.05.19,0,.26.06.07.14.1.26.1h2.03c.1,0,.18.03.24.09.06.06.09.14.09.24v.11c0,.1-.03.18-.09.24-.06.06-.14.09-.24.09h-3.17c-.09,0-.14-.05-.14-.14Z"/><path class="cls-1" d="M66.52,7.53c-.74,0-1.25-.29-1.54-.87-.29-.58-.43-1.47-.43-2.65s.14-2.07.43-2.66c.29-.58.8-.87,1.54-.87s1.25.29,1.53.87c.29.59.43,1.48.43,2.66s-.14,2.07-.43,2.65c-.29.58-.8.87-1.53.87ZM66.52,6.72c.17,0,.31-.03.43-.09.12-.06.21-.14.29-.23s.14-.21.19-.35c.05-.13.09-.27.11-.42.03-.2.06-.44.08-.7s.03-.57.03-.92c0-.16,0-.35,0-.58s-.02-.47-.05-.71-.08-.47-.14-.69-.16-.38-.27-.5c-.16-.16-.38-.24-.66-.24-.17,0-.31.03-.43.09s-.21.14-.29.23c-.08.1-.14.21-.19.35-.05.13-.08.27-.12.42-.08.4-.12.94-.12,1.63,0,.16,0,.35,0,.58,0,.23.02.46.05.7.03.24.08.46.14.67s.16.38.28.5c.17.17.39.25.65.25Z"/><path class="cls-1" d="M69.28,7.29v-.14c0-.29.05-.56.15-.81s.22-.5.38-.74c.15-.23.33-.46.52-.66.19-.21.39-.4.58-.58.12-.11.25-.24.39-.38.14-.14.28-.3.41-.46s.25-.34.34-.51c.09-.18.14-.35.15-.52.01-.38-.07-.67-.26-.86-.19-.19-.46-.28-.8-.28-.29,0-.51.09-.66.26-.15.18-.25.4-.29.66-.01.1-.05.18-.11.24-.06.06-.14.09-.24.09h-.17c-.1,0-.18-.03-.24-.09-.06-.06-.09-.14-.07-.24.03-.25.08-.48.18-.69.09-.21.21-.39.36-.55.15-.15.33-.27.54-.36.21-.09.45-.13.71-.13.36,0,.68.07.97.21.29.14.52.37.71.69.16.29.23.64.21,1.06-.01.32-.09.61-.24.88-.15.27-.33.51-.54.74-.11.12-.23.25-.36.38-.13.13-.26.26-.4.4-.16.16-.3.32-.44.47-.14.15-.27.3-.4.45-.14.16-.25.32-.33.48-.05.1-.05.19,0,.26.06.07.14.1.26.1h2.03c.1,0,.18.03.24.09.06.06.09.14.09.24v.11c0,.1-.03.18-.09.24-.06.06-.14.09-.24.09h-3.17c-.09,0-.14-.05-.14-.14Z"/><path class="cls-1" d="M75.48,7.48c-.34,0-.66-.07-.96-.22s-.56-.35-.79-.6c-.06-.07-.08-.15-.06-.23.02-.08.07-.15.16-.2l.16-.1c.06-.04.12-.06.19-.06.11,0,.2.04.28.14.14.15.29.27.46.35.17.08.36.13.57.13.44,0,.77-.13.97-.39.21-.26.31-.59.31-1.01,0-.18-.02-.34-.06-.51-.04-.16-.1-.31-.19-.43-.08-.12-.2-.22-.33-.3-.14-.07-.31-.11-.51-.11-.15,0-.3.03-.45.09-.15.06-.27.15-.37.27-.04.05-.09.1-.14.13-.06.04-.12.05-.19.05h-.21c-.1,0-.18-.03-.24-.09s-.09-.14-.09-.24V.93c0-.1.03-.18.09-.24.06-.06.14-.09.24-.09h2.7c.1,0,.18.03.24.09.06.06.09.14.09.24v.11c0,.1-.03.18-.09.24s-.14.09-.24.09h-1.86c-.1,0-.18.03-.24.09-.06.06-.09.14-.09.24v1.33c0,.19.06.28.19.28.05,0,.12-.02.2-.05.15-.06.31-.09.48-.09.33,0,.61.06.84.17s.43.26.59.45c.16.19.27.42.35.67.08.26.12.53.12.82,0,.33-.05.63-.14.9-.09.27-.23.5-.4.69-.18.19-.4.34-.66.44-.26.1-.56.16-.9.16Z"/></g></svg>
