<?xml version="1.0" encoding="UTF-8"?><svg id="Layer_2" xmlns="http://www.w3.org/2000/svg" viewBox="0 0 196.6 47.54"><defs><style>.cls-1,.cls-2{fill:none;stroke:#fff;stroke-miterlimit:10;}.cls-2{stroke-width:.84px;}.cls-3{fill:#fff;}</style></defs><g id="Layer_2-2"><path class="cls-3" d="M99.51,6.38v-1.05c0-.18-.04-.27-.13-.27-.05,0-.13.04-.22.13-.31.27-.63.5-.96.72-.33.22-.69.4-1.06.55-.04.01-.08.01-.1,0-.03,0-.05-.04-.08-.06l-.08-.12-.19-.26s-.04-.04-.05-.05c-.01-.01-.03-.03-.04-.05-.05-.05-.05-.1.03-.13.33-.13.65-.28.97-.45.32-.17.61-.37.88-.6.1-.08.15-.15.13-.2s-.1-.08-.23-.08h-.65c-.08,0-.13-.03-.18-.06s-.06-.1-.06-.18v-2.19c0-.08.03-.13.06-.18.05-.05.1-.06.18-.06h1.58s.1-.01.14-.05c.04-.04.05-.09.05-.14s-.01-.1-.05-.14-.08-.05-.14-.05h-2.29c-.08,0-.13-.03-.18-.06-.05-.05-.06-.1-.06-.18v-.2c0-.08.03-.13.06-.18.05-.05.1-.06.18-.06h2.24c.08,0,.13-.03.18-.06.05-.05.06-.1.06-.18v-.17c0-.08.03-.13.06-.18s.1-.06.18-.06h.35c.08,0,.13.03.18.06s.06.1.06.18v.17c0,.08.03.13.06.18s.1.06.18.06h2.22c.08,0,.13.03.18.06.05.05.06.1.06.18v.2c0,.08-.03.13-.06.18-.05.05-.1.06-.18.06h-2.28s-.1.01-.14.05-.05.08-.05.14.01.1.05.14.08.05.14.05h1.6c.08,0,.13.03.18.06s.06.1.06.18v2.19c0,.08-.03.13-.06.18-.05.05-.1.06-.18.06h-.65c-.13,0-.22.03-.23.08s.03.12.13.2c.12.1.26.2.41.31.15.1.31.19.47.29s.33.18.5.26.32.15.47.2c.08.03.08.08.03.13-.01.01-.03.03-.04.05-.01.01-.03.04-.04.05-.08.08-.14.17-.19.26-.01.01-.03.04-.04.05-.01.01-.03.04-.04.05-.04.08-.1.1-.18.08-.29-.12-.59-.26-.86-.42-.28-.17-.54-.35-.78-.55-.14-.1-.27-.22-.38-.32-.09-.08-.17-.12-.22-.12-.09,0-.13.09-.13.27v1.06c0,.08-.03.13-.06.18s-.1.06-.18.06h-.35c-.08,0-.13-.03-.18-.06s-.06-.1-.06-.18h-.03ZM98.52,2.84h.77c.06,0,.12-.03.15-.05.04-.04.05-.09.05-.15s-.01-.12-.05-.15-.09-.05-.15-.05h-.77c-.06,0-.12.03-.15.05s-.05.09-.05.15.01.12.05.15.09.05.15.05ZM98.52,3.82h.77c.06,0,.12-.01.15-.05s.05-.09.05-.15-.01-.12-.05-.15-.09-.05-.15-.05h-.77c-.06,0-.12.01-.15.05-.04.04-.05.09-.05.15s.01.12.05.15.09.05.15.05ZM100.56,2.84h.78c.06,0,.12-.03.15-.05.04-.04.05-.09.05-.15s-.01-.12-.05-.15c-.04-.04-.09-.05-.15-.05h-.78c-.06,0-.12.03-.15.05-.04.04-.05.09-.05.15s.01.12.05.15.09.05.15.05ZM100.56,3.82h.78c.06,0,.12-.01.15-.05s.05-.09.05-.15-.01-.12-.05-.15c-.04-.04-.09-.05-.15-.05h-.78c-.06,0-.12.01-.15.05-.04.04-.05.09-.05.15s.01.12.05.15.09.05.15.05Z"/><path class="cls-3" d="M106.44,6.22s-.05-.05-.06-.08c-.03-.03-.04-.05-.06-.08s-.05-.05-.09-.08-.05-.05-.08-.08c-.1-.09-.09-.17.03-.24.52-.33.98-.73,1.39-1.2.05-.08.13-.1.2-.1.05,0,.1.01.17.05l.26.2s.09.1.1.17c0,.06,0,.12-.06.18-.2.24-.45.49-.69.72-.26.23-.51.42-.79.6-.04.03-.09.04-.13.04-.06,0-.13-.04-.18-.1ZM106.09,1.24v-.27c0-.08.03-.13.06-.18.05-.05.1-.06.18-.06h2.24c.08,0,.13-.03.18-.06s.06-.1.06-.18v-.24c0-.08.03-.13.06-.18.05-.05.1-.06.18-.06h.4c.08,0,.13.03.18.06.05.05.06.1.06.18v.24c0,.08.03.13.06.18s.1.06.18.06h2.21c.08,0,.13.03.18.06.05.05.06.1.06.18v.27c0,.08-.03.13-.06.18-.05.05-.1.06-.18.06h-5.83c-.08,0-.13-.03-.18-.06-.05-.05-.06-.1-.06-.18h.01ZM108.24,6.49v-.13l-.08-.32s-.01-.09-.04-.13c-.03-.08,0-.13.09-.13h.37c.1,0,.17-.01.22-.05.04-.04.06-.1.06-.19v-1.18c0-.08-.03-.13-.06-.18-.05-.05-.1-.06-.18-.06h-1.32c-.08,0-.13-.03-.18-.06s-.06-.1-.06-.18v-1.73c0-.08.03-.13.06-.18s.1-.06.18-.06h3.98c.08,0,.13.03.18.06.05.05.06.1.06.18v1.73c0,.08-.03.13-.06.18-.05.05-.1.06-.18.06h-1.32c-.08,0-.13.03-.18.06s-.06.1-.06.18v1.5c0,.15-.03.27-.06.37-.05.1-.1.18-.19.23s-.18.1-.28.12c-.12.03-.23.04-.37.04h-.4c-.09,0-.14-.05-.15-.14h-.03ZM108.12,3.43h2.28c.08,0,.13-.03.18-.06.05-.05.06-.1.06-.18v-.32c0-.08-.03-.13-.06-.18-.05-.05-.1-.06-.18-.06h-2.28c-.08,0-.13.03-.18.06-.05.05-.06.1-.06.18v.32c0,.08.03.13.06.18.05.05.1.06.18.06ZM111.77,6.28c-.27-.18-.54-.38-.78-.6-.24-.23-.47-.46-.69-.7-.05-.05-.08-.12-.06-.18,0-.06.04-.12.1-.17l.26-.19s.09-.05.15-.05c.08,0,.14.03.19.09.2.23.42.43.66.63s.49.37.74.54c.05.04.09.08.09.12,0,.05-.01.09-.06.14-.03.03-.05.05-.08.08s-.05.05-.08.08c-.03.04-.05.06-.06.09-.03.03-.05.05-.06.08-.05.06-.12.1-.19.1-.04,0-.08-.01-.13-.04Z"/><path class="cls-3" d="M115.69,6.49h0v-.03l-.04-.06h0v-.03c-.04-.05-.06-.1-.1-.15-.04-.05-.06-.1-.1-.14-.03-.03-.04-.05-.05-.06s-.03-.04-.04-.05c-.06-.08-.05-.13.04-.15.32-.12.61-.27.91-.46.29-.18.56-.4.79-.64s.45-.51.61-.81.31-.61.38-.95c.01-.08,0-.15-.04-.2s-.1-.08-.19-.08h-2.16c-.08,0-.13-.03-.18-.06-.05-.05-.06-.1-.06-.18v-.33c0-.08.03-.13.06-.18s.1-.06.18-.06h2.24c.08,0,.13-.03.18-.06.05-.05.06-.1.06-.18V.33c0-.08.03-.13.06-.18s.1-.06.18-.06h.42c.08,0,.13.03.18.06.05.05.06.1.06.18v1.29c0,.08.03.13.06.18.05.05.1.06.18.06h2.24c.08,0,.13.03.18.06.05.05.06.1.06.18v.33c0,.08-.03.13-.06.18s-.1.06-.18.06h-2.16c-.09,0-.15.03-.19.08-.05.05-.05.12-.04.2.09.32.22.63.4.92s.38.56.63.81.5.46.79.64c.29.19.59.33.89.45.09.04.1.1.04.17-.01.01-.03.04-.05.05-.01.01-.04.04-.05.06-.04.05-.08.1-.1.15-.04.05-.06.1-.1.15-.01.03-.04.05-.05.06,0,.03-.03.04-.04.05-.03.04-.05.06-.09.09-.04.01-.08,0-.12,0-.23-.12-.47-.24-.7-.4-.23-.15-.46-.32-.66-.5-.22-.18-.41-.38-.59-.59s-.33-.43-.47-.66c-.08-.15-.17-.23-.27-.23-.09,0-.18.08-.27.23-.13.23-.28.45-.47.65-.18.2-.38.41-.59.59-.22.18-.43.35-.66.5s-.47.28-.7.41c-.04.01-.08.03-.12,0-.04-.01-.06-.04-.09-.08h-.04Z"/><path class="cls-3" d="M126.73,6.43s-.01-.06-.03-.1,0-.06-.03-.1c0-.04-.01-.08-.03-.1,0-.04-.01-.06-.03-.09-.01-.05-.01-.1,0-.14.03-.04.06-.05.13-.05h.51c.1,0,.17-.01.2-.05.04-.03.06-.09.06-.19v-.5c0-.08-.03-.13-.06-.18s-.1-.06-.18-.06h-2.31c-.08,0-.13-.03-.18-.06s-.06-.1-.06-.18v-.24c0-.08.03-.13.06-.18.05-.05.1-.06.18-.06h2.35s.12-.01.15-.05.05-.09.05-.15v-.05c0-.1.05-.15.17-.15h.08s.1-.01.15-.05l.22-.17s.01-.01.03-.01h.01s.09-.08.09-.08c0,0,.03-.03.04-.03.05-.04.06-.08.05-.1,0-.03-.05-.04-.1-.04h-1.99c-.08,0-.13-.03-.18-.06-.05-.05-.06-.1-.06-.18v-.22c0-.08.03-.13.06-.18s.1-.06.18-.06h3.28c.06,0,.13.03.17.08l.09.09s.08.1.08.17-.03.12-.08.15c-.1.09-.19.19-.29.27s-.2.17-.31.26c-.08.06-.15.13-.22.18s-.14.12-.2.17c-.04.03-.06.05-.09.06-.03.03-.05.04-.09.06-.12.09-.1.13.04.13h2.19c.08,0,.13.03.18.06s.06.1.06.18v.24c0,.08-.03.13-.06.18-.05.05-.1.06-.18.06h-2.2c-.08,0-.13.03-.18.06s-.06.1-.06.18v.79c0,.5-.31.74-.91.74h-.54c-.06,0-.13-.03-.17-.05-.04-.04-.06-.09-.08-.15l.03-.03ZM124.83,2.82v-1.2c0-.08.03-.13.06-.18s.1-.06.18-.06h.59c.08,0,.14-.03.17-.06.03-.05.03-.1,0-.18-.03-.04-.04-.08-.06-.13-.03-.04-.05-.09-.06-.13-.03-.04-.05-.08-.08-.12-.03-.04-.05-.06-.08-.1-.04-.06-.05-.13-.04-.18,0-.05.05-.1.13-.13l.33-.15s.1-.03.15-.01c.05,0,.09.04.13.09.01.03.04.05.05.08s.04.06.06.09l.24.4s.04.06.05.09.03.05.04.09c.03.05.03.1,0,.15-.01.05-.05.09-.1.1h-.04c-.06.04-.1.06-.1.08s.04.03.12.03h.81s.1-.01.13-.05.03-.08,0-.13c0-.03-.03-.06-.04-.09s-.03-.06-.04-.1c0-.01-.03-.05-.05-.09s-.04-.09-.06-.14c-.03-.05-.05-.09-.08-.13-.03-.04-.04-.06-.05-.08l-.04-.09s-.01-.03-.03-.04c-.04-.05-.05-.09-.04-.13,0-.04.05-.08.1-.09l.42-.15s.1-.03.14,0c.05.01.09.04.12.08.03.03.05.06.06.09.03.04.04.06.06.1.04.08.08.14.12.22.04.08.08.14.12.22.01.04.03.06.04.1.01.03.03.06.04.09.03.05.03.12,0,.17s-.06.09-.13.12l-.09.04c-.18.08-.18.12.03.12h.5c.09,0,.15-.04.2-.12.08-.13.15-.27.23-.41s.14-.27.22-.41c.01-.04.04-.08.05-.12s.04-.08.05-.12c.03-.05.06-.09.12-.12s.12-.04.17-.01l.37.1c.09.03.14.06.17.13s.03.13-.01.22c-.05.1-.1.19-.15.29-.05.1-.1.19-.17.29-.05.08-.06.15-.04.19s.09.08.19.08h.78c.08,0,.13.03.18.06.05.05.06.1.06.18v1.2c0,.08-.03.13-.06.18s-.1.06-.18.06h-.33c-.08,0-.13-.03-.18-.06s-.06-.1-.06-.18v-.51c0-.08-.03-.13-.06-.18s-.1-.06-.18-.06h-4.12c-.08,0-.13.03-.18.06-.05.05-.06.1-.06.18v.51c0,.08-.03.13-.06.18s-.1.06-.18.06h-.32c-.08,0-.13-.03-.18-.06-.05-.05-.06-.1-.06-.18l.04-.04Z"/><path class="cls-3" d="M136.86,6.35v-.69c0-.08-.03-.13-.06-.18-.05-.05-.1-.06-.18-.06h-.65c-.08,0-.13-.03-.18-.06s-.06-.1-.06-.18v-.31c0-.08.03-.13.06-.18.05-.05.1-.06.18-.06h.65c.08,0,.13-.03.18-.06.05-.05.06-.1.06-.18v-.83c0-.2-.04-.31-.12-.31-.06,0-.14.06-.23.19-.28.37-.59.72-.91,1.05s-.66.64-1.04.92c-.04.04-.09.05-.14.05-.06,0-.13-.03-.18-.09-.05-.05-.1-.1-.15-.17-.05-.05-.1-.1-.15-.15-.1-.09-.1-.18.01-.26.46-.29.88-.64,1.25-1.04.37-.4.72-.82,1.04-1.25.08-.12.1-.2.05-.27-.04-.06-.13-.1-.26-.1h-1.71c-.08,0-.13-.03-.18-.06s-.06-.1-.06-.18v-.28c0-.08.03-.13.06-.18.05-.05.1-.06.18-.06h2.29c.08,0,.13-.03.18-.06.05-.05.06-.1.06-.18V.29c0-.08.03-.13.06-.18s.1-.06.18-.06h.36c.08,0,.13.03.18.06.05.05.06.1.06.18v.83c0,.08.03.13.06.18s.1.06.18.06h2.29c.08,0,.13.03.18.06.05.05.06.1.06.18v.28c0,.08-.03.13-.06.18-.05.05-.1.06-.18.06h-1.73c-.13,0-.22.04-.26.1-.04.06-.01.15.05.26.31.45.66.86,1.05,1.25.38.38.81.73,1.25,1.04.12.08.12.15.01.26l-.15.15c-.05.05-.1.1-.15.17-.05.06-.12.09-.19.09-.05,0-.1-.01-.14-.05-.37-.28-.72-.59-1.05-.92s-.63-.69-.91-1.05c-.09-.13-.17-.19-.23-.19-.08,0-.12.1-.12.31v.84c0,.08.03.13.06.18s.1.06.18.06h.68c.08,0,.13.03.18.06s.06.1.06.18v.31c0,.08-.03.13-.06.18-.05.05-.1.06-.18.06h-.68c-.08,0-.13.03-.18.06s-.06.1-.06.18v.69c0,.08-.03.13-.06.18s-.1.06-.18.06h-.36c-.08,0-.13-.03-.18-.06-.05-.05-.06-.1-.06-.18h.03Z"/><path class="cls-3" d="M143.69,6.43s-.05-.05-.06-.08-.05-.05-.06-.08l-.08-.08s-.05-.05-.08-.06c-.09-.09-.09-.17,0-.24.24-.17.45-.37.63-.61s.33-.49.45-.75c.04-.1.04-.17,0-.22-.04-.05-.12-.06-.22-.05l-.33.05c-.06,0-.13.01-.19.03-.06,0-.12.01-.18.03-.15.01-.24-.05-.27-.2l-.05-.33s0-.1.03-.14.08-.05.13-.06h.06s.08-.01.1-.04.06-.05.08-.08l.22-.33s.08-.12.1-.17c.04-.05.06-.12.1-.19.04-.05.05-.1.04-.17,0-.05-.04-.1-.09-.14-.03-.03-.06-.05-.09-.08s-.06-.05-.1-.08l-.38-.28s-.05-.04-.08-.05c-.03-.01-.05-.04-.08-.05-.1-.06-.13-.15-.06-.27l.26-.42s.05-.05.09-.03l.13.09s.08.03.1-.03l.2-.36.26-.51s.04-.08.05-.12c.03-.04.04-.08.05-.1.05-.09.13-.14.22-.14.04,0,.08,0,.1.03l.26.12s.08.05.09.09,0,.08-.01.13l-.29.55-.41.68s-.03.09.03.13l.13.1s.08.03.1-.03c.04-.06.08-.13.1-.19s.06-.13.1-.19l.09-.18c.04-.08.1-.1.18-.1.03,0,.06,0,.09.03l.12.05s.1.04.14.04c.1,0,.15-.08.15-.22v-.58c0-.08.03-.13.06-.18.05-.05.1-.06.18-.06h1.47c.08,0,.13.03.18.06.05.05.06.1.06.18v2.79c0,.08-.03.13-.06.18-.05.05-.1.06-.18.06h-.75c-.08,0-.13.03-.18.06-.05.05-.06.1-.06.18v1.23c0,.09.05.13.14.1l.27-.06s.06-.03.08-.05c.01-.03.01-.06,0-.1-.03-.06-.05-.13-.06-.2s-.04-.13-.06-.2l-.04-.1s0-.03-.01-.05c-.03-.05-.03-.1,0-.15.03-.05.06-.08.13-.1l.28-.08s.12-.01.17,0,.09.06.12.13c.05.13.1.27.15.42.06.22.13.42.19.63.05.2.12.42.17.63,0,.05,0,.1-.03.14s-.06.06-.12.08c-.03,0-.05.01-.08.03-.03,0-.05.01-.09.03l-.23.09c-.08.03-.13,0-.15-.09l-.03-.13-.04-.15c-.03-.1-.09-.13-.19-.1-.14.04-.28.09-.45.13-.12.04-.22.06-.33.1s-.22.06-.32.09l-.31.08c-.06.03-.13.01-.18-.01s-.09-.08-.12-.15l-.08-.24c-.03-.08-.01-.15.01-.2s.09-.09.18-.1c.03,0,.04,0,.06-.01s.05,0,.06-.01c.05-.01.1-.04.13-.09.04-.04.05-.09.05-.15V1.82c0-.12-.01-.17-.05-.17-.03,0-.06.04-.12.13-.03.05-.05.1-.09.15-.03.05-.05.1-.09.17-.13.23-.27.46-.4.68-.14.22-.28.45-.42.66-.04.05-.03.09.05.08l.22-.03s.1-.04.1-.1l.04-.2v-.15c.01-.1.08-.14.17-.13l.33.05c.06,0,.12.04.17.08.04.05.05.1.05.17-.03.29-.08.6-.17.89s-.18.59-.31.86c-.13.28-.28.54-.47.78-.18.24-.4.46-.63.65-.04.04-.08.05-.13.05-.06,0-.12-.03-.15-.08l.05.08ZM146.53,1.64h.08c.08,0,.13-.03.18-.06s.06-.1.06-.18v-.15c0-.08-.03-.13-.06-.18-.05-.05-.1-.06-.18-.06h-.08c-.08,0-.13.03-.18.06s-.06.1-.06.18v.15c0,.08.03.13.06.18.05.05.1.06.18.06ZM146.53,2.95h.08c.08,0,.13-.03.18-.06.05-.05.06-.1.06-.18v-.17c0-.08-.03-.13-.06-.18-.05-.05-.1-.06-.18-.06h-.08c-.08,0-.13.03-.18.06-.05.05-.06.1-.06.18v.17c0,.08.03.13.06.18.05.05.1.06.18.06ZM147.84,6.35V.58c0-.08.03-.13.06-.18s.1-.06.18-.06h1.56s.12.03.15.05l.12.09s.06.06.08.12v.14s-.03.06-.04.1c-.01.04-.03.08-.04.12l-.38,1.04-.24.61c-.04.1-.03.18.05.27.2.23.37.49.5.74s.19.56.19.88c0,.18-.01.35-.05.5s-.09.27-.17.38c-.08.1-.19.19-.32.24-.14.05-.29.09-.5.09h-.13c-.08,0-.13-.04-.14-.12,0-.04-.01-.09-.03-.14,0-.05-.01-.1-.03-.15-.01-.05-.03-.09-.04-.13,0-.04-.03-.08-.04-.12-.04-.08,0-.13.09-.13h.13c.1,0,.18-.01.24-.04s.1-.06.13-.12c.03-.05.05-.12.05-.18v-.23c0-.19-.04-.38-.13-.6s-.18-.4-.29-.54c-.06-.08-.12-.13-.17-.13-.08,0-.13.08-.13.24v3.03c0,.08-.03.13-.06.18-.05.05-.1.06-.18.06h-.2c-.08,0-.13-.03-.18-.06-.05-.05-.06-.1-.06-.18h.01ZM148.59,2.51l.42-1.19s.01-.05.03-.09c0-.03.01-.05.03-.08.01-.05.01-.09,0-.12s-.06-.04-.12-.04h-.17c-.08,0-.13.03-.18.06-.05.05-.06.1-.06.18v1.27s0,.09.01.1c0,0,.03-.03.05-.09h-.01Z"/><path class="cls-3" d="M155.84,6.12c0-.08-.01-.17-.03-.24l-.08-.79c0-.12-.03-.23-.04-.35,0-.12-.03-.24-.04-.36,0-.08-.04-.13-.09-.17-.05-.04-.12-.05-.18-.05-.27.04-.54.06-.81.1s-.54.06-.81.1c-.08,0-.14.03-.2.03s-.13.03-.18.03c-.08,0-.14,0-.19-.04s-.08-.09-.09-.18l-.05-.37c0-.08,0-.14.05-.19.04-.05.1-.08.18-.09l.38-.04c.13,0,.27-.03.41-.04s.29-.04.46-.05c.13,0,.24-.03.37-.04.13-.01.26-.03.37-.04.08,0,.13-.04.17-.09.04-.05.05-.1.05-.18l-.05-.47c0-.08-.04-.13-.09-.17s-.12-.05-.18-.05c-.14.01-.28.04-.41.05-.14.01-.27.04-.4.05-.1.01-.19.03-.28.04s-.17.03-.24.04c-.08,0-.15,0-.19-.04s-.08-.09-.09-.18l-.04-.37c0-.08,0-.14.05-.19.04-.05.1-.08.18-.08s.15-.01.24-.03c.09,0,.18-.01.28-.03.13,0,.26-.03.4-.04.14,0,.27-.03.41-.04.08,0,.13-.04.17-.09.04-.05.05-.12.05-.18,0-.08-.01-.14-.03-.2s-.01-.13-.03-.19c0-.04-.01-.08-.03-.12,0-.04,0-.08-.01-.1,0-.06,0-.13.04-.17.04-.05.09-.08.15-.08l.47-.06c.15-.01.23.05.24.2v.22s.03.13.03.19,0,.14.03.2c0,.08.04.14.09.18s.12.05.19.04l.78-.1c.09-.01.18-.03.26-.04s.15-.03.22-.04c.08,0,.14,0,.19.04s.08.09.09.17l.04.37c0,.08,0,.14-.05.19-.04.05-.1.08-.18.09-.06,0-.14,0-.22.01-.08,0-.15,0-.24.03-.13.01-.26.03-.4.04s-.27.03-.42.04c-.08,0-.13.04-.17.09-.04.05-.05.1-.05.18l.05.47c0,.08.04.13.09.17.05.04.12.05.18.05l.7-.09c.15-.01.29-.04.43-.05.14-.01.27-.04.4-.05l.33-.05c.08,0,.14,0,.19.04s.08.09.09.17l.04.37c0,.08,0,.14-.05.19-.04.05-.1.08-.18.09l-1.15.1h-.18l-.37.04h-.18c-.08,0-.13.04-.17.09-.04.05-.05.12-.05.18l.09.69c.04.31.08.56.1.79l.04.26c0,.08,0,.14-.04.19s-.1.08-.17.09l-.43.04c-.08,0-.14,0-.18-.05-.05-.04-.08-.1-.09-.17l.03.08Z"/><path class="cls-3" d="M165.08,6.2s0-.05-.01-.08,0-.05-.01-.09l-.26-1.3c-.01-.1-.04-.19-.05-.28-.01-.09-.04-.18-.06-.27-.01-.08-.05-.13-.1-.15s-.12-.05-.19-.04l-.63.13c-.12.01-.22.04-.31.06-.08.01-.14,0-.19-.03s-.09-.09-.1-.17l-.04-.2c-.01-.08,0-.15.04-.2s.1-.09.19-.1c.04,0,.09-.01.14-.03s.1,0,.17-.03c.18-.01.37-.05.59-.09.08,0,.14-.04.18-.09s.04-.12.03-.19c-.05-.27-.12-.52-.18-.77-.01-.06-.01-.13,0-.17.03-.05.08-.08.14-.08l.26-.05c.06,0,.13,0,.17.03.05.03.08.08.08.14.01.05.03.13.04.22l.13.6c.01.06.05.12.1.15s.12.05.18.04c.28-.05.56-.1.84-.15.28-.05.56-.12.83-.19.08-.03.15-.01.22.03l.15.1s.09.08.1.14c.01.05,0,.12-.03.17-.13.26-.27.5-.42.74s-.29.49-.45.72c-.04.05-.08.08-.14.08-.03,0-.06,0-.12-.04-.03-.01-.05-.03-.08-.04s-.05-.03-.08-.04l-.14-.08c-.1-.04-.12-.12-.05-.2s.13-.18.19-.27.13-.18.19-.28c.05-.08.06-.13.04-.17-.03-.04-.09-.05-.18-.04-.12.03-.24.05-.37.08-.13.03-.26.05-.38.08-.08.01-.13.05-.17.1s-.04.12-.03.19c.03.1.05.19.06.28.03.09.04.18.06.27l.17.74c.03.12.05.22.08.31s.05.18.08.26l.04.14c.03.09,0,.14-.1.15-.08,0-.15.01-.24.04-.09.01-.15.03-.19.05-.1.03-.17,0-.18-.1v-.03Z"/><path class="cls-3" d="M173.32,2.57s-.04-.04-.06-.05c-.03-.01-.05-.04-.06-.06-.15-.12-.31-.24-.46-.36s-.32-.22-.49-.32c-.1-.06-.13-.14-.05-.24l.33-.42s.1-.09.18-.09c.04,0,.08,0,.12.04.17.1.33.2.49.31.15.12.31.22.46.33.03.03.05.05.08.06s.05.04.08.05c.04.04.06.08.06.13s-.01.1-.05.14l-.37.43s-.08.06-.13.06c-.04,0-.08-.01-.12-.05v.04ZM172.59,5.69l-.23-.42c-.05-.09-.05-.17-.03-.23s.09-.12.19-.14c.37-.12.77-.27,1.18-.47s.83-.45,1.24-.72.79-.56,1.15-.87c.36-.31.65-.61.91-.92.05-.08.1-.08.14.03,0,.03.01.05.03.08s.01.05.03.08c.03.08.06.17.09.24.04.09.08.17.12.23.05.09.04.18-.03.24-.24.31-.55.6-.91.91-.36.29-.74.59-1.14.84s-.82.51-1.24.72c-.42.22-.82.38-1.2.51-.05.03-.12.03-.17,0s-.09-.06-.13-.12h0Z"/><path class="cls-3" d="M181.3,4.97s-.12-.12-.18-.17-.13-.12-.19-.15c-.13-.09-.13-.19,0-.29.37-.29.7-.64,1-1.04.28-.41.51-.83.66-1.28.05-.17.17-.22.32-.17l.4.14c.06.03.12.06.14.12.03.05.03.12,0,.18-.17.51-.41,1-.72,1.47-.31.47-.66.88-1.09,1.23-.04.04-.1.05-.15.05-.08,0-.13-.03-.18-.08h-.01ZM186.19,4.68c-.15-.33-.33-.66-.51-.97-.19-.32-.4-.61-.63-.92-.09-.12-.18-.2-.26-.31-.06-.06-.09-.14-.09-.2,0-.08.05-.14.13-.19l.29-.2s.09-.05.14-.05c.06,0,.12.03.17.08.27.27.52.56.75.87.23.31.45.61.64.95.05.09.09.17.14.26.05.08.09.17.13.24.04.06.04.13.03.18s-.06.1-.13.13c-.04.03-.08.04-.1.05-.04.01-.06.04-.1.06-.1.05-.18.09-.24.14-.05.03-.09.04-.14.04-.09,0-.15-.05-.19-.15h-.03ZM186.3,1.74c-.1,0-.19-.01-.28-.05s-.17-.09-.23-.15-.12-.14-.15-.23c-.04-.09-.05-.18-.05-.28s.01-.19.05-.28.09-.17.15-.23.14-.12.23-.15.18-.05.28-.05c.2,0,.37.06.51.2s.2.31.2.51-.06.37-.2.51-.31.2-.51.2ZM186.3,1.43c.12,0,.22-.04.28-.13.08-.08.12-.18.12-.28s-.04-.2-.12-.28-.17-.13-.28-.13-.2.04-.29.13c-.08.08-.12.18-.12.28s.04.2.12.28.18.13.29.13Z"/><path class="cls-3" d="M190.87,5.78c-.04-.06-.09-.13-.13-.19-.04-.06-.09-.13-.14-.18-.1-.12-.08-.2.05-.27.31-.14.61-.32.92-.52s.61-.43.89-.69.56-.52.81-.81c.26-.28.47-.58.65-.87.06-.1.08-.18.04-.23s-.12-.09-.23-.08l-.38.03-.83.05c-.14,0-.27.01-.4.03-.13,0-.24.01-.36.03l-.28.03c-.08,0-.13,0-.18-.05-.05-.04-.08-.1-.09-.17l-.04-.41c0-.08,0-.14.05-.19.04-.05.1-.08.19-.08h.27c.12,0,.24-.01.38-.01s.28,0,.42-.01l.89-.04c.2,0,.41-.03.61-.04s.41-.04.61-.06c.06,0,.12,0,.17.04l.35.22s.08.06.1.13.01.1,0,.15c-.12.28-.23.54-.37.79s-.31.5-.47.74c-.04.05-.06.12-.05.18s.04.12.1.17c.28.23.56.47.84.73.27.26.54.52.78.79.05.05.08.1.06.17,0,.06-.04.12-.1.17-.04.03-.06.05-.09.08s-.06.05-.09.08l-.09.09s-.05.05-.09.08c-.05.05-.1.08-.15.08s-.12-.04-.17-.1c-.03-.04-.06-.08-.09-.12-.04-.04-.06-.08-.1-.13-.19-.22-.38-.42-.59-.63l-.26-.26c-.06-.06-.14-.13-.2-.2-.06-.06-.14-.13-.22-.19-.05-.04-.1-.06-.15-.06-.06,0-.12.03-.17.08-.33.35-.7.66-1.1.97-.4.31-.81.56-1.24.79-.04.01-.08.03-.13.03-.09,0-.15-.04-.2-.12h-.03Z"/><path class="cls-3" d="M98.6,14.7c-.5,0-.91-.14-1.23-.42s-.49-.65-.49-1.14v-3.02h.88v2.94c0,.23.06.42.2.56s.35.2.63.2.5-.06.63-.2c.13-.14.2-.32.2-.56v-2.94h.88v3.02c0,.47-.15.86-.49,1.14-.32.28-.73.42-1.24.42h.01Z"/><path class="cls-3" d="M105.4,10.14v.84h-1.21v3.63h-.88v-3.63h-1.2v-.84h3.3Z"/><path class="cls-3" d="M109.91,14.21c-.33.32-.73.49-1.2.49s-.87-.17-1.2-.49c-.32-.33-.49-.73-.49-1.2s.17-.87.49-1.2.73-.49,1.2-.49.87.17,1.2.49c.33.32.49.73.49,1.2s-.17.87-.49,1.2ZM108.1,13.65c.17.17.37.26.61.26s.46-.09.63-.26.26-.37.26-.64-.08-.47-.26-.64-.37-.26-.63-.26-.45.09-.61.26c-.17.17-.24.38-.24.64s.08.47.24.64Z"/><path class="cls-3" d="M115.28,14.61h-.96l-1.16-1.46v1.46h-.83v-4.47h.83v2.7l1.1-1.42h.98l-1.29,1.58,1.33,1.62h0Z"/><path class="cls-3" d="M119.11,11.41h.88l-1.16,3.21c-.17.46-.38.79-.66,1s-.61.29-1.02.28v-.77c.22,0,.4-.04.52-.14s.23-.26.31-.47l-1.32-3.09h.91l.83,2.15.7-2.15h.01Z"/><path class="cls-3" d="M124.45,14.21c-.33.32-.73.49-1.2.49s-.87-.17-1.2-.49c-.32-.33-.49-.73-.49-1.2s.17-.87.49-1.2.73-.49,1.2-.49.87.17,1.2.49.49.73.49,1.2-.17.87-.49,1.2ZM122.63,13.65c.17.17.37.26.61.26s.46-.09.63-.26.26-.37.26-.64-.08-.47-.26-.64-.37-.26-.63-.26-.45.09-.61.26-.24.38-.24.64.08.47.24.64Z"/><path class="cls-3" d="M130.45,15.26c-.47-.93-.7-1.9-.7-2.88s.23-1.94.7-2.88h.83c-.47.93-.7,1.89-.7,2.88s.23,1.94.7,2.88h-.83Z"/><path class="cls-3" d="M135.68,10.14h.88v4.47h-.88v-1.85h-1.66v1.85h-.88v-4.47h.88v1.78h1.66v-1.78Z"/><path class="cls-3" d="M141.41,14.21c-.33.32-.73.49-1.2.49s-.87-.17-1.2-.49c-.32-.33-.49-.73-.49-1.2s.17-.87.49-1.2.73-.49,1.2-.49.87.17,1.2.49.49.73.49,1.2-.17.87-.49,1.2ZM139.59,13.65c.17.17.37.26.61.26s.46-.09.63-.26.26-.37.26-.64-.08-.47-.26-.64-.37-.26-.63-.26-.45.09-.61.26-.24.38-.24.64.08.47.24.64Z"/><path class="cls-3" d="M145.6,11.32c.35,0,.64.12.87.36.23.23.35.56.35.97v1.97h-.83v-1.87c0-.22-.05-.37-.18-.49-.12-.12-.27-.17-.46-.17-.22,0-.38.06-.51.2-.13.13-.19.33-.19.59v1.73h-.83v-3.2h.83v.36c.2-.29.52-.45.96-.45h0Z"/><path class="cls-3" d="M151.3,11.41h.81v3.04c0,.5-.17.87-.49,1.14s-.72.4-1.18.4c-.35,0-.65-.06-.91-.2s-.46-.32-.6-.59l.7-.41c.17.29.43.45.84.45.26,0,.46-.06.61-.2s.22-.33.22-.59v-.35c-.24.32-.59.49-1.02.49s-.83-.15-1.14-.47c-.31-.32-.46-.7-.46-1.16s.15-.84.46-1.16.69-.49,1.14-.49.78.17,1.02.49v-.4.03ZM149.77,13.6c.17.17.38.24.64.24s.47-.08.64-.24c.17-.17.26-.37.26-.63s-.09-.46-.26-.63-.38-.24-.64-.24-.47.08-.64.24c-.17.17-.26.37-.26.63s.09.46.26.63Z"/><path class="cls-3" d="M156.91,14.21c-.33.32-.73.49-1.2.49s-.87-.17-1.2-.49c-.32-.33-.49-.73-.49-1.2s.17-.87.49-1.2.73-.49,1.2-.49.87.17,1.2.49.49.73.49,1.2-.17.87-.49,1.2ZM155.1,13.65c.17.17.37.26.61.26s.46-.09.63-.26.26-.37.26-.64-.08-.47-.26-.64-.37-.26-.63-.26-.45.09-.61.26-.24.38-.24.64.08.47.24.64Z"/><path class="cls-3" d="M164.43,14.7c-.68,0-1.23-.23-1.67-.68-.43-.45-.66-1-.66-1.66s.22-1.21.66-1.66,1-.66,1.67-.66c.41,0,.78.09,1.12.28s.61.45.81.77l-.77.45c-.12-.2-.27-.36-.47-.47-.2-.12-.43-.17-.69-.17-.43,0-.79.14-1.05.41-.27.27-.4.63-.4,1.06s.13.78.4,1.06c.27.27.61.41,1.05.41.26,0,.49-.05.69-.17s.36-.27.47-.46l.77.45c-.19.32-.46.59-.79.77-.35.19-.72.28-1.12.28h-.01Z"/><path class="cls-3" d="M170.68,11.41h.83v3.2h-.83v-.37c-.24.31-.6.47-1.05.47s-.79-.17-1.1-.49c-.31-.33-.46-.73-.46-1.2s.15-.87.46-1.2.66-.49,1.1-.49.79.15,1.05.47v-.38h0ZM169.16,13.66c.17.17.38.26.64.26s.47-.09.64-.26.26-.38.26-.65-.09-.49-.26-.65-.38-.26-.64-.26-.47.09-.64.26-.26.38-.26.65.09.49.26.65Z"/><path class="cls-3" d="M177.12,11.32c.37,0,.66.12.88.36s.33.56.33.96v1.97h-.83v-1.92c0-.19-.05-.35-.14-.45s-.23-.15-.4-.15c-.19,0-.33.06-.43.18-.1.13-.15.31-.15.54v1.8h-.83v-1.92c0-.19-.05-.35-.14-.45s-.23-.15-.4-.15c-.18,0-.33.06-.43.18-.1.13-.17.31-.17.54v1.8h-.83v-3.2h.83v.35c.19-.28.49-.42.89-.42s.68.15.87.46c.22-.31.54-.46.96-.46h-.01Z"/><path class="cls-3" d="M182.23,11.32c.43,0,.79.17,1.1.49s.46.73.46,1.2-.15.87-.46,1.2c-.31.32-.68.49-1.1.49s-.79-.15-1.04-.47v1.66h-.83v-4.47h.83v.38c.24-.31.59-.47,1.04-.47ZM181.45,13.66c.17.17.38.26.64.26s.47-.09.64-.26.26-.38.26-.65-.09-.49-.26-.65-.38-.26-.64-.26-.47.09-.64.26-.24.38-.24.65.08.49.24.65Z"/><path class="cls-3" d="M187.83,11.41h.83v3.2h-.83v-.36c-.2.29-.52.45-.96.45-.35,0-.64-.12-.87-.36-.23-.23-.35-.56-.35-.97v-1.97h.83v1.87c0,.22.05.37.17.49s.27.17.46.17c.22,0,.38-.06.51-.2.13-.13.19-.33.19-.6v-1.73.03Z"/><path class="cls-3" d="M191.5,12.32c0,.09.05.15.17.2s.26.1.41.14c.17.04.32.09.49.15s.29.17.41.31.17.32.17.55c0,.33-.13.58-.37.75s-.55.27-.92.27c-.65,0-1.1-.26-1.34-.77l.72-.41c.09.28.31.42.63.42.29,0,.45-.09.45-.27,0-.09-.05-.15-.17-.2s-.26-.1-.41-.14c-.17-.04-.32-.1-.49-.15-.17-.06-.29-.17-.41-.31s-.17-.31-.17-.52c0-.32.12-.56.35-.74s.52-.27.87-.27c.26,0,.5.06.7.18s.38.28.51.5l-.7.38c-.1-.22-.27-.32-.51-.32-.1,0-.19.03-.27.06-.08.05-.1.12-.1.19h0Z"/><path class="cls-3" d="M195.6,15.26h-.83c.47-.93.7-1.9.7-2.88s-.23-1.94-.7-2.88h.83c.47.93.7,1.89.7,2.88s-.23,1.94-.7,2.88Z"/><path class="cls-3" d="M96.66,21.08l-.23-.08h-.06s-.05-.05-.04-.09c.04-.12.06-.23.08-.35.03-.12.04-.23.06-.35,0-.08.01-.15.03-.22,0-.06.01-.14.03-.22v-.18c0-.12.06-.17.18-.15h.09s.09.04.13.08c.03.04.04.08.04.13-.01.23-.05.46-.09.69-.04.23-.09.45-.14.68,0,.04-.04.05-.08.04h.01ZM97.17,23.31v-4.68s.01-.1.05-.14.08-.05.14-.05h.13s.1.01.14.05.05.08.05.14v.64c0,.08.03.1.06.1.03,0,.05,0,.08-.03h.03s.06-.05.09-.05c.05,0,.09.03.13.06l.09.12.18.26s.05.08.06.1c.01.03.03.06.01.09,0,.04-.03.06-.05.09l-.08.05s-.08.06-.06.09c0,.03.04.04.1.04h1.01c.1,0,.15-.05.15-.15s-.05-.15-.15-.15h-.65s-.09-.01-.13-.05-.05-.08-.05-.13.01-.09.05-.13.08-.05.13-.05h.66s.08-.01.1-.04.04-.06.04-.1-.01-.08-.04-.1c-.03-.03-.06-.04-.1-.04h-.93s-.1-.01-.13-.05c-.04-.04-.05-.08-.05-.14s.01-.1.05-.13c.04-.04.08-.05.13-.05h.88s.1-.01.14-.05.05-.08.05-.14v-.05s.01-.1.05-.14.08-.05.14-.05h.13s.1.01.14.05.05.08.05.14v.05s.01.1.05.14.08.05.14.05h.93s.1.01.13.05.05.08.05.13-.01.1-.05.14-.08.05-.13.05h-.97s-.08.01-.1.04-.04.06-.04.1c0,.05.01.08.04.1.03.03.06.04.1.04h.68s.09.01.13.05c.04.04.05.08.05.13s-.01.09-.05.13c-.04.04-.08.05-.13.05h-.66c-.1,0-.15.05-.15.15s.05.15.15.15h1.19s.09.01.13.05c.04.04.05.08.05.13s-.01.1-.05.14c-.04.04-.08.05-.13.05h-3.12s-.1-.01-.13-.05c-.04-.04-.05-.08-.05-.14v-.14s.01-.04.05-.04.04,0,.01-.04c-.04-.08-.09-.15-.13-.24-.05-.08-.1-.15-.15-.23-.03-.04-.05-.06-.08-.06s-.04.04-.04.1v3.58s-.01.1-.05.14-.08.05-.14.05h-.13s-.1-.01-.14-.05-.05-.08-.05-.14h-.04ZM98.52,23.31v-2.29s.01-.1.05-.14.08-.05.14-.05h2.1s.1.01.14.05.05.08.05.14v1.97c0,.19-.05.33-.17.41s-.26.1-.43.1h-.29c-.08,0-.12-.04-.13-.12v-.12h0v-.09s-.01-.03-.03-.03c-.01-.08,0-.12.09-.12h.28c.08,0,.13,0,.15-.04.03-.03.04-.06.04-.14v-.15s-.01-.08-.04-.1-.06-.04-.1-.04h-1.11s-.1.01-.14.05-.05.08-.05.14v.58s-.01.1-.05.14-.08.05-.14.05h-.13s-.1-.01-.14-.05-.05-.08-.05-.14l-.04-.03ZM99.19,21.52h1.14c.1,0,.15-.05.15-.17s-.05-.15-.15-.15h-1.14c-.1,0-.17.05-.17.15s.05.17.17.17ZM99.2,22.2h1.12s.09-.01.12-.05.05-.06.05-.13c0-.05-.01-.09-.05-.12s-.06-.05-.12-.05h-1.12s-.09.01-.13.05-.05.06-.05.12.01.09.05.13.08.05.13.05Z"/><path class="cls-3" d="M103.6,20.14v-.05s.01-.1.05-.14c.04-.04.08-.05.14-.05h.7s.1-.01.14-.05.05-.08.05-.14v-.09s-.01-.1-.05-.14-.08-.05-.14-.05h-.49s-.1-.01-.14-.05-.05-.08-.05-.14v-.04s.01-.1.05-.14c.04-.04.08-.05.14-.05h.49s.1-.01.14-.05.05-.08.05-.14v-.22s.01-.1.05-.14.08-.05.14-.05h.09s.1.01.14.05.05.08.05.14v.22s.01.1.05.14c.04.04.08.05.14.05h.47s.1.01.14.05.05.08.05.14v.04s-.01.1-.05.14-.08.05-.14.05h-.47s-.1.01-.14.05-.05.08-.05.14v.09s.01.1.05.14c.04.04.08.05.14.05h.69s.1.01.14.05.05.08.05.14v.05s-.01.1-.05.14-.08.05-.14.05h-2.25s-.1-.01-.14-.05-.05-.08-.05-.14ZM104.68,23.3v-.66s-.01-.1-.05-.14-.08-.05-.14-.05h-.55s-.1-.01-.14-.05-.05-.08-.05-.14v-.05s.01-.1.05-.14.08-.05.14-.05h.55s.1-.01.14-.05.05-.08.05-.14v-.12s-.01-.1-.05-.14-.08-.05-.14-.05h-.64s-.1-.01-.14-.05-.05-.08-.05-.14v-.05s.01-.1.05-.14c.04-.04.08-.05.14-.05h.26s.09-.01.1-.04c.03-.03.03-.06,0-.12,0-.03-.01-.05-.03-.08,0-.03-.03-.05-.04-.08,0-.03-.03-.05-.03-.06,0-.03-.01-.05-.03-.06-.05-.09-.03-.14.08-.17l.13-.04c.1-.03.18,0,.22.1,0,.03.03.06.04.09,0,.04.03.06.04.1s.03.08.04.12c0,.04.03.06.04.1.03.09.09.14.18.14h.12s.08,0,.1-.03c.04-.03.05-.05.06-.09.03-.06.05-.14.08-.2.03-.08.05-.14.06-.22.03-.1.1-.15.22-.13l.12.03s.08.04.1.06c.03.04.03.08,0,.12l-.05.14s-.03.05-.04.08c0,.03-.03.05-.04.08-.01.05-.03.09,0,.12.01.03.05.04.1.04h.26s.1.01.14.05.05.08.05.14v.05s-.01.1-.05.14-.08.05-.14.05h-.63s-.1.01-.14.05-.05.08-.05.14v.12s.01.1.05.14c.04.04.08.05.14.05h.54s.1.01.14.05.05.08.05.14v.05s-.01.1-.05.14-.08.05-.14.05h-.54s-.1.01-.14.05-.05.08-.05.14v.66s-.01.1-.05.14-.08.05-.14.05h-.09s-.1-.01-.14-.05-.05-.08-.05-.14h.04ZM106.35,23.3v-4.52s.01-.1.05-.14.08-.05.14-.05h1.66s.1.01.14.05.05.08.05.14v.87c0,.2-.05.35-.14.45s-.24.15-.45.15h-.31c-.09,0-.14-.04-.14-.13v-.13s-.03-.04-.03-.05v-.05c-.04-.08,0-.1.06-.1h.32c.08,0,.13,0,.15-.04.04-.03.05-.08.05-.15v-.36s-.01-.1-.05-.14-.08-.05-.14-.05h-.7s-.1.01-.14.05-.05.08-.05.14v1.06s.01.1.05.14.08.05.14.05h1.28s.1.01.14.05.05.09.04.14c-.01.28-.06.55-.13.81s-.17.5-.28.72c-.01.04-.03.06-.03.12,0,.04.01.08.04.1.09.1.19.2.29.29s.2.18.32.26c.06.04.06.09,0,.15,0,.01-.03.03-.04.04,0,0-.03.03-.04.05-.04.04-.06.06-.09.1-.03.04-.06.05-.1.05-.03,0-.06-.03-.13-.06-.05-.04-.12-.09-.17-.14s-.12-.1-.17-.15-.09-.09-.1-.1c-.05-.05-.09-.08-.15-.08s-.1.03-.14.08c-.06.08-.13.15-.22.22-.08.08-.15.14-.24.2-.05.04-.09.04-.13,0l-.13-.13s-.08-.03-.08.03v.09s-.01.1-.05.14-.08.05-.13.05h-.1s-.1-.01-.14-.05-.05-.08-.05-.14h.04ZM107.11,22.73s.1-.1.14-.15c.05-.05.09-.1.13-.15.05-.06.05-.14,0-.2-.19-.37-.33-.78-.42-1.23,0-.04-.04-.06-.08-.06s-.06.03-.06.06v1.61c0,.15.04.22.13.22.05,0,.1-.03.17-.09ZM107.82,21.64c.06-.15.1-.33.14-.51,0-.06,0-.12-.04-.15-.04-.04-.09-.06-.15-.06h-.15c-.06,0-.12.03-.15.06s-.04.09-.03.17c0,.04.03.09.04.14,0,.05.03.09.05.13,0,.01,0,.05.03.09s.03.08.05.12c.01.04.04.06.05.1.03.03.04.04.06.04.04,0,.08-.04.1-.1h0Z"/><path class="cls-3" d="M112.46,23.39s0-.04-.01-.06c0-.03,0-.04-.01-.06s-.01-.04-.01-.06,0-.04-.01-.06c-.01-.08,0-.12.09-.12h.46c.08,0,.13,0,.17-.04s.05-.08.05-.15v-.58s-.01-.1-.05-.14-.08-.05-.14-.05h-1.85s-.1-.01-.14-.05-.05-.08-.05-.14v-.06s.01-.1.05-.14.08-.05.14-.05h1.85s.1-.01.14-.05.05-.08.05-.14v-.09c0-.08.04-.12.12-.12h.06s.08,0,.1-.04l.27-.18s.05-.04.08-.05.05-.04.08-.05c.05-.04.06-.06.06-.09s-.04-.04-.1-.04h-1.74s-.1-.01-.14-.05-.05-.08-.05-.14v-.05s.01-.1.05-.14.08-.05.14-.05h2.58s.1.01.14.05l.05.05s.05.08.05.12-.01.08-.05.1c-.18.15-.37.31-.56.45s-.4.27-.59.4c-.03,0-.04.04-.04.06s.01.05.05.05h1.9s.1.01.14.05.05.08.05.14v.06s-.01.1-.05.14-.08.05-.14.05h-1.76s-.1.01-.14.05-.05.08-.05.14v.72c0,.35-.2.52-.61.52h-.46c-.09,0-.14-.04-.14-.13v.03ZM111,20.57v-.86s.01-.1.05-.14.08-.05.14-.05h.59s.08,0,.09-.04c.01-.03.01-.06,0-.1l-.04-.06s-.03-.05-.04-.08c-.03-.05-.06-.1-.09-.15-.03-.05-.05-.1-.09-.14-.01-.03-.03-.04-.04-.06-.01-.03-.03-.04-.04-.06-.05-.08-.04-.13.04-.18l.18-.09s.08-.03.13-.01.08.04.1.06c.01.01.04.04.05.06.01.03.03.05.05.08.06.09.13.19.19.31.01.03.03.05.04.08s.03.04.04.06c.01.04.03.08,0,.12s-.04.06-.09.09l-.06.03s-.09.05-.09.06.04.03.1.03h1.71s.05,0,.09-.01c.03-.01.05-.04.06-.06.1-.13.18-.27.27-.41.08-.14.15-.28.23-.43.05-.1.13-.14.23-.12l.14.04s.1.05.13.1.01.1,0,.15c-.05.09-.1.17-.14.26-.05.09-.1.17-.14.26-.05.06-.05.13-.04.17.03.04.08.06.15.06h.65s.1.01.14.05.05.08.05.14v.86s-.01.1-.05.14-.08.05-.14.05h-.12s-.1-.01-.14-.05-.05-.08-.05-.14v-.43s-.01-.1-.05-.14-.08-.05-.14-.05h-3.4s-.1.01-.14.05-.05.08-.05.14v.43s-.01.1-.05.14-.08.05-.14.05h-.1s-.1-.01-.14-.05-.05-.08-.05-.14h.01ZM113.13,19.34c-.03-.09-.06-.17-.1-.24-.04-.08-.08-.15-.12-.23-.01-.03-.04-.05-.04-.08s-.03-.05-.04-.06c-.06-.09-.04-.15.05-.19l.18-.06s.08-.03.12,0c.04,0,.06.04.09.06.01.03.04.05.05.06,0,.03.03.05.05.08.05.08.09.15.13.23.04.08.08.17.1.24.01.04.01.08,0,.12s-.05.06-.09.09l-.18.08s-.09.03-.12,0c-.04-.01-.06-.05-.08-.09h-.01Z"/><path class="cls-3" d="M118.02,22.52l-.05-.14s-.01-.09,0-.13.05-.06.1-.08c.03,0,.06-.01.09-.03.03,0,.06-.01.09-.03.05-.01.09-.03.14-.04s.1-.03.15-.04c.04,0,.08-.04.1-.06.03-.04.04-.08.04-.12v-.96s-.01-.1-.05-.14-.08-.05-.14-.05h-.2s-.1-.01-.14-.05-.05-.08-.05-.14v-.06s.01-.1.05-.14.08-.05.14-.05h.2s.1-.01.14-.05.05-.08.05-.14v-.69s-.01-.1-.05-.14-.08-.05-.14-.05h-.26s-.1-.01-.14-.05-.05-.08-.05-.14v-.06s.01-.1.05-.14.08-.05.14-.05h1.33s.1.01.14.05.05.08.05.14v.06s-.01.1-.05.14-.08.05-.14.05h-.2s-.1.01-.14.05-.05.08-.05.14v.69s.01.1.05.14.08.05.14.05h.12s.1.01.14.05.05.08.05.14v.06s-.01.1-.05.14-.08.05-.14.05h-.12s-.1.01-.14.05-.05.08-.05.14v.77s.01.09.05.12.08.03.13,0l.17-.05s.05-.01.08-.03c.03,0,.05-.01.06-.03.04-.01.08-.01.1,0s.04.05.04.09v.18s0,.08-.04.1-.05.05-.09.06c-.12.04-.24.09-.36.13s-.23.08-.36.13c-.09.03-.17.05-.24.08-.08.03-.15.05-.24.08l-.24.08h-.14s-.08-.05-.09-.1h.03ZM120.94,23.34v-.65c0-.15-.05-.23-.14-.23-.05,0-.12.03-.18.08-.18.14-.37.27-.59.38-.2.12-.42.22-.63.32-.04.01-.08,0-.09-.04l-.03-.06-.14-.22s-.03-.06.03-.08c.26-.1.5-.22.74-.35s.47-.28.69-.45c.08-.06.12-.12.1-.15-.01-.04-.08-.06-.18-.06h-.26s-.1-.01-.14-.05-.05-.08-.05-.14v-.77s.01-.1.05-.14.08-.05.14-.05h2.24s.1.01.14.05.05.08.05.14v.77s-.01.1-.05.14-.08.05-.14.05h-.56c-.12,0-.18.03-.2.08s0,.12.09.19c.05.05.1.09.15.14.03.03.06.05.12.05s.09-.01.13-.05l.14-.13s.04-.04.06-.06c.03-.03.04-.04.06-.06.04-.04.08-.06.13-.06s.09.01.12.05l.12.1c.08.06.08.14,0,.2l-.26.22s-.06.08-.06.12.03.06.06.1c.1.06.2.13.31.18s.2.1.31.14c.05.01.05.05.01.09l-.2.27s-.06.05-.1.03c-.2-.1-.41-.22-.6-.35s-.37-.27-.55-.42c-.09-.08-.15-.13-.22-.13-.09,0-.13.09-.13.27v.58s-.01.1-.05.14-.08.05-.14.05h-.12s-.1-.01-.14-.05-.05-.08-.05-.14v-.03ZM119.75,20.27h0s.01-.1.05-.14.08-.05.14-.05h2.89s.1.01.14.05.05.08.05.14h0s-.01.1-.05.14-.08.05-.14.05h-2.89s-.1-.01-.14-.05-.05-.08-.05-.14ZM119.92,19.65v-.86s.01-.1.05-.14.08-.05.14-.05h2.57s.1.01.14.05.05.08.05.14v.86s-.01.1-.05.14-.08.05-.14.05h-2.57s-.1-.01-.14-.05-.05-.08-.05-.14ZM120.52,19.49h.08s.1-.01.14-.05.05-.08.05-.14v-.15s-.01-.1-.05-.14-.08-.05-.14-.05h-.08s-.1.01-.14.05-.05.08-.05.14v.15s.01.1.05.14.08.05.14.05ZM120.73,21.49h1.3s.1-.01.14-.05.05-.08.05-.14v-.06s-.01-.1-.05-.14-.08-.05-.14-.05h-1.3s-.1.01-.14.05-.05.08-.05.14v.06s.01.1.05.14.08.05.14.05ZM121.34,19.49h.1s.1-.01.14-.05.05-.08.05-.14v-.15s-.01-.1-.05-.14-.08-.05-.14-.05h-.1s-.1.01-.14.05-.05.08-.05.14v.15s.01.1.05.14.08.05.14.05ZM122.17,19.49h.09s.1-.01.14-.05.05-.08.05-.14v-.15s-.01-.1-.05-.14-.08-.05-.14-.05h-.09s-.1.01-.14.05-.05.08-.05.14v.15s.01.1.05.14.08.05.14.05Z"/><path class="cls-3" d="M127.55,23.31v-.63s-.01-.1-.05-.14-.08-.05-.14-.05h-.61s-.1-.01-.14-.05-.05-.08-.05-.14v-.09s.01-.1.05-.14.08-.05.14-.05h.61s.1-.01.14-.05.05-.08.05-.14v-.87c0-.17-.03-.24-.09-.24-.05,0-.12.05-.19.15-.23.32-.5.63-.79.91s-.6.54-.92.77c-.01.01-.04.03-.06.01s-.04-.01-.06-.04l-.05-.06-.14-.13h0l-.05-.05c-.05-.04-.04-.06,0-.09.33-.19.65-.43.93-.72s.55-.58.79-.87c.05-.05.09-.12.13-.17s.08-.12.12-.17c.05-.08.06-.15.04-.2-.03-.05-.09-.08-.19-.08h-1.44s-.1-.01-.14-.05-.05-.08-.05-.14v-.09s.01-.1.05-.14.08-.05.14-.05h1.82s.1-.01.14-.05.05-.08.05-.14v-.69s.01-.1.05-.14.08-.05.14-.05h.13s.1.01.14.05.05.08.05.14v.69s.01.1.05.14.08.05.14.05h1.8s.1.01.14.05.05.08.05.14v.09s-.01.1-.05.14-.08.05-.14.05h-1.44c-.1,0-.17.03-.19.08s-.01.12.04.2c.12.17.24.35.4.52.15.18.32.35.49.51.17.17.35.32.54.46s.37.27.55.38c.05.03.05.05,0,.09l-.06.05h0l-.13.14h0l-.05.06s-.09.05-.13.01c-.33-.23-.65-.49-.92-.77-.28-.28-.54-.59-.79-.91-.08-.1-.14-.15-.18-.15-.06,0-.09.08-.09.24v.89s.01.1.05.14.08.05.14.05h.64s.1.01.14.05.05.08.05.14v.09s-.01.1-.05.14-.08.05-.14.05h-.64s-.1.01-.14.05-.05.08-.05.14v.63s-.01.1-.05.14-.08.05-.14.05h-.13s-.1-.01-.14-.05-.05-.08-.05-.14h-.03Z"/><path class="cls-3" d="M135.25,23.22v-2.8c0-.1-.05-.15-.15-.15s-.15-.05-.15-.15v-.49c0-.06-.03-.08-.08-.03l-.08.08s-.03.03-.03.04-.01.03-.03.03c-.04.05-.08.05-.13.03-.1-.08-.2-.17-.31-.26s-.19-.18-.28-.28l-.14-.14s-.08-.06-.12-.06c-.05,0-.09.03-.12.08-.14.19-.29.37-.46.54-.17.17-.35.32-.54.47-.04.03-.06.01-.09-.03,0,0-.01-.01-.03-.03,0,0-.01-.03-.03-.03l-.12-.13h0l-.05-.04s-.03-.06,0-.09c.1-.06.2-.14.31-.24.1-.09.22-.19.32-.31.1-.1.2-.22.29-.33.09-.12.17-.22.22-.32.03-.04.06-.06.1-.09.04-.01.09-.01.13,0l.22.06s.09.04.1.08c.03.03.08.09.15.17s.15.17.24.24.18.15.26.22c.09.06.14.09.18.09s.06-.04.06-.1c0-.05.01-.09.05-.13.03-.03.08-.05.13-.05h.66s.1-.01.14-.05.05-.08.05-.14v-.23s.01-.1.05-.14.08-.05.14-.05h.12s.1.01.14.05.05.08.05.14v.23s.01.1.05.14.08.05.14.05h.64s.1.01.14.05.05.08.05.14v.82s-.01.1-.05.14c-.04.04-.08.05-.13.05s-.1.01-.13.05-.05.08-.05.13v.81s-.01.1-.05.14-.08.05-.14.05h-1s-.1.01-.14.05-.05.08-.05.14v.1s.01.1.05.14.08.05.14.05h1.19s.1.01.14.05.05.08.05.14v1.1s-.01.1-.05.14-.08.05-.14.05h-1.67s-.1-.01-.14-.05-.05-.08-.05-.14h-.01ZM132.52,23.29l-.06-.2v-.08s.04-.04.06-.04l.23-.05s.08-.03.09-.05c.03-.03.04-.06.04-.1v-2.56s.01-.1.05-.14.08-.05.14-.05h.31s.1-.01.14-.05.05-.08.05-.14v-.19s.01-.1.05-.14.08-.05.14-.05h.06s.1.01.14.05.05.08.05.14v.19s.01.1.05.14.08.05.14.05h.29s.1.01.14.05.05.08.05.14v1.55s-.01.1-.05.14-.08.05-.14.05h-.96s-.1.01-.14.05-.05.08-.05.14v.43s.01.12.05.14c.04.03.09.04.15.01l.2-.05s.06-.01.09-.03c.03,0,.06-.01.09-.03.05-.01.09-.04.1-.09.01-.04,0-.09-.03-.13h0c-.04-.06-.05-.12-.05-.17s.04-.09.1-.12l.08-.04s.06-.03.09-.03c.05,0,.09.03.13.06.04.05.08.09.12.15.04.05.09.12.13.19.05.08.09.14.14.22s.09.15.13.23.08.14.1.22c.01.05,0,.08-.04.09l-.23.09h-.01l-.05.04s-.08,0-.09-.03l-.05-.14-.06-.12c-.04-.08-.1-.1-.18-.08-.05.01-.1.03-.15.04s-.1.04-.15.05c-.09.03-.17.05-.26.08-.09.03-.17.05-.26.08-.12.04-.23.06-.35.1s-.23.05-.35.08c-.05,0-.09,0-.13-.01-.04-.03-.06-.05-.08-.1h-.03ZM133.53,20.8h.5s.1-.01.14-.05.05-.08.05-.14h0s-.01-.1-.05-.14-.08-.05-.14-.05h-.5s-.1.01-.14.05-.05.08-.05.14h0s.01.1.05.14.08.05.14.05ZM133.53,21.54h.5s.1-.01.14-.05.05-.08.05-.14v-.03s-.01-.1-.05-.14-.08-.05-.14-.05h-.5s-.1.01-.14.05-.05.08-.05.14v.03s.01.1.05.14.08.05.14.05ZM135.58,19.99h1.23s.1-.01.14-.05.05-.08.05-.14v-.12s-.01-.1-.05-.14-.08-.05-.14-.05h-1.23s-.1.01-.14.05-.05.08-.05.14v.12s.01.1.05.14.08.05.14.05ZM135.91,21.01h.54s.1-.01.14-.05.05-.08.05-.14v-.23s-.01-.1-.05-.14c-.04-.04-.08-.05-.14-.05h-.54s-.1.01-.14.05-.05.08-.05.14v.23s.01.1.05.14.08.05.14.05ZM135.91,22.97h.72s.1-.01.14-.05.05-.08.05-.14v-.24s-.01-.1-.05-.14c-.04-.04-.08-.05-.14-.05h-.72s-.1.01-.14.05-.05.08-.05.14v.24s.01.1.05.14.08.05.14.05Z"/><path class="cls-3" d="M155.49,22.83v-.12s.01-.1.05-.14c.04-.04.08-.05.14-.05h1.83s.1-.01.14-.05.05-.08.05-.14v-2.56s-.01-.1-.05-.14c-.04-.04-.08-.05-.14-.05h-1.51s-.1-.01-.14-.05-.05-.08-.05-.14v-.12s.01-.1.05-.14.08-.05.14-.05h3.94s.1.01.14.05.05.08.05.14v.12s-.01.1-.05.14-.08.05-.14.05h-1.5s-.1.01-.14.05-.05.08-.05.14v2.56s.01.1.05.14c.04.04.08.05.14.05h1.83s.1.01.14.05.05.08.05.14v.12s-.01.1-.05.14c-.04.04-.08.05-.14.05h-4.58s-.1-.01-.14-.05-.05-.08-.05-.14h-.01Z"/><path class="cls-3" d="M164.32,23.39s0-.04-.01-.06c0-.03,0-.04-.01-.06s-.01-.04-.01-.06,0-.04-.01-.06c-.01-.08,0-.12.09-.12h.46c.08,0,.13,0,.17-.04s.05-.08.05-.15v-.58s-.01-.1-.05-.14-.08-.05-.14-.05h-1.85s-.1-.01-.14-.05-.05-.08-.05-.14v-.06s.01-.1.05-.14.08-.05.14-.05h1.85s.1-.01.14-.05.05-.08.05-.14v-.09c0-.08.04-.12.12-.12h.06s.08,0,.1-.04l.27-.18s.05-.04.08-.05.05-.04.08-.05c.05-.04.06-.06.06-.09s-.04-.04-.1-.04h-1.74s-.1-.01-.14-.05-.05-.08-.05-.14v-.05s.01-.1.05-.14c.04-.04.08-.05.14-.05h2.58s.1.01.14.05l.05.05s.05.08.05.12-.01.08-.05.1c-.18.15-.37.31-.56.45s-.4.27-.59.4c-.03,0-.04.04-.04.06s.01.05.05.05h1.9s.1.01.14.05.05.08.05.14v.06s-.01.1-.05.14-.08.05-.14.05h-1.76s-.1.01-.14.05-.05.08-.05.14v.72c0,.35-.2.52-.61.52h-.46c-.09,0-.14-.04-.14-.13v.03ZM162.85,20.57v-.86s.01-.1.05-.14c.04-.04.08-.05.14-.05h.59s.08,0,.09-.04c.01-.03.01-.06,0-.1l-.04-.06-.04-.08c-.03-.05-.06-.1-.09-.15s-.05-.1-.09-.14c-.01-.03-.03-.04-.04-.06-.01-.03-.03-.04-.04-.06-.05-.08-.04-.13.04-.18l.18-.09s.08-.03.13-.01.08.04.1.06c.01.01.04.04.05.06s.03.05.05.08c.06.09.13.19.19.31l.04.08s.03.04.04.06c.01.04.03.08,0,.12s-.04.06-.09.09l-.06.03s-.09.05-.09.06.04.03.1.03h1.71s.05,0,.09-.01c.03-.01.05-.04.06-.06.1-.13.18-.27.27-.41.08-.14.15-.28.23-.43.05-.1.13-.14.23-.12l.14.04s.1.05.13.1c.03.05.01.1,0,.15-.05.09-.1.17-.14.26-.05.09-.1.17-.14.26-.05.06-.05.13-.04.17.03.04.08.06.15.06h.65s.1.01.14.05.05.08.05.14v.86s-.01.1-.05.14-.08.05-.14.05h-.12s-.1-.01-.14-.05-.05-.08-.05-.14v-.43s-.01-.1-.05-.14-.08-.05-.14-.05h-3.4s-.1.01-.14.05-.05.08-.05.14v.43s-.01.1-.05.14c-.04.04-.08.05-.14.05h-.1s-.1-.01-.14-.05-.05-.08-.05-.14h.01ZM164.99,19.34c-.03-.09-.06-.17-.1-.24l-.12-.23s-.04-.05-.04-.08-.03-.05-.04-.06c-.06-.09-.04-.15.05-.19l.18-.06s.08-.03.12,0c.04,0,.06.04.09.06.01.03.04.05.05.06,0,.03.03.05.05.08.05.08.09.15.13.23s.08.17.1.24c.01.04.01.08,0,.12s-.05.06-.09.09l-.18.08s-.09.03-.12,0c-.04-.01-.06-.05-.08-.09h-.01Z"/><path class="cls-3" d="M169.91,20.89v-.05s.01-.1.05-.14c.04-.04.08-.05.14-.05h.47s.08-.01.1-.04.03-.06,0-.1c0-.03-.01-.05-.03-.06,0-.03-.03-.05-.04-.08-.04-.08-.06-.17-.1-.24s-.08-.15-.13-.23c-.05-.09-.03-.15.06-.19l.15-.06s.08-.03.13,0c.04.01.08.04.1.09,0,.01.03.04.04.06,0,.03.03.05.04.08.03.06.06.12.09.17s.05.12.08.18c0,.03.01.05.03.08s.03.05.03.06c.01.04.01.08,0,.12s-.05.06-.09.09l-.08.03c-.06.03-.1.05-.09.06,0,.01.04.03.12.03h.43s.06,0,.1-.03c.04-.03.05-.05.06-.08.01-.04.04-.08.05-.13.01-.04.04-.09.05-.14.03-.06.05-.14.09-.2s.05-.13.08-.2c0-.03.01-.05.03-.08,0-.03.03-.05.03-.08.01-.05.05-.09.09-.1s.08-.03.13,0l.12.04s.1.05.13.09c.03.05.03.09,0,.15l-.09.2v.04s-.03.03-.03.04c-.01.04-.04.08-.05.13-.01.04-.04.08-.05.13-.04.08-.04.13,0,.18.03.04.08.06.17.06h.35s.1.01.14.05.05.08.05.14v.05s-.01.1-.05.14-.08.05-.14.05h-2.53s-.1-.01-.14-.05-.05-.08-.05-.14l-.03-.05ZM170.05,19.33v-.05s.01-.1.05-.14c.04-.04.08-.05.14-.05h.69s.1-.01.14-.05.05-.08.05-.14v-.28s.01-.1.05-.14c.04-.04.08-.05.14-.05h.14s.1.01.14.05.05.08.05.14v.28s.01.1.05.14c.04.04.08.05.14.05h.68s.1.01.14.05.05.08.05.14v.05s-.01.1-.05.14c-.04.04-.08.05-.14.05h-2.28s-.1-.01-.14-.05-.05-.08-.05-.14ZM170.36,23.12v-1.47s.01-.1.05-.14c.04-.04.08-.05.14-.05h1.66s.1.01.14.05.05.08.05.14v1.47s-.01.1-.05.14c-.04.04-.08.05-.14.05h-1.66s-.1-.01-.14-.05-.05-.08-.05-.14ZM171.05,22.88h.66s.1-.01.14-.05.05-.08.05-.14v-.61s-.01-.1-.05-.14c-.04-.04-.08-.05-.14-.05h-.66s-.1.01-.14.05-.05.08-.05.14v.61s.01.1.05.14c.04.04.08.05.14.05ZM173,23.31v-4.44s.01-.1.05-.14.08-.05.14-.05h1.52s.09.01.13.05l.06.05s.08.12.05.2l-.22.49c-.03.08-.06.14-.09.2s-.06.14-.09.2l-.22.46s-.03.06-.01.09c0,.04.03.06.05.09.09.1.18.2.26.29.08.1.15.2.2.31.05.1.1.22.14.35.04.12.05.26.05.4,0,.29-.08.54-.22.72-.15.18-.38.27-.69.27h-.13c-.09,0-.14-.04-.15-.13,0-.03,0-.04-.01-.06,0-.03,0-.04-.01-.06,0-.03,0-.04-.01-.06,0-.03,0-.04-.01-.06-.01-.08,0-.13.09-.13h.17c.17,0,.29-.04.37-.12s.12-.2.12-.37c0-.27-.06-.51-.19-.72s-.28-.41-.46-.59c-.05-.04-.06-.09-.04-.15l.47-1.09.04-.09s0-.09-.06-.09h-.58s-.1.01-.14.05-.05.08-.05.14v4s-.01.1-.05.14c-.04.04-.08.05-.14.05h-.1s-.1-.01-.14-.05-.05-.08-.05-.14h-.04Z"/><path class="cls-3" d="M178.51,23.02v-.08c0-.17.03-.32.09-.46.05-.15.13-.29.22-.42s.19-.26.29-.38c.12-.12.22-.23.33-.33l.22-.22c.08-.08.17-.17.24-.27s.14-.19.19-.29.08-.2.09-.29c0-.22-.04-.38-.15-.49-.1-.1-.26-.17-.46-.17-.17,0-.29.05-.38.15s-.14.23-.17.38c0,.05-.03.1-.06.14-.04.04-.08.05-.14.05h-.09s-.1-.01-.14-.05-.05-.08-.04-.14c.01-.14.05-.27.1-.4.05-.12.12-.23.2-.31.09-.09.19-.15.31-.2s.26-.08.41-.08c.2,0,.38.04.55.12s.29.22.41.4c.09.17.13.37.13.61,0,.18-.05.35-.14.5s-.19.29-.31.42c-.06.06-.13.14-.2.22l-.23.23c-.09.09-.18.18-.26.27s-.15.17-.23.26-.14.18-.19.27c-.03.06-.03.1,0,.15s.08.06.15.06h1.16s.1.01.14.05.05.08.05.14v.06s-.01.1-.05.14-.08.05-.14.05h-1.82s-.08-.03-.08-.08v-.03Z"/><path class="cls-3" d="M186.48,23.42s0-.04-.01-.06v-.06s-.01-.04-.01-.06v-.05c-.01-.08,0-.12.08-.12h.68c.05,0,.1-.03.14-.05.04-.03.08-.05.1-.1s.06-.1.09-.18c.03-.09.05-.19.08-.28s.04-.19.06-.28c0-.06,0-.12-.04-.15s-.08-.06-.14-.06h-1.97c-.06,0-.12-.01-.14-.06-.03-.04-.03-.09,0-.15.01-.05.04-.1.05-.14s.04-.09.05-.14l.04-.12s0-.03.01-.04v-.03c.03-.08.01-.13-.01-.18s-.09-.06-.17-.06h-1s-.1-.01-.14-.05-.05-.08-.05-.14v-.06s.01-.1.05-.14.08-.05.14-.05h4.7s.1.01.14.05.05.08.05.14v.06s-.01.1-.05.14-.08.05-.14.05h-2.76s-.08,0-.1.04c-.03.03-.05.05-.06.09l-.08.24v.08s.04.03.08.03h1.96s.12.01.15.05c.04.04.05.09.04.15-.03.19-.05.4-.09.59s-.08.38-.13.58c-.04.14-.09.26-.15.35s-.14.15-.22.2c-.09.05-.18.08-.29.09-.12,0-.23.03-.37.03h-.4c-.09,0-.14-.04-.14-.13h-.03ZM185.11,19.99v-1.23s.01-.1.05-.14.08-.05.14-.05h2.8s.1.01.14.05.05.08.05.14v1.23s-.01.1-.05.14-.08.05-.14.05h-2.8s-.1-.01-.14-.05-.05-.08-.05-.14ZM185.81,19.75h1.76s.1-.01.14-.05.05-.08.05-.14v-.35s-.01-.1-.05-.14-.08-.05-.14-.05h-1.76s-.1.01-.14.05-.05.08-.05.14v.35s.01.1.05.14.08.05.14.05Z"/><path class="cls-3" d="M194.17,23.22v-2.8c0-.1-.05-.15-.15-.15s-.15-.05-.15-.15v-.49c0-.06-.03-.08-.08-.03l-.08.08s-.03.03-.03.04-.01.03-.03.03c-.04.05-.08.05-.13.03-.1-.08-.2-.17-.31-.26-.1-.09-.19-.18-.28-.28l-.14-.14s-.08-.06-.12-.06c-.05,0-.09.03-.12.08-.14.19-.29.37-.46.54s-.35.32-.54.47c-.04.03-.06.01-.09-.03l-.03-.03s-.01-.03-.03-.03l-.12-.13h0l-.05-.04s-.03-.06,0-.09c.1-.06.2-.14.31-.24.1-.09.22-.19.32-.31.1-.1.2-.22.29-.33.09-.12.17-.22.22-.32.03-.04.06-.06.1-.09.04-.01.09-.01.13,0l.22.06s.09.04.1.08c.03.03.08.09.15.17s.15.17.24.24.18.15.26.22c.09.06.14.09.18.09s.06-.04.06-.1c0-.05.01-.09.05-.13.03-.03.08-.05.13-.05h.66s.1-.01.14-.05.05-.08.05-.14v-.23s.01-.1.05-.14.08-.05.14-.05h.12s.1.01.14.05.05.08.05.14v.23s.01.1.05.14.08.05.14.05h.64s.1.01.14.05.05.08.05.14v.82s-.01.1-.05.14-.08.05-.13.05-.1.01-.13.05-.05.08-.05.13v.81s-.01.1-.05.14-.08.05-.14.05h-1s-.1.01-.14.05-.05.08-.05.14v.1s.01.1.05.14.08.05.14.05h1.19s.1.01.14.05.05.08.05.14v1.1s-.01.1-.05.14-.08.05-.14.05h-1.67s-.1-.01-.14-.05-.05-.08-.05-.14h-.01ZM191.45,23.29l-.06-.2v-.08s.04-.04.06-.04l.23-.05s.08-.03.09-.05c.03-.03.04-.06.04-.1v-2.56s.01-.1.05-.14.08-.05.14-.05h.31s.1-.01.14-.05.05-.08.05-.14v-.19s.01-.1.05-.14.08-.05.14-.05h.06s.1.01.14.05.05.08.05.14v.19s.01.1.05.14.08.05.14.05h.29s.1.01.14.05.05.08.05.14v1.55s-.01.1-.05.14-.08.05-.14.05h-.96s-.1.01-.14.05-.05.08-.05.14v.43s.01.12.05.14c.04.03.09.04.15.01l.2-.05s.06-.01.09-.03c.03,0,.06-.01.09-.03.05-.01.09-.04.1-.09.01-.04,0-.09-.03-.13h0c-.04-.06-.05-.12-.05-.17s.04-.09.1-.12l.08-.04s.06-.03.09-.03c.05,0,.09.03.13.06.04.05.08.09.12.15.04.05.09.12.13.19.05.08.09.14.14.22s.09.15.13.23.08.14.1.22c.01.05,0,.08-.04.09l-.23.09h-.01l-.05.04s-.08,0-.09-.03l-.05-.14-.06-.12c-.04-.08-.1-.1-.18-.08-.05.01-.1.03-.15.04s-.1.04-.15.05c-.09.03-.17.05-.26.08s-.17.05-.26.08c-.12.04-.23.06-.35.1s-.23.05-.35.08c-.05,0-.09,0-.13-.01-.04-.03-.06-.05-.08-.1h-.03ZM192.47,20.8h.5s.1-.01.14-.05.05-.08.05-.14h0s-.01-.1-.05-.14-.08-.05-.14-.05h-.5s-.1.01-.14.05-.05.08-.05.14h0s.01.1.05.14.08.05.14.05ZM192.47,21.54h.5s.1-.01.14-.05.05-.08.05-.14v-.03s-.01-.1-.05-.14-.08-.05-.14-.05h-.5s-.1.01-.14.05-.05.08-.05.14v.03s.01.1.05.14.08.05.14.05ZM194.52,19.99h1.23s.1-.01.14-.05.05-.08.05-.14v-.12s-.01-.1-.05-.14-.08-.05-.14-.05h-1.23s-.1.01-.14.05-.05.08-.05.14v.12s.01.1.05.14.08.05.14.05ZM194.85,21.01h.54s.1-.01.14-.05.05-.08.05-.14v-.23s-.01-.1-.05-.14-.08-.05-.14-.05h-.54s-.1.01-.14.05-.05.08-.05.14v.23s.01.1.05.14.08.05.14.05ZM194.85,22.97h.72s.1-.01.14-.05.05-.08.05-.14v-.24s-.01-.1-.05-.14-.08-.05-.14-.05h-.72s-.1.01-.14.05-.05.08-.05.14v.24s.01.1.05.14.08.05.14.05Z"/><path class="cls-3" d="M149.01,23.61h-5.3v-5.3h5.3v5.3ZM148.44,23.03v-4.14h-4.14v4.14h4.14Z"/><path class="cls-3" d="M2.32,24.81h1.42v8.27h-1.63v-6.54l-1.56.44-.4-1.39,2.17-.77h0Z"/><path class="cls-3" d="M6.89,24.81h1.42v8.27h-1.63v-6.54l-1.56.44-.4-1.39,2.17-.77h0Z"/><path class="cls-3" d="M10.51,33.21l-.27-.27c-.09-.09-.19-.17-.3-.25-.03-.03-.06-.06-.09-.08s-.06-.04-.09-.06c-.12-.08-.13-.16-.02-.25.32-.25.58-.52.77-.82.19-.29.34-.61.45-.94s.18-.68.21-1.04c.03-.36.05-.73.05-1.11v-3.33c0-.1.03-.17.09-.23s.13-.09.23-.09h5.17c.1,0,.17.03.23.09s.09.14.09.23v7.03c0,.24-.03.43-.1.58s-.18.27-.31.36-.29.15-.47.19c-.18.04-.38.05-.59.05h-.63c-.15,0-.24-.08-.26-.24,0-.04-.01-.08-.01-.12s-.01-.08-.02-.12c-.03-.2-.07-.39-.12-.57-.01-.04-.02-.09-.03-.12s-.02-.07-.03-.11c-.04-.15,0-.22.16-.22h.54c.14,0,.24-.02.31-.06.06-.04.09-.13.09-.27v-1c0-.1-.03-.17-.09-.23s-.13-.09-.23-.09h-2.4c-.18,0-.29.09-.32.27-.11.58-.3,1.11-.56,1.57-.26.46-.63.89-1.08,1.27-.04.04-.09.06-.14.06-.07,0-.13-.03-.19-.09h-.04ZM12.78,28.83h2.44c.1,0,.17-.03.23-.09s.09-.13.09-.23v-.11c0-.1-.03-.17-.09-.23s-.13-.09-.23-.09h-2.4c-.1,0-.14.05-.14.14v.48c-.01.08.02.12.11.12h-.01ZM12.99,26.79h2.23c.1,0,.17-.03.23-.09s.09-.13.09-.23v-.08c0-.1-.03-.17-.09-.23s-.13-.09-.23-.09h-2.23c-.1,0-.17.03-.23.09-.06.06-.09.13-.09.23v.08c0,.1.03.17.09.23s.13.09.23.09Z"/><path class="cls-3" d="M21.09,24.81h1.42v8.27h-1.63v-6.54l-1.56.44-.4-1.39,2.17-.77h0Z"/><path class="cls-3" d="M27.53,28.17c.56.17,1.01.46,1.36.87s.53.91.53,1.49c0,.85-.29,1.52-.86,2-.57.48-1.27.72-2.1.72-.65,0-1.22-.15-1.73-.44-.51-.3-.88-.73-1.1-1.31l1.39-.8c.21.64.69.96,1.44.96.42,0,.74-.1.97-.3.23-.2.35-.47.35-.82s-.12-.61-.35-.82c-.23-.2-.56-.31-.97-.31h-.35l-.63-.95,1.63-2.13h-3.24v-1.52h5.2v1.35l-1.55,2.01h0Z"/><path class="cls-3" d="M33.14,33.28c-.71-1.41-1.06-2.86-1.06-4.34s.35-2.92,1.06-4.34h1.24c-.71,1.41-1.06,2.86-1.06,4.34s.35,2.92,1.06,4.34h-1.24Z"/><path class="cls-3" d="M37.92,32.99v-2.84c0-.35-.06-.52-.19-.52-.1,0-.24.11-.41.33-.31.41-.64.79-.98,1.15-.34.36-.71.71-1.1,1.04-.06.05-.13.08-.21.08-.1,0-.19-.04-.25-.12-.04-.05-.09-.1-.13-.15s-.09-.1-.14-.15c-.05-.04-.1-.09-.14-.13s-.09-.08-.14-.12c-.19-.15-.19-.3,0-.44.53-.39,1.03-.83,1.5-1.31s.9-.99,1.28-1.54c.09-.14.11-.25.06-.33-.05-.09-.16-.13-.32-.13h-2c-.1,0-.17-.03-.23-.09s-.09-.13-.09-.23v-.66c0-.1.03-.17.09-.23s.14-.09.23-.09h2.87c.1,0,.17-.03.23-.09s.09-.13.09-.23v-1.3c0-.1.03-.17.09-.23s.14-.09.23-.09h.75c.1,0,.17.03.23.09s.09.13.09.23v1.3c0,.1.03.17.09.23s.14.09.23.09h2.91c.1,0,.17.03.23.09s.09.14.09.23v.66c0,.1-.03.17-.09.23s-.13.09-.23.09h-2.01c-.17,0-.27.04-.32.13-.05.09-.02.2.07.34.4.55.84,1.07,1.32,1.55s1,.93,1.54,1.33c.13.09.13.19,0,.29-.12.1-.25.22-.38.34-.13.13-.24.25-.33.38-.06.07-.12.11-.19.11-.06,0-.16-.06-.31-.19-.15-.12-.3-.27-.47-.43-.16-.16-.32-.32-.46-.47s-.24-.26-.29-.31c-.14-.15-.28-.3-.41-.46s-.26-.32-.39-.49c-.17-.22-.31-.33-.41-.33-.13,0-.19.17-.19.52v2.87c0,.1-.03.17-.09.23s-.13.09-.23.09h-.75c-.1,0-.17-.03-.23-.09s-.09-.13-.09-.23h-.02Z"/><path class="cls-3" d="M44.11,33.28h-1.24c.71-1.41,1.06-2.86,1.06-4.34s-.35-2.92-1.06-4.34h1.24c.71,1.41,1.06,2.86,1.06,4.34s-.35,2.92-1.06,4.34Z"/><path class="cls-3" d="M47.51,30.01v-1.2h3.61v1.2h-3.61Z"/><path class="cls-3" d="M55.39,24.81h1.42v8.27h-1.63v-6.54l-1.56.44-.4-1.39,2.17-.77h0Z"/><path class="cls-3" d="M57.81,24.81h5.34v1.38l-2.8,6.89h-1.72l2.71-6.71h-3.53v-1.56Z"/><path class="cls-3" d="M67.38,33.28c-.71-1.41-1.06-2.86-1.06-4.34s.35-2.92,1.06-4.34h1.24c-.71,1.41-1.06,2.86-1.06,4.34s.35,2.92,1.06,4.34h-1.24Z"/><path class="cls-3" d="M69.4,33.21c-.09-.09-.18-.18-.27-.27s-.19-.17-.3-.25c-.03-.03-.06-.06-.09-.08l-.09-.06c-.12-.08-.13-.16-.02-.25.32-.25.58-.52.77-.82.19-.29.34-.61.45-.94s.18-.68.21-1.04c.03-.36.05-.73.05-1.11v-3.33c0-.1.03-.17.09-.23s.13-.09.23-.09h5.17c.1,0,.17.03.23.09.06.06.09.14.09.23v7.03c0,.24-.03.43-.1.58s-.18.27-.31.36-.29.15-.47.19c-.18.04-.38.05-.59.05h-.63c-.15,0-.24-.08-.26-.24,0-.04-.01-.08-.01-.12s-.01-.08-.02-.12c-.03-.2-.07-.39-.12-.57-.01-.04-.02-.09-.03-.12s-.02-.07-.03-.11c-.04-.15,0-.22.16-.22h.54c.14,0,.24-.02.31-.06.06-.04.09-.13.09-.27v-1c0-.1-.03-.17-.09-.23s-.13-.09-.23-.09h-2.4c-.18,0-.29.09-.32.27-.11.58-.3,1.11-.56,1.57-.26.46-.63.89-1.08,1.27-.04.04-.09.06-.14.06-.07,0-.13-.03-.19-.09h-.04ZM71.67,28.83h2.44c.1,0,.17-.03.23-.09s.09-.13.09-.23v-.11c0-.1-.03-.17-.09-.23s-.13-.09-.23-.09h-2.4c-.1,0-.14.05-.14.14v.48c-.01.08.02.12.11.12h-.01ZM71.88,26.79h2.23c.1,0,.17-.03.23-.09s.09-.13.09-.23v-.08c0-.1-.03-.17-.09-.23s-.13-.09-.23-.09h-2.23c-.1,0-.17.03-.23.09-.06.06-.09.13-.09.23v.08c0,.1.03.17.09.23s.13.09.23.09Z"/><path class="cls-3" d="M78.35,33.28h-1.24c.71-1.41,1.06-2.86,1.06-4.34s-.35-2.92-1.06-4.34h1.24c.71,1.41,1.06,2.86,1.06,4.34s-.35,2.92-1.06,4.34Z"/><path class="cls-3" d="M2.7,37.09h1.75v10.24h-2.02v-8.1l-1.93.54-.5-1.73,2.69-.95h0Z"/><path class="cls-3" d="M8.36,37.09h1.75v10.24h-2.02v-8.1l-1.93.54-.5-1.73,2.69-.95h.01Z"/><path class="cls-3" d="M14.01,41.92c-.24.24-.54.37-.88.37s-.63-.12-.88-.37-.37-.54-.37-.88.12-.63.37-.88c.24-.24.54-.37.88-.37s.63.12.88.37c.24.24.37.54.37.88s-.12.63-.37.88ZM14.01,47.16c-.24.24-.54.37-.88.37s-.63-.12-.88-.37-.37-.54-.37-.88.12-.63.37-.88c.24-.24.54-.37.88-.37s.63.12.88.37c.24.24.37.54.37.88s-.12.63-.37.88Z"/><path class="cls-3" d="M19.7,47.54c-1.28,0-2.28-.49-3.01-1.46-.73-.97-1.09-2.26-1.09-3.87s.36-2.9,1.09-3.87c.73-.97,1.73-1.46,3.01-1.46s2.29.49,3.01,1.46c.72.97,1.08,2.26,1.08,3.87s-.36,2.9-1.08,3.87c-.72.97-1.73,1.46-3.01,1.46ZM18.15,44.71c.35.57.87.86,1.55.86s1.2-.29,1.56-.86c.36-.58.53-1.4.53-2.49s-.18-1.93-.53-2.5c-.36-.58-.88-.86-1.56-.86s-1.2.29-1.55.86c-.35.58-.53,1.41-.53,2.5s.18,1.92.53,2.49Z"/><path class="cls-3" d="M28.91,47.54c-1.28,0-2.28-.49-3.01-1.46-.73-.97-1.09-2.26-1.09-3.87s.36-2.9,1.09-3.87c.73-.97,1.73-1.46,3.01-1.46s2.29.49,3.01,1.46c.72.97,1.08,2.26,1.08,3.87s-.36,2.9-1.08,3.87c-.72.97-1.73,1.46-3.01,1.46ZM27.36,44.71c.35.57.87.86,1.55.86s1.2-.29,1.56-.86c.36-.58.53-1.4.53-2.49s-.18-1.93-.53-2.5c-.36-.58-.88-.86-1.56-.86s-1.2.29-1.55.86c-.35.58-.53,1.41-.53,2.5s.18,1.92.53,2.49Z"/><path class="cls-3" d="M35.2,43.82v-1.81h5.48v1.81h-5.48Z"/><path class="cls-3" d="M45.22,37.09h1.75v10.24h-2.02v-8.1l-1.93.54-.5-1.73,2.69-.95h.01Z"/><path class="cls-3" d="M55.78,40.44c0,.79-.2,1.48-.6,2.08l-3.19,4.81h-2.31l2.28-3.33c-1.06-.02-1.93-.36-2.59-1.02s-1-1.5-1-2.54.34-1.9,1.03-2.56,1.58-1,2.67-1,2,.33,2.68.99,1.03,1.51,1.03,2.57ZM50.37,40.44c0,.51.16.91.49,1.21s.73.45,1.21.45.91-.15,1.23-.45.48-.71.48-1.21-.16-.91-.48-1.21-.73-.45-1.23-.45-.88.15-1.21.45c-.33.3-.49.7-.49,1.2h0Z"/><path class="cls-3" d="M58.95,41.92c-.24.24-.54.37-.88.37s-.63-.12-.88-.37-.37-.54-.37-.88.12-.63.37-.88.54-.37.88-.37.63.12.88.37.37.54.37.88-.12.63-.37.88ZM58.95,47.16c-.24.24-.54.37-.88.37s-.63-.12-.88-.37-.37-.54-.37-.88.12-.63.37-.88.54-.37.88-.37.63.12.88.37.37.54.37.88-.12.63-.37.88Z"/><path class="cls-3" d="M64.64,47.54c-1.28,0-2.28-.49-3.01-1.46-.73-.97-1.09-2.26-1.09-3.87s.36-2.9,1.09-3.87c.73-.97,1.73-1.46,3.01-1.46s2.29.49,3.01,1.46c.72.97,1.08,2.26,1.08,3.87s-.36,2.9-1.08,3.87c-.72.97-1.73,1.46-3.01,1.46ZM63.09,44.71c.35.57.87.86,1.55.86s1.2-.29,1.56-.86c.36-.58.53-1.4.53-2.49s-.18-1.93-.53-2.5c-.36-.58-.88-.86-1.56-.86s-1.2.29-1.55.86c-.35.58-.53,1.41-.53,2.5s.18,1.92.53,2.49Z"/><path class="cls-3" d="M73.86,47.54c-1.28,0-2.28-.49-3.01-1.46-.73-.97-1.09-2.26-1.09-3.87s.36-2.9,1.09-3.87c.73-.97,1.73-1.46,3.01-1.46s2.29.49,3.01,1.46c.72.97,1.08,2.26,1.08,3.87s-.36,2.9-1.08,3.87c-.72.97-1.73,1.46-3.01,1.46ZM72.31,44.71c.35.57.87.86,1.55.86s1.2-.29,1.56-.86c.36-.58.53-1.4.53-2.49s-.18-1.93-.53-2.5c-.36-.58-.88-.86-1.56-.86s-1.2.29-1.55.86c-.35.58-.53,1.41-.53,2.5s.18,1.92.53,2.49Z"/><path class="cls-3" d="M7.34,13.19c-1.07,0-1.96-.36-2.66-1.07-.7-.71-1.05-1.6-1.05-2.64s.35-1.94,1.05-2.65c.7-.71,1.59-1.07,2.66-1.07.65,0,1.24.15,1.79.45.55.3.97.71,1.28,1.23l-1.21.7c-.18-.32-.43-.57-.76-.75s-.69-.27-1.1-.27c-.69,0-1.25.22-1.68.65-.43.44-.64,1-.64,1.69s.21,1.25.64,1.68c.42.44.98.65,1.68.65.41,0,.78-.09,1.11-.27s.58-.43.75-.74l1.21.7c-.31.52-.73.93-1.28,1.23-.54.3-1.14.45-1.8.45v.03Z"/><path class="cls-3" d="M17.22,12.12c-.72.72-1.6,1.08-2.63,1.08s-1.91-.36-2.63-1.08-1.08-1.6-1.08-2.64.36-1.92,1.08-2.64,1.59-1.08,2.63-1.08,1.91.36,2.63,1.08,1.08,1.6,1.08,2.64-.36,1.92-1.08,2.64ZM12.94,11.16c.44.44.99.66,1.64.66s1.2-.22,1.64-.66.66-1,.66-1.68-.22-1.24-.66-1.68c-.44-.44-.99-.66-1.64-.66s-1.2.22-1.64.66c-.44.44-.66,1-.66,1.68s.22,1.24.66,1.68Z"/><path class="cls-3" d="M26.28,5.91v7.14h-1.4v-4.63l-2.01,3.31h-.16l-2.01-3.3v4.62h-1.41v-7.14h1.45l2.05,3.37,2.04-3.37h1.46,0Z"/><path class="cls-3" d="M27.6,5.91h1.41v7.14h-1.41s0-7.14,0-7.14Z"/><path class="cls-3" d="M34.47,5.91h1.41v7.14h-1.07l-3.06-4.37v4.37h-1.41v-7.14h1.07l3.06,4.35s0-4.35,0-4.35Z"/><path class="cls-3" d="M44.22,9.21v.55c0,1.02-.33,1.85-.98,2.48-.65.63-1.5.95-2.53.95-1.1,0-2.02-.36-2.74-1.08s-1.09-1.59-1.09-2.63.36-1.92,1.08-2.64,1.61-1.08,2.67-1.08c.67,0,1.28.15,1.83.45.55.3.98.71,1.29,1.21l-1.21.69c-.17-.29-.43-.53-.77-.71s-.72-.28-1.15-.28c-.68,0-1.24.22-1.68.67-.44.45-.66,1.01-.66,1.69s.22,1.23.67,1.67c.45.44,1.04.66,1.77.66.54,0,.99-.12,1.35-.36.36-.24.6-.57.73-1h-2.16v-1.25h3.58Z"/><path class="cls-3" d="M50.21,13.19c-.71,0-1.3-.16-1.79-.47-.48-.32-.82-.75-1.02-1.29l1.21-.7c.28.73.83,1.09,1.64,1.09.39,0,.68-.07.87-.21s.28-.32.28-.54c0-.25-.11-.45-.34-.59-.22-.14-.63-.29-1.21-.45-.32-.09-.59-.19-.81-.29s-.44-.22-.66-.38-.39-.36-.5-.61c-.12-.25-.17-.53-.17-.86,0-.65.23-1.16.69-1.55.46-.38,1.01-.58,1.66-.58.58,0,1.09.14,1.53.42s.78.68,1.03,1.18l-1.18.68c-.29-.61-.74-.92-1.37-.92-.29,0-.52.07-.69.2-.17.13-.25.3-.25.51s.09.41.28.55.54.29,1.08.45c.22.07.38.12.49.16s.27.1.46.17c.2.08.34.15.45.22.11.07.23.16.36.28s.24.23.31.36c.07.12.13.27.18.44.05.17.08.36.08.57,0,.66-.24,1.18-.72,1.57s-1.1.58-1.87.58h-.02Z"/><path class="cls-3" d="M59.68,12.12c-.72.72-1.6,1.08-2.63,1.08s-1.91-.36-2.63-1.08-1.08-1.6-1.08-2.64.36-1.92,1.08-2.64,1.59-1.08,2.63-1.08,1.91.36,2.63,1.08,1.08,1.6,1.08,2.64-.36,1.92-1.08,2.64ZM55.41,11.16c.44.44.99.66,1.64.66s1.2-.22,1.64-.66.66-1,.66-1.68-.22-1.24-.66-1.68-.99-.66-1.64-.66-1.2.22-1.64.66-.66,1-.66,1.68.22,1.24.66,1.68Z"/><path class="cls-3" d="M67.76,12.12c-.72.72-1.6,1.08-2.63,1.08s-1.91-.36-2.63-1.08-1.08-1.6-1.08-2.64.36-1.92,1.08-2.64,1.59-1.08,2.63-1.08,1.91.36,2.63,1.08c.72.72,1.08,1.6,1.08,2.64s-.36,1.92-1.08,2.64ZM63.49,11.16c.44.44.99.66,1.64.66s1.2-.22,1.64-.66.66-1,.66-1.68-.22-1.24-.66-1.68-.99-.66-1.64-.66-1.2.22-1.64.66-.66,1-.66,1.68.22,1.24.66,1.68Z"/><path class="cls-3" d="M73.97,5.91h1.41v7.14h-1.07l-3.06-4.37v4.37h-1.41v-7.14h1.07l3.06,4.35s0-4.35,0-4.35Z"/><rect class="cls-1" x=".79" y=".82" width="78.62" height="16.77"/><rect class="cls-2" x="96.26" y="33.64" width="12.94" height="12.94"/><circle class="cls-2" cx="102.73" cy="40.11" r="2.74"/><path class="cls-3" d="M113.7,37.69c-.14,0-.26-.05-.35-.14-.09-.09-.14-.2-.14-.33s.05-.24.14-.35.2-.14.35-.14.24.05.33.14c.09.1.14.2.14.35s-.05.24-.14.33-.2.14-.33.14ZM113.34,42.55v-4.12h.72v4.12h-.72Z"/><path class="cls-3" d="M115.51,37.69c-.14,0-.26-.05-.35-.14-.09-.09-.14-.2-.14-.33s.05-.24.14-.35.2-.14.35-.14.24.05.33.14c.09.1.14.2.14.35s-.05.24-.14.33-.2.14-.33.14ZM115.15,42.55v-4.12h.72v4.12h-.72Z"/><path class="cls-3" d="M117.31,37.69c-.14,0-.26-.05-.35-.14s-.14-.2-.14-.33.05-.24.14-.35.2-.14.35-.14.24.05.33.14c.09.1.14.2.14.35s-.05.24-.14.33-.2.14-.33.14ZM116.95,42.55v-4.12h.72v4.12h-.72Z"/><path class="cls-3" d="M121.66,41.82h2.67v.73h-3.44v-5.75h3.4v.73h-2.63v1.76h2.43v.72h-2.43v1.83h0Z"/><path class="cls-3" d="M128.75,42.55h-.84l-1.15-1.55-1.15,1.55h-.84l1.57-2.12-1.48-1.99h.84l1.06,1.43,1.06-1.43h.84l-1.48,1.99,1.57,2.12Z"/><path class="cls-3" d="M131.46,38.33c.49,0,.87.15,1.16.46s.43.72.43,1.24v2.52h-.72v-2.48c0-.33-.09-.59-.27-.78s-.43-.28-.75-.28c-.36,0-.64.12-.87.33-.22.22-.33.56-.33,1.02v2.19h-.72v-5.75h.72v2.24c.29-.47.73-.7,1.33-.7h.01Z"/><path class="cls-3" d="M134.41,37.69c-.14,0-.26-.05-.35-.14s-.14-.2-.14-.33.05-.24.14-.35.2-.14.35-.14.24.05.33.14c.09.1.14.2.14.35s-.05.24-.14.33-.2.14-.33.14ZM134.06,42.55v-4.12h.72v4.12h-.72Z"/><path class="cls-3" d="M138.13,38.33c.58,0,1.06.2,1.47.63.41.42.61.93.61,1.53s-.2,1.11-.61,1.53-.89.63-1.47.63c-.68,0-1.2-.27-1.56-.82v.7h-.72v-5.75h.72v2.35c.36-.54.87-.82,1.56-.82h0ZM138.05,41.96c.41,0,.75-.14,1.04-.42s.42-.63.42-1.05-.14-.77-.42-1.05-.63-.42-1.04-.42-.77.14-1.05.42-.42.63-.42,1.05.14.77.42,1.05.63.42,1.05.42Z"/><path class="cls-3" d="M141.43,37.69c-.14,0-.26-.05-.35-.14s-.14-.2-.14-.33.05-.24.14-.35.2-.14.35-.14.24.05.33.14c.09.1.14.2.14.35s-.05.24-.14.33-.2.14-.33.14ZM141.06,42.55v-4.12h.72v4.12h-.72Z"/><path class="cls-3" d="M145.11,39.13h-1.1v2.22c0,.2.04.35.12.43s.2.13.37.13h.61v.64c-.63.08-1.09.03-1.38-.15-.29-.18-.43-.54-.43-1.04v-2.22h-.82v-.69h.82v-.93l.72-.22v1.15h1.1v.69h0Z"/><path class="cls-3" d="M146.32,37.69c-.14,0-.26-.05-.35-.14s-.14-.2-.14-.33.05-.24.14-.35.2-.14.35-.14.24.05.33.14c.09.1.14.2.14.35s-.05.24-.14.33-.2.14-.33.14ZM145.96,42.55v-4.12h.72v4.12h-.72Z"/><path class="cls-3" d="M151.24,42.03c-.42.42-.93.63-1.53.63s-1.11-.2-1.53-.63-.63-.93-.63-1.53.2-1.12.63-1.53c.42-.42.93-.63,1.53-.63s1.11.2,1.53.63c.42.42.64.93.64,1.53s-.22,1.12-.64,1.53ZM149.7,41.95c.41,0,.75-.14,1.04-.42s.42-.63.42-1.05-.14-.77-.42-1.05-.63-.42-1.04-.42-.75.14-1.02.42-.42.63-.42,1.05.14.77.42,1.05.63.42,1.02.42Z"/><path class="cls-3" d="M154.76,38.33c.49,0,.87.15,1.16.46s.43.72.43,1.24v2.52h-.72v-2.48c0-.33-.09-.59-.27-.78s-.43-.28-.75-.28c-.36,0-.64.12-.87.33-.22.22-.33.56-.33,1.02v2.19h-.72v-4.12h.72v.59c.29-.47.73-.7,1.33-.7h.01Z"/><path class="cls-3" d="M159.48,36.79h.77v5.75h-.77v-5.75Z"/><path class="cls-3" d="M163.46,38.33c.49,0,.87.15,1.16.46s.43.72.43,1.24v2.52h-.72v-2.48c0-.33-.09-.59-.27-.78s-.43-.28-.75-.28c-.36,0-.64.12-.87.33-.22.22-.33.56-.33,1.02v2.19h-.72v-4.12h.72v.59c.29-.47.73-.7,1.33-.7h.01Z"/><path class="cls-3" d="M166.66,39.53c0,.15.08.28.24.37.17.09.36.18.58.24.22.06.45.13.68.19s.42.19.58.37.23.42.23.7c0,.37-.14.68-.43.89-.29.23-.65.33-1.11.33-.4,0-.74-.09-1.02-.27-.28-.18-.49-.41-.61-.7l.61-.36c.06.19.19.36.37.47s.4.17.65.17c.23,0,.43-.05.59-.14s.23-.23.23-.42c0-.15-.08-.28-.24-.38-.15-.09-.35-.18-.58-.24-.22-.06-.45-.14-.68-.2s-.42-.19-.58-.37-.24-.4-.24-.68c0-.36.14-.65.42-.88s.63-.35,1.04-.35c.33,0,.63.08.89.23.26.15.46.36.59.63l-.6.33c-.15-.35-.45-.52-.88-.52-.2,0-.37.05-.52.14s-.22.23-.22.4l.03.05Z"/><path class="cls-3" d="M171.89,39.13h-1.1v2.22c0,.2.04.35.12.43s.2.13.37.13h.61v.64c-.63.08-1.09.03-1.38-.15-.29-.18-.43-.54-.43-1.04v-2.22h-.82v-.69h.82v-.93l.72-.22v1.15h1.1v.69h0Z"/><path class="cls-3" d="M175.93,38.44h.72v4.12h-.72v-.7c-.36.54-.87.82-1.56.82-.58,0-1.06-.2-1.47-.63s-.61-.93-.61-1.53.2-1.11.61-1.53c.41-.42.89-.63,1.47-.63.68,0,1.2.27,1.56.82v-.73ZM174.46,41.96c.42,0,.77-.14,1.05-.42s.42-.63.42-1.05-.14-.77-.42-1.05-.63-.42-1.05-.42-.75.14-1.04.42-.42.63-.42,1.05.14.77.42,1.05.63.42,1.04.42Z"/><path class="cls-3" d="M181.15,38.44h.7v3.94c0,.61-.2,1.09-.61,1.42s-.91.51-1.48.51c-.46,0-.86-.09-1.19-.26-.33-.18-.59-.42-.75-.74l.63-.36c.23.46.68.69,1.34.69.42,0,.77-.12,1.01-.33.24-.23.37-.54.37-.92v-.59c-.36.55-.88.82-1.55.82-.59,0-1.09-.2-1.48-.63s-.61-.92-.61-1.52.2-1.1.61-1.52.91-.63,1.48-.63c.68,0,1.19.27,1.55.82v-.7h-.01ZM178.64,41.52c.28.28.63.42,1.05.42s.77-.14,1.05-.42.42-.63.42-1.05-.14-.75-.42-1.04-.63-.42-1.05-.42-.77.14-1.05.42-.42.63-.42,1.04.14.77.42,1.05Z"/><path class="cls-3" d="M183.65,39.13c.23-.51.66-.77,1.28-.77v.74c-.36-.01-.65.08-.91.28s-.38.52-.38.98v2.19h-.72v-4.12h.72v.69h.01Z"/><path class="cls-3" d="M188.82,38.44h.72v4.12h-.72v-.7c-.36.54-.87.82-1.56.82-.58,0-1.06-.2-1.47-.63s-.61-.93-.61-1.53.2-1.11.61-1.53c.41-.42.89-.63,1.47-.63.68,0,1.2.27,1.56.82v-.73ZM187.35,41.96c.42,0,.77-.14,1.05-.42s.42-.63.42-1.05-.14-.77-.42-1.05-.63-.42-1.05-.42-.75.14-1.04.42-.42.63-.42,1.05.14.77.42,1.05.63.42,1.04.42Z"/><path class="cls-3" d="M195.05,38.33c.46,0,.83.15,1.12.45.28.29.42.7.42,1.21v2.56h-.72v-2.53c0-.32-.08-.56-.24-.74-.17-.18-.38-.27-.65-.27-.31,0-.55.1-.74.31-.18.2-.27.52-.27.95v2.29h-.72v-2.53c0-.32-.08-.56-.23-.74s-.37-.27-.64-.27c-.31,0-.55.1-.75.32-.2.2-.29.52-.29.93v2.29h-.72v-4.12h.72v.55c.28-.43.69-.65,1.23-.65s.96.23,1.21.7c.28-.47.72-.7,1.29-.7h-.03Z"/></g></svg>
